{"glyphs":{"0":{"ha":556,"x_min":0,"x_max":0,"o":"m 504 417 b 528 486 519 436 528 460 b 417 597 528 549 479 597 b 385 593 406 597 394 596 b 389 625 388 603 389 614 b 278 736 389 688 340 736 b 167 625 215 736 167 688 b 171 593 167 614 168 603 b 139 597 161 596 150 597 b 28 486 76 597 28 549 b 51 417 28 460 36 436 b 28 347 36 397 28 374 b 51 278 28 321 36 297 b 28 208 36 258 28 235 b 139 97 28 146 76 97 b 171 101 150 97 161 99 b 167 69 168 92 167 81 b 278 -42 167 7 215 -42 b 389 69 340 -42 389 7 b 385 101 389 81 388 92 b 417 97 394 99 406 97 b 528 208 479 97 528 146 b 504 278 528 235 519 258 b 528 347 519 297 528 321 b 504 417 528 374 519 397 z m 246 176 b 250 208 249 186 250 197 b 226 278 250 235 242 258 b 250 347 242 297 250 321 b 226 417 250 374 242 397 b 250 486 242 436 250 460 b 246 518 250 497 249 508 b 278 514 256 515 267 514 b 310 518 289 514 300 515 b 306 486 307 508 306 497 b 329 417 306 460 314 436 b 306 347 314 397 306 374 b 329 278 306 321 314 297 b 306 208 314 258 306 235 b 310 176 306 197 307 186 b 278 181 300 179 289 181 b 246 176 267 181 256 179 z "},"1":{"ha":417,"x_min":0,"x_max":0,"o":"m 365 556 b 389 625 381 575 389 599 b 278 736 389 688 340 736 b 167 625 215 736 167 688 b 171 593 167 614 168 603 b 139 597 161 596 150 597 b 28 486 76 597 28 549 b 139 375 28 424 76 375 b 171 379 150 375 161 376 b 167 347 168 369 167 358 b 190 278 167 321 175 297 b 167 208 175 258 167 235 b 190 139 167 182 175 158 b 167 69 175 119 167 96 b 278 -42 167 7 215 -42 b 389 69 340 -42 389 7 b 365 139 389 96 381 119 b 389 208 381 158 389 182 b 365 278 389 235 381 258 b 389 347 381 297 389 321 b 365 417 389 374 381 397 b 389 486 381 436 389 460 b 365 556 389 513 381 536 z "},"2":{"ha":556,"x_min":0,"x_max":0,"o":"m 417 181 b 347 157 390 181 367 172 b 278 181 328 172 304 181 b 246 176 267 181 256 179 b 250 208 249 186 250 197 b 246 240 250 219 249 231 b 278 236 256 238 267 236 b 389 347 340 236 389 285 b 385 379 389 358 388 369 b 417 375 394 376 406 375 b 528 486 479 375 528 424 b 417 597 528 549 479 597 b 385 593 406 597 394 596 b 389 625 388 603 389 614 b 278 736 389 688 340 736 b 208 713 251 736 228 728 b 139 736 189 728 165 736 b 28 625 76 736 28 688 b 139 514 28 563 76 514 b 208 538 165 514 189 522 b 278 514 228 522 251 514 b 310 518 289 514 300 515 b 306 486 307 508 306 497 b 310 454 306 475 307 464 b 278 458 300 457 289 458 b 167 347 215 458 167 410 b 171 315 167 336 168 325 b 139 319 161 318 150 319 b 28 208 76 319 28 271 b 51 139 28 182 36 158 b 28 69 36 119 28 96 b 139 -42 28 7 76 -42 b 208 -18 165 -42 189 -33 b 278 -42 228 -33 251 -42 b 347 -18 304 -42 328 -33 b 417 -42 367 -33 390 -42 b 528 69 479 -42 528 7 b 417 181 528 132 479 181 z "},"3":{"ha":556,"x_min":0,"x_max":0,"o":"m 417 319 b 385 315 406 319 394 318 b 389 347 388 325 389 336 b 385 379 389 358 388 369 b 417 375 394 376 406 375 b 528 486 479 375 528 424 b 417 597 528 549 479 597 b 385 593 406 597 394 596 b 389 625 388 603 389 614 b 278 736 389 688 340 736 b 208 713 251 736 228 728 b 139 736 189 728 165 736 b 28 625 76 736 28 688 b 139 514 28 563 76 514 b 208 538 165 514 189 522 b 278 514 228 522 251 514 b 310 518 289 514 300 515 b 306 486 307 508 306 497 b 310 454 306 475 307 464 b 278 458 300 457 289 458 b 167 347 215 458 167 410 b 278 236 167 285 215 236 b 310 240 289 236 300 238 b 306 208 307 231 306 219 b 310 176 306 197 307 186 b 278 181 300 179 289 181 b 208 157 251 181 228 172 b 139 181 189 172 165 181 b 28 69 76 181 28 132 b 139 -42 28 7 76 -42 b 208 -18 165 -42 189 -33 b 278 -42 228 -33 251 -42 b 389 69 340 -42 389 7 b 385 101 389 81 388 92 b 417 97 394 99 406 97 b 528 208 479 97 528 146 b 417 319 528 271 479 319 z "},"4":{"ha":556,"x_min":0,"x_max":0,"o":"m 504 556 b 528 625 519 575 528 599 b 417 736 528 688 479 736 b 306 625 354 736 306 688 b 310 593 306 614 307 603 b 278 597 300 596 289 597 b 167 486 215 597 167 549 b 171 454 167 475 168 464 b 139 458 161 457 150 458 b 28 347 76 458 28 410 b 51 278 28 321 36 297 b 28 208 36 258 28 235 b 139 97 28 146 76 97 b 208 121 165 97 189 106 b 278 97 228 106 251 97 b 310 101 289 97 300 99 b 306 69 307 92 306 81 b 417 -42 306 7 354 -42 b 528 69 479 -42 528 7 b 504 139 528 96 519 119 b 528 208 519 158 528 182 b 504 278 528 235 519 258 b 528 347 519 297 528 321 b 504 417 528 374 519 397 b 528 486 519 436 528 460 b 504 556 528 513 519 536 z m 246 315 b 250 347 249 325 250 336 b 246 379 250 358 249 369 b 278 375 256 376 267 375 b 310 379 289 375 300 376 b 306 347 307 369 306 358 b 310 315 306 336 307 325 b 278 319 300 318 289 319 b 246 315 267 319 256 318 z "},"5":{"ha":556,"x_min":0,"x_max":0,"o":"m 417 319 b 385 315 406 319 394 318 b 389 347 388 325 389 336 b 278 458 389 410 340 458 b 246 454 267 458 256 457 b 250 486 249 464 250 475 b 246 518 250 497 249 508 b 278 514 256 515 267 514 b 347 538 304 514 328 522 b 417 514 367 522 390 514 b 528 625 479 514 528 563 b 417 736 528 688 479 736 b 347 713 390 736 367 728 b 278 736 328 728 304 736 b 208 713 251 736 228 728 b 139 736 189 728 165 736 b 28 625 76 736 28 688 b 51 556 28 599 36 575 b 28 486 36 536 28 513 b 51 417 28 460 36 436 b 28 347 36 397 28 374 b 139 236 28 285 76 236 b 208 260 165 236 189 244 b 278 236 228 244 251 236 b 310 240 289 236 300 238 b 306 208 307 231 306 219 b 310 176 306 197 307 186 b 278 181 300 179 289 181 b 208 157 251 181 228 172 b 139 181 189 172 165 181 b 28 69 76 181 28 132 b 139 -42 28 7 76 -42 b 208 -18 165 -42 189 -33 b 278 -42 228 -33 251 -42 b 389 69 340 -42 389 7 b 385 101 389 81 388 92 b 417 97 394 99 406 97 b 528 208 479 97 528 146 b 417 319 528 271 479 319 z "},"6":{"ha":556,"x_min":0,"x_max":0,"o":"m 417 319 b 385 315 406 319 394 318 b 389 347 388 325 389 336 b 278 458 389 410 340 458 b 246 454 267 458 256 457 b 250 486 249 464 250 475 b 246 518 250 497 249 508 b 278 514 256 515 267 514 b 347 538 304 514 328 522 b 417 514 367 522 390 514 b 528 625 479 514 528 563 b 417 736 528 688 479 736 b 347 713 390 736 367 728 b 278 736 328 728 304 736 b 167 625 215 736 167 688 b 171 593 167 614 168 603 b 139 597 161 596 150 597 b 28 486 76 597 28 549 b 51 417 28 460 36 436 b 28 347 36 397 28 374 b 51 278 28 321 36 297 b 28 208 36 258 28 235 b 139 97 28 146 76 97 b 171 101 150 97 161 99 b 167 69 168 92 167 81 b 278 -42 167 7 215 -42 b 389 69 340 -42 389 7 b 385 101 389 81 388 92 b 417 97 394 99 406 97 b 528 208 479 97 528 146 b 417 319 528 271 479 319 z m 246 176 b 250 208 249 186 250 197 b 246 240 250 219 249 231 b 278 236 256 238 267 236 b 310 240 289 236 300 238 b 306 208 307 231 306 219 b 310 176 306 197 307 186 b 278 181 300 179 289 181 b 246 176 267 181 256 179 z "},"7":{"ha":556,"x_min":0,"x_max":0,"o":"m 528 625 b 417 736 528 688 479 736 b 347 713 390 736 367 728 b 278 736 328 728 304 736 b 208 713 251 736 228 728 b 139 736 189 728 165 736 b 28 625 76 736 28 688 b 139 514 28 563 76 514 b 208 538 165 514 189 522 b 278 514 228 522 251 514 b 310 518 289 514 300 515 b 306 486 307 508 306 497 b 310 454 306 475 307 464 b 278 458 300 457 289 458 b 167 347 215 458 167 410 b 190 278 167 321 175 297 b 167 208 175 258 167 235 b 171 176 167 197 168 186 b 139 181 161 179 150 181 b 28 69 76 181 28 132 b 139 -42 28 7 76 -42 b 250 69 201 -42 250 7 b 246 101 250 81 249 92 b 278 97 256 99 267 97 b 389 208 340 97 389 146 b 365 278 389 235 381 258 b 389 347 381 297 389 321 b 385 379 389 358 388 369 b 417 375 394 376 406 375 b 528 486 479 375 528 424 b 504 556 528 513 519 536 b 528 625 519 575 528 599 z "},"8":{"ha":556,"x_min":0,"x_max":0,"o":"m 417 319 b 385 315 406 319 394 318 b 389 347 388 325 389 336 b 385 379 389 358 388 369 b 417 375 394 376 406 375 b 528 486 479 375 528 424 b 417 597 528 549 479 597 b 385 593 406 597 394 596 b 389 625 388 603 389 614 b 278 736 389 688 340 736 b 167 625 215 736 167 688 b 171 593 167 614 168 603 b 139 597 161 596 150 597 b 28 486 76 597 28 549 b 139 375 28 424 76 375 b 171 379 150 375 161 376 b 167 347 168 369 167 358 b 171 315 167 336 168 325 b 139 319 161 318 150 319 b 28 208 76 319 28 271 b 139 97 28 146 76 97 b 171 101 150 97 161 99 b 167 69 168 92 167 81 b 278 -42 167 7 215 -42 b 389 69 340 -42 389 7 b 385 101 389 81 388 92 b 417 97 394 99 406 97 b 528 208 479 97 528 146 b 417 319 528 271 479 319 z m 310 518 b 306 486 307 508 306 497 b 310 454 306 475 307 464 b 278 458 300 457 289 458 b 246 454 267 458 256 457 b 250 486 249 464 250 475 b 246 518 250 497 249 508 b 278 514 256 515 267 514 b 310 518 289 514 300 515 z m 246 176 b 250 208 249 186 250 197 b 246 240 250 219 249 231 b 278 236 256 238 267 236 b 310 240 289 236 300 238 b 306 208 307 231 306 219 b 310 176 306 197 307 186 b 278 181 300 179 289 181 b 246 176 267 181 256 179 z "},"9":{"ha":556,"x_min":0,"x_max":0,"o":"m 504 417 b 528 486 519 436 528 460 b 417 597 528 549 479 597 b 385 593 406 597 394 596 b 389 625 388 603 389 614 b 278 736 389 688 340 736 b 167 625 215 736 167 688 b 171 593 167 614 168 603 b 139 597 161 596 150 597 b 28 486 76 597 28 549 b 139 375 28 424 76 375 b 171 379 150 375 161 376 b 167 347 168 369 167 358 b 278 236 167 285 215 236 b 310 240 289 236 300 238 b 306 208 307 231 306 219 b 310 176 306 197 307 186 b 278 181 300 179 289 181 b 208 157 251 181 228 172 b 139 181 189 172 165 181 b 28 69 76 181 28 132 b 139 -42 28 7 76 -42 b 208 -18 165 -42 189 -33 b 278 -42 228 -33 251 -42 b 389 69 340 -42 389 7 b 385 101 389 81 388 92 b 417 97 394 99 406 97 b 528 208 479 97 528 146 b 504 278 528 235 519 258 b 528 347 519 297 528 321 b 504 417 528 374 519 397 z m 246 454 b 250 486 249 464 250 475 b 246 518 250 497 249 508 b 278 514 256 515 267 514 b 310 518 289 514 300 515 b 306 486 307 508 306 497 b 310 454 306 475 307 464 b 278 458 300 457 289 458 b 246 454 267 458 256 457 z "}," ":{"ha":278,"x_min":0,"x_max":0,"o":""},"A":{"ha":556,"x_min":0,"x_max":0,"o":"m 504 417 b 528 486 519 436 528 460 b 417 597 528 549 479 597 b 385 593 406 597 394 596 b 389 625 388 603 389 614 b 278 736 389 688 340 736 b 167 625 215 736 167 688 b 171 593 167 614 168 603 b 139 597 161 596 150 597 b 28 486 76 597 28 549 b 51 417 28 460 36 436 b 28 347 36 397 28 374 b 51 278 28 321 36 297 b 28 208 36 258 28 235 b 51 139 28 182 36 158 b 28 69 36 119 28 96 b 139 -42 28 7 76 -42 b 250 69 201 -42 250 7 b 226 139 250 96 242 119 b 250 208 242 158 250 182 b 246 240 250 219 249 231 b 278 236 256 238 267 236 b 310 240 289 236 300 238 b 306 208 307 231 306 219 b 329 139 306 182 314 158 b 306 69 314 119 306 96 b 417 -42 306 7 354 -42 b 528 69 479 -42 528 7 b 504 139 528 96 519 119 b 528 208 519 158 528 182 b 504 278 528 235 519 258 b 528 347 519 297 528 321 b 504 417 528 374 519 397 z m 246 454 b 250 486 249 464 250 475 b 246 518 250 497 249 508 b 278 514 256 515 267 514 b 310 518 289 514 300 515 b 306 486 307 508 306 497 b 310 454 306 475 307 464 b 278 458 300 457 289 458 b 246 454 267 458 256 457 z "},"Á":{"ha":556,"x_min":0,"x_max":0,"o":"m 278 792 b 389 903 340 792 389 840 b 385 935 389 914 388 925 b 417 931 394 932 406 931 b 528 1042 479 931 528 979 b 417 1153 528 1104 479 1153 b 306 1042 354 1153 306 1104 b 310 1010 306 1031 307 1019 b 278 1014 300 1013 289 1014 b 167 903 215 1014 167 965 b 278 792 167 840 215 792 z m 417 597 b 385 593 406 597 394 596 b 389 625 388 603 389 614 b 278 736 389 688 340 736 b 167 625 215 736 167 688 b 171 593 167 614 168 603 b 139 597 161 596 150 597 b 28 486 76 597 28 549 b 51 417 28 460 36 436 b 28 347 36 397 28 374 b 51 278 28 321 36 297 b 28 208 36 258 28 235 b 51 139 28 182 36 158 b 28 69 36 119 28 96 b 139 -42 28 7 76 -42 b 250 69 201 -42 250 7 b 226 139 250 96 242 119 b 250 208 242 158 250 182 b 246 240 250 219 249 231 b 278 236 256 238 267 236 b 310 240 289 236 300 238 b 306 208 307 231 306 219 b 329 139 306 182 314 158 b 306 69 314 119 306 96 b 417 -42 306 7 354 -42 b 528 69 479 -42 528 7 b 504 139 528 96 519 119 b 528 208 519 158 528 182 b 504 278 528 235 519 258 b 528 347 519 297 528 321 b 504 417 528 374 519 397 b 528 486 519 436 528 460 b 417 597 528 549 479 597 z m 246 454 b 250 486 249 464 250 475 b 246 518 250 497 249 508 b 278 514 256 515 267 514 b 310 518 289 514 300 515 b 306 486 307 508 306 497 b 310 454 306 475 307 464 b 278 458 300 457 289 458 b 246 454 267 458 256 457 z "},"Ă":{"ha":556,"x_min":0,"x_max":0,"o":"m 528 1042 b 417 1153 528 1104 479 1153 b 306 1042 354 1153 306 1104 b 310 1010 306 1031 307 1019 b 278 1014 300 1013 289 1014 b 246 1010 267 1014 256 1013 b 250 1042 249 1019 250 1031 b 139 1153 250 1104 201 1153 b 28 1042 76 1153 28 1104 b 51 972 28 1015 36 992 b 28 903 36 953 28 929 b 139 792 28 840 76 792 b 208 815 165 792 189 800 b 278 792 228 800 251 792 b 347 815 304 792 328 800 b 417 792 367 800 390 792 b 528 903 479 792 528 840 b 504 972 528 929 519 953 b 528 1042 519 992 528 1015 z m 417 597 b 385 593 406 597 394 596 b 389 625 388 603 389 614 b 278 736 389 688 340 736 b 167 625 215 736 167 688 b 171 593 167 614 168 603 b 139 597 161 596 150 597 b 28 486 76 597 28 549 b 51 417 28 460 36 436 b 28 347 36 397 28 374 b 51 278 28 321 36 297 b 28 208 36 258 28 235 b 51 139 28 182 36 158 b 28 69 36 119 28 96 b 139 -42 28 7 76 -42 b 250 69 201 -42 250 7 b 226 139 250 96 242 119 b 250 208 242 158 250 182 b 246 240 250 219 249 231 b 278 236 256 238 267 236 b 310 240 289 236 300 238 b 306 208 307 231 306 219 b 329 139 306 182 314 158 b 306 69 314 119 306 96 b 417 -42 306 7 354 -42 b 528 69 479 -42 528 7 b 504 139 528 96 519 119 b 528 208 519 158 528 182 b 504 278 528 235 519 258 b 528 347 519 297 528 321 b 504 417 528 374 519 397 b 528 486 519 436 528 460 b 417 597 528 549 479 597 z m 246 454 b 250 486 249 464 250 475 b 246 518 250 497 249 508 b 278 514 256 515 267 514 b 310 518 289 514 300 515 b 306 486 307 508 306 497 b 310 454 306 475 307 464 b 278 458 300 457 289 458 b 246 454 267 458 256 457 z "},"Â":{"ha":556,"x_min":0,"x_max":0,"o":"m 139 792 b 250 903 201 792 250 840 b 246 935 250 914 249 925 b 278 931 256 932 267 931 b 310 935 289 931 300 932 b 306 903 307 925 306 914 b 417 792 306 840 354 792 b 528 903 479 792 528 840 b 417 1014 528 965 479 1014 b 385 1010 406 1014 394 1013 b 389 1042 388 1019 389 1031 b 278 1153 389 1104 340 1153 b 167 1042 215 1153 167 1104 b 171 1010 167 1031 168 1019 b 139 1014 161 1013 150 1014 b 28 903 76 1014 28 965 b 139 792 28 840 76 792 z m 417 597 b 385 593 406 597 394 596 b 389 625 388 603 389 614 b 278 736 389 688 340 736 b 167 625 215 736 167 688 b 171 593 167 614 168 603 b 139 597 161 596 150 597 b 28 486 76 597 28 549 b 51 417 28 460 36 436 b 28 347 36 397 28 374 b 51 278 28 321 36 297 b 28 208 36 258 28 235 b 51 139 28 182 36 158 b 28 69 36 119 28 96 b 139 -42 28 7 76 -42 b 250 69 201 -42 250 7 b 226 139 250 96 242 119 b 250 208 242 158 250 182 b 246 240 250 219 249 231 b 278 236 256 238 267 236 b 310 240 289 236 300 238 b 306 208 307 231 306 219 b 329 139 306 182 314 158 b 306 69 314 119 306 96 b 417 -42 306 7 354 -42 b 528 69 479 -42 528 7 b 504 139 528 96 519 119 b 528 208 519 158 528 182 b 504 278 528 235 519 258 b 528 347 519 297 528 321 b 504 417 528 374 519 397 b 528 486 519 436 528 460 b 417 597 528 549 479 597 z m 246 454 b 250 486 249 464 250 475 b 246 518 250 497 249 508 b 278 514 256 515 267 514 b 310 518 289 514 300 515 b 306 486 307 508 306 497 b 310 454 306 475 307 464 b 278 458 300 457 289 458 b 246 454 267 458 256 457 z "},"Ä":{"ha":556,"x_min":0,"x_max":0,"o":"m 139 792 b 250 903 201 792 250 840 b 139 1014 250 965 201 1014 b 28 903 76 1014 28 965 b 139 792 28 840 76 792 z m 417 792 b 528 903 479 792 528 840 b 417 1014 528 965 479 1014 b 306 903 354 1014 306 965 b 417 792 306 840 354 792 z m 417 597 b 385 593 406 597 394 596 b 389 625 388 603 389 614 b 278 736 389 688 340 736 b 167 625 215 736 167 688 b 171 593 167 614 168 603 b 139 597 161 596 150 597 b 28 486 76 597 28 549 b 51 417 28 460 36 436 b 28 347 36 397 28 374 b 51 278 28 321 36 297 b 28 208 36 258 28 235 b 51 139 28 182 36 158 b 28 69 36 119 28 96 b 139 -42 28 7 76 -42 b 250 69 201 -42 250 7 b 226 139 250 96 242 119 b 250 208 242 158 250 182 b 246 240 250 219 249 231 b 278 236 256 238 267 236 b 310 240 289 236 300 238 b 306 208 307 231 306 219 b 329 139 306 182 314 158 b 306 69 314 119 306 96 b 417 -42 306 7 354 -42 b 528 69 479 -42 528 7 b 504 139 528 96 519 119 b 528 208 519 158 528 182 b 504 278 528 235 519 258 b 528 347 519 297 528 321 b 504 417 528 374 519 397 b 528 486 519 436 528 460 b 417 597 528 549 479 597 z m 246 454 b 250 486 249 464 250 475 b 246 518 250 497 249 508 b 278 514 256 515 267 514 b 310 518 289 514 300 515 b 306 486 307 508 306 497 b 310 454 306 475 307 464 b 278 458 300 457 289 458 b 246 454 267 458 256 457 z "},"À":{"ha":556,"x_min":0,"x_max":0,"o":"m 139 931 b 171 935 150 931 161 932 b 167 903 168 925 167 914 b 278 792 167 840 215 792 b 389 903 340 792 389 840 b 278 1014 389 965 340 1014 b 246 1010 267 1014 256 1013 b 250 1042 249 1019 250 1031 b 139 1153 250 1104 201 1153 b 28 1042 76 1153 28 1104 b 139 931 28 979 76 931 z m 504 417 b 528 486 519 436 528 460 b 417 597 528 549 479 597 b 385 593 406 597 394 596 b 389 625 388 603 389 614 b 278 736 389 688 340 736 b 167 625 215 736 167 688 b 171 593 167 614 168 603 b 139 597 161 596 150 597 b 28 486 76 597 28 549 b 51 417 28 460 36 436 b 28 347 36 397 28 374 b 51 278 28 321 36 297 b 28 208 36 258 28 235 b 51 139 28 182 36 158 b 28 69 36 119 28 96 b 139 -42 28 7 76 -42 b 250 69 201 -42 250 7 b 226 139 250 96 242 119 b 250 208 242 158 250 182 b 246 240 250 219 249 231 b 278 236 256 238 267 236 b 310 240 289 236 300 238 b 306 208 307 231 306 219 b 329 139 306 182 314 158 b 306 69 314 119 306 96 b 417 -42 306 7 354 -42 b 528 69 479 -42 528 7 b 504 139 528 96 519 119 b 528 208 519 158 528 182 b 504 278 528 235 519 258 b 528 347 519 297 528 321 b 504 417 528 374 519 397 z m 246 454 b 250 486 249 464 250 475 b 246 518 250 497 249 508 b 278 514 256 515 267 514 b 310 518 289 514 300 515 b 306 486 307 508 306 497 b 310 454 306 475 307 464 b 278 458 300 457 289 458 b 246 454 267 458 256 457 z "},"Ā":{"ha":556,"x_min":0,"x_max":0,"o":"m 139 792 b 208 815 165 792 189 800 b 278 792 228 800 251 792 b 347 815 304 792 328 800 b 417 792 367 800 390 792 b 528 903 479 792 528 840 b 417 1014 528 965 479 1014 b 347 990 390 1014 367 1006 b 278 1014 328 1006 304 1014 b 208 990 251 1014 228 1006 b 139 1014 189 1006 165 1014 b 28 903 76 1014 28 965 b 139 792 28 840 76 792 z m 417 597 b 385 593 406 597 394 596 b 389 625 388 603 389 614 b 278 736 389 688 340 736 b 167 625 215 736 167 688 b 171 593 167 614 168 603 b 139 597 161 596 150 597 b 28 486 76 597 28 549 b 51 417 28 460 36 436 b 28 347 36 397 28 374 b 51 278 28 321 36 297 b 28 208 36 258 28 235 b 51 139 28 182 36 158 b 28 69 36 119 28 96 b 139 -42 28 7 76 -42 b 250 69 201 -42 250 7 b 226 139 250 96 242 119 b 250 208 242 158 250 182 b 246 240 250 219 249 231 b 278 236 256 238 267 236 b 310 240 289 236 300 238 b 306 208 307 231 306 219 b 329 139 306 182 314 158 b 306 69 314 119 306 96 b 417 -42 306 7 354 -42 b 528 69 479 -42 528 7 b 504 139 528 96 519 119 b 528 208 519 158 528 182 b 504 278 528 235 519 258 b 528 347 519 297 528 321 b 504 417 528 374 519 397 b 528 486 519 436 528 460 b 417 597 528 549 479 597 z m 246 454 b 250 486 249 464 250 475 b 246 518 250 497 249 508 b 278 514 256 515 267 514 b 310 518 289 514 300 515 b 306 486 307 508 306 497 b 310 454 306 475 307 464 b 278 458 300 457 289 458 b 246 454 267 458 256 457 z "},"Ą":{"ha":556,"x_min":0,"x_max":0,"o":"m 504 417 b 528 486 519 436 528 460 b 417 597 528 549 479 597 b 385 593 406 597 394 596 b 389 625 388 603 389 614 b 278 736 389 688 340 736 b 167 625 215 736 167 688 b 171 593 167 614 168 603 b 139 597 161 596 150 597 b 28 486 76 597 28 549 b 51 417 28 460 36 436 b 28 347 36 397 28 374 b 51 278 28 321 36 297 b 28 208 36 258 28 235 b 51 139 28 182 36 158 b 28 69 36 119 28 96 b 139 -42 28 7 76 -42 b 171 -37 150 -42 161 -40 b 167 -69 168 -47 167 -58 b 190 -139 167 -96 175 -119 b 167 -208 175 -158 167 -182 b 278 -319 167 -271 215 -319 b 347 -296 304 -319 328 -311 b 417 -319 367 -311 390 -319 b 528 -208 479 -319 528 -271 b 417 -97 528 -146 479 -97 b 385 -101 406 -97 394 -99 b 389 -69 388 -92 389 -81 b 385 -37 389 -58 388 -47 b 417 -42 394 -40 406 -42 b 528 69 479 -42 528 7 b 504 139 528 96 519 119 b 528 208 519 158 528 182 b 504 278 528 235 519 258 b 528 347 519 297 528 321 b 504 417 528 374 519 397 z m 310 518 b 306 486 307 508 306 497 b 310 454 306 475 307 464 b 278 458 300 457 289 458 b 246 454 267 458 256 457 b 250 486 249 464 250 475 b 246 518 250 497 249 508 b 278 514 256 515 267 514 b 310 518 289 514 300 515 z m 246 38 b 250 69 249 47 250 58 b 226 139 250 96 242 119 b 250 208 242 158 250 182 b 246 240 250 219 249 231 b 278 236 256 238 267 236 b 310 240 289 236 300 238 b 306 208 307 231 306 219 b 329 139 306 182 314 158 b 306 69 314 119 306 96 b 310 38 306 58 307 47 b 278 42 300 40 289 42 b 246 38 267 42 256 40 z "},"Å":{"ha":556,"x_min":0,"x_max":0,"o":"m 417 597 b 385 593 406 597 394 596 b 389 625 388 603 389 614 b 385 657 389 636 388 647 b 417 653 394 654 406 653 b 528 764 479 653 528 701 b 417 875 528 826 479 875 b 385 871 406 875 394 874 b 389 903 388 881 389 892 b 278 1014 389 965 340 1014 b 167 903 215 1014 167 965 b 171 871 167 892 168 881 b 139 875 161 874 150 875 b 28 764 76 875 28 826 b 139 653 28 701 76 653 b 171 657 150 653 161 654 b 167 625 168 647 167 636 b 171 593 167 614 168 603 b 139 597 161 596 150 597 b 28 486 76 597 28 549 b 51 417 28 460 36 436 b 28 347 36 397 28 374 b 51 278 28 321 36 297 b 28 208 36 258 28 235 b 51 139 28 182 36 158 b 28 69 36 119 28 96 b 139 -42 28 7 76 -42 b 250 69 201 -42 250 7 b 226 139 250 96 242 119 b 250 208 242 158 250 182 b 246 240 250 219 249 231 b 278 236 256 238 267 236 b 310 240 289 236 300 238 b 306 208 307 231 306 219 b 329 139 306 182 314 158 b 306 69 314 119 306 96 b 417 -42 306 7 354 -42 b 528 69 479 -42 528 7 b 504 139 528 96 519 119 b 528 208 519 158 528 182 b 504 278 528 235 519 258 b 528 347 519 297 528 321 b 504 417 528 374 519 397 b 528 486 519 436 528 460 b 417 597 528 549 479 597 z m 310 796 b 306 764 307 786 306 775 b 310 732 306 753 307 742 b 278 736 300 735 289 736 b 246 732 267 736 256 735 b 250 764 249 742 250 753 b 246 796 250 775 249 786 b 278 792 256 793 267 792 b 310 796 289 792 300 793 z m 246 454 b 250 486 249 464 250 475 b 246 518 250 497 249 508 b 278 514 256 515 267 514 b 310 518 289 514 300 515 b 306 486 307 508 306 497 b 310 454 306 475 307 464 b 278 458 300 457 289 458 b 246 454 267 458 256 457 z "},"Ã":{"ha":556,"x_min":0,"x_max":0,"o":"m 556 1153 b 444 1042 493 1153 444 1104 b 449 1010 444 1031 446 1019 b 417 1014 439 1013 428 1014 b 385 1010 406 1014 394 1013 b 389 1042 388 1019 389 1031 b 278 1153 389 1104 340 1153 b 167 1042 215 1153 167 1104 b 171 1010 167 1031 168 1019 b 139 1014 161 1013 150 1014 b 28 903 76 1014 28 965 b 139 792 28 840 76 792 b 250 903 201 792 250 840 b 246 935 250 914 249 925 b 278 931 256 932 267 931 b 310 935 289 931 300 932 b 306 903 307 925 306 914 b 417 792 306 840 354 792 b 528 903 479 792 528 840 b 524 935 528 914 526 925 b 556 931 533 932 544 931 b 667 1042 618 931 667 979 b 556 1153 667 1104 618 1153 z m 417 597 b 385 593 406 597 394 596 b 389 625 388 603 389 614 b 278 736 389 688 340 736 b 167 625 215 736 167 688 b 171 593 167 614 168 603 b 139 597 161 596 150 597 b 28 486 76 597 28 549 b 51 417 28 460 36 436 b 28 347 36 397 28 374 b 51 278 28 321 36 297 b 28 208 36 258 28 235 b 51 139 28 182 36 158 b 28 69 36 119 28 96 b 139 -42 28 7 76 -42 b 250 69 201 -42 250 7 b 226 139 250 96 242 119 b 250 208 242 158 250 182 b 246 240 250 219 249 231 b 278 236 256 238 267 236 b 310 240 289 236 300 238 b 306 208 307 231 306 219 b 329 139 306 182 314 158 b 306 69 314 119 306 96 b 417 -42 306 7 354 -42 b 528 69 479 -42 528 7 b 504 139 528 96 519 119 b 528 208 519 158 528 182 b 504 278 528 235 519 258 b 528 347 519 297 528 321 b 504 417 528 374 519 397 b 528 486 519 436 528 460 b 417 597 528 549 479 597 z m 246 454 b 250 486 249 464 250 475 b 246 518 250 497 249 508 b 278 514 256 515 267 514 b 310 518 289 514 300 515 b 306 486 307 508 306 497 b 310 454 306 475 307 464 b 278 458 300 457 289 458 b 246 454 267 458 256 457 z "},"Æ":{"ha":694,"x_min":0,"x_max":0,"o":"m 667 347 b 556 458 667 410 618 458 b 524 454 544 458 533 457 b 528 486 526 464 528 475 b 524 518 528 497 526 508 b 556 514 533 515 544 514 b 667 625 618 514 667 563 b 556 736 667 688 618 736 b 486 713 529 736 506 728 b 417 736 467 728 443 736 b 347 713 390 736 367 728 b 278 736 328 728 304 736 b 167 625 215 736 167 688 b 171 593 167 614 168 603 b 139 597 161 596 150 597 b 28 486 76 597 28 549 b 51 417 28 460 36 436 b 28 347 36 397 28 374 b 51 278 28 321 36 297 b 28 208 36 258 28 235 b 51 139 28 182 36 158 b 28 69 36 119 28 96 b 139 -42 28 7 76 -42 b 250 69 201 -42 250 7 b 226 139 250 96 242 119 b 250 208 242 158 250 182 b 246 240 250 219 249 231 b 278 236 256 238 267 236 b 310 240 289 236 300 238 b 306 208 307 231 306 219 b 329 139 306 182 314 158 b 306 69 314 119 306 96 b 417 -42 306 7 354 -42 b 486 -18 443 -42 467 -33 b 556 -42 506 -33 529 -42 b 667 69 618 -42 667 7 b 556 181 667 132 618 181 b 524 176 544 181 533 179 b 528 208 526 186 528 197 b 524 240 528 219 526 231 b 556 236 533 238 544 236 b 667 347 618 236 667 285 z m 246 454 b 250 486 249 464 250 475 b 246 518 250 497 249 508 b 278 514 256 515 267 514 b 310 518 289 514 300 515 b 306 486 307 508 306 497 b 310 454 306 475 307 464 b 278 458 300 457 289 458 b 246 454 267 458 256 457 z "},"B":{"ha":556,"x_min":0,"x_max":0,"o":"m 417 319 b 385 315 406 319 394 318 b 389 347 388 325 389 336 b 385 379 389 358 388 369 b 417 375 394 376 406 375 b 528 486 479 375 528 424 b 417 597 528 549 479 597 b 385 593 406 597 394 596 b 389 625 388 603 389 614 b 278 736 389 688 340 736 b 208 713 251 736 228 728 b 139 736 189 728 165 736 b 28 625 76 736 28 688 b 51 556 28 599 36 575 b 28 486 36 536 28 513 b 51 417 28 460 36 436 b 28 347 36 397 28 374 b 51 278 28 321 36 297 b 28 208 36 258 28 235 b 51 139 28 182 36 158 b 28 69 36 119 28 96 b 139 -42 28 7 76 -42 b 208 -18 165 -42 189 -33 b 278 -42 228 -33 251 -42 b 389 69 340 -42 389 7 b 385 101 389 81 388 92 b 417 97 394 99 406 97 b 528 208 479 97 528 146 b 417 319 528 271 479 319 z m 310 518 b 306 486 307 508 306 497 b 310 454 306 475 307 464 b 278 458 300 457 289 458 b 246 454 267 458 256 457 b 250 486 249 464 250 475 b 246 518 250 497 249 508 b 278 514 256 515 267 514 b 310 518 289 514 300 515 z m 246 176 b 250 208 249 186 250 197 b 246 240 250 219 249 231 b 278 236 256 238 267 236 b 310 240 289 236 300 238 b 306 208 307 231 306 219 b 310 176 306 197 307 186 b 278 181 300 179 289 181 b 246 176 267 181 256 179 z "},"C":{"ha":556,"x_min":0,"x_max":0,"o":"m 417 319 b 306 208 354 319 306 271 b 310 176 306 197 307 186 b 278 181 300 179 289 181 b 246 176 267 181 256 179 b 250 208 249 186 250 197 b 226 278 250 235 242 258 b 250 347 242 297 250 321 b 226 417 250 374 242 397 b 250 486 242 436 250 460 b 246 518 250 497 249 508 b 278 514 256 515 267 514 b 310 518 289 514 300 515 b 306 486 307 508 306 497 b 417 375 306 424 354 375 b 528 486 479 375 528 424 b 417 597 528 549 479 597 b 385 593 406 597 394 596 b 389 625 388 603 389 614 b 278 736 389 688 340 736 b 167 625 215 736 167 688 b 171 593 167 614 168 603 b 139 597 161 596 150 597 b 28 486 76 597 28 549 b 51 417 28 460 36 436 b 28 347 36 397 28 374 b 51 278 28 321 36 297 b 28 208 36 258 28 235 b 139 97 28 146 76 97 b 171 101 150 97 161 99 b 167 69 168 92 167 81 b 278 -42 167 7 215 -42 b 389 69 340 -42 389 7 b 385 101 389 81 388 92 b 417 97 394 99 406 97 b 528 208 479 97 528 146 b 417 319 528 271 479 319 z "},"Ć":{"ha":556,"x_min":0,"x_max":0,"o":"m 278 792 b 389 903 340 792 389 840 b 385 935 389 914 388 925 b 417 931 394 932 406 931 b 528 1042 479 931 528 979 b 417 1153 528 1104 479 1153 b 306 1042 354 1153 306 1104 b 310 1010 306 1031 307 1019 b 278 1014 300 1013 289 1014 b 167 903 215 1014 167 965 b 278 792 167 840 215 792 z m 417 375 b 528 486 479 375 528 424 b 417 597 528 549 479 597 b 385 593 406 597 394 596 b 389 625 388 603 389 614 b 278 736 389 688 340 736 b 167 625 215 736 167 688 b 171 593 167 614 168 603 b 139 597 161 596 150 597 b 28 486 76 597 28 549 b 51 417 28 460 36 436 b 28 347 36 397 28 374 b 51 278 28 321 36 297 b 28 208 36 258 28 235 b 139 97 28 146 76 97 b 171 101 150 97 161 99 b 167 69 168 92 167 81 b 278 -42 167 7 215 -42 b 389 69 340 -42 389 7 b 385 101 389 81 388 92 b 417 97 394 99 406 97 b 528 208 479 97 528 146 b 417 319 528 271 479 319 b 306 208 354 319 306 271 b 310 176 306 197 307 186 b 278 181 300 179 289 181 b 246 176 267 181 256 179 b 250 208 249 186 250 197 b 226 278 250 235 242 258 b 250 347 242 297 250 321 b 226 417 250 374 242 397 b 250 486 242 436 250 460 b 246 518 250 497 249 508 b 278 514 256 515 267 514 b 310 518 289 514 300 515 b 306 486 307 508 306 497 b 417 375 306 424 354 375 z "},"Č":{"ha":556,"x_min":0,"x_max":0,"o":"m 139 931 b 171 935 150 931 161 932 b 167 903 168 925 167 914 b 278 792 167 840 215 792 b 389 903 340 792 389 840 b 385 935 389 914 388 925 b 417 931 394 932 406 931 b 528 1042 479 931 528 979 b 417 1153 528 1104 479 1153 b 306 1042 354 1153 306 1104 b 310 1010 306 1031 307 1019 b 278 1014 300 1013 289 1014 b 246 1010 267 1014 256 1013 b 250 1042 249 1019 250 1031 b 139 1153 250 1104 201 1153 b 28 1042 76 1153 28 1104 b 139 931 28 979 76 931 z m 417 375 b 528 486 479 375 528 424 b 417 597 528 549 479 597 b 385 593 406 597 394 596 b 389 625 388 603 389 614 b 278 736 389 688 340 736 b 167 625 215 736 167 688 b 171 593 167 614 168 603 b 139 597 161 596 150 597 b 28 486 76 597 28 549 b 51 417 28 460 36 436 b 28 347 36 397 28 374 b 51 278 28 321 36 297 b 28 208 36 258 28 235 b 139 97 28 146 76 97 b 171 101 150 97 161 99 b 167 69 168 92 167 81 b 278 -42 167 7 215 -42 b 389 69 340 -42 389 7 b 385 101 389 81 388 92 b 417 97 394 99 406 97 b 528 208 479 97 528 146 b 417 319 528 271 479 319 b 306 208 354 319 306 271 b 310 176 306 197 307 186 b 278 181 300 179 289 181 b 246 176 267 181 256 179 b 250 208 249 186 250 197 b 226 278 250 235 242 258 b 250 347 242 297 250 321 b 226 417 250 374 242 397 b 250 486 242 436 250 460 b 246 518 250 497 249 508 b 278 514 256 515 267 514 b 310 518 289 514 300 515 b 306 486 307 508 306 497 b 417 375 306 424 354 375 z "},"Ç":{"ha":556,"x_min":0,"x_max":0,"o":"m 417 319 b 306 208 354 319 306 271 b 310 176 306 197 307 186 b 278 181 300 179 289 181 b 246 176 267 181 256 179 b 250 208 249 186 250 197 b 226 278 250 235 242 258 b 250 347 242 297 250 321 b 226 417 250 374 242 397 b 250 486 242 436 250 460 b 246 518 250 497 249 508 b 278 514 256 515 267 514 b 310 518 289 514 300 515 b 306 486 307 508 306 497 b 417 375 306 424 354 375 b 528 486 479 375 528 424 b 417 597 528 549 479 597 b 385 593 406 597 394 596 b 389 625 388 603 389 614 b 278 736 389 688 340 736 b 167 625 215 736 167 688 b 171 593 167 614 168 603 b 139 597 161 596 150 597 b 28 486 76 597 28 549 b 51 417 28 460 36 436 b 28 347 36 397 28 374 b 51 278 28 321 36 297 b 28 208 36 258 28 235 b 139 97 28 146 76 97 b 171 101 150 97 161 99 b 167 69 168 92 167 81 b 171 38 167 58 168 47 b 139 42 161 40 150 42 b 28 -69 76 42 28 -7 b 139 -181 28 -132 76 -181 b 208 -157 165 -181 189 -172 b 278 -181 228 -172 251 -181 b 389 -69 340 -181 389 -132 b 365 0 389 -43 381 -19 b 389 69 381 19 389 43 b 385 101 389 81 388 92 b 417 97 394 99 406 97 b 528 208 479 97 528 146 b 417 319 528 271 479 319 z "},"Ċ":{"ha":556,"x_min":0,"x_max":0,"o":"m 278 792 b 389 903 340 792 389 840 b 278 1014 389 965 340 1014 b 167 903 215 1014 167 965 b 278 792 167 840 215 792 z m 417 319 b 306 208 354 319 306 271 b 310 176 306 197 307 186 b 278 181 300 179 289 181 b 246 176 267 181 256 179 b 250 208 249 186 250 197 b 226 278 250 235 242 258 b 250 347 242 297 250 321 b 226 417 250 374 242 397 b 250 486 242 436 250 460 b 246 518 250 497 249 508 b 278 514 256 515 267 514 b 310 518 289 514 300 515 b 306 486 307 508 306 497 b 417 375 306 424 354 375 b 528 486 479 375 528 424 b 417 597 528 549 479 597 b 385 593 406 597 394 596 b 389 625 388 603 389 614 b 278 736 389 688 340 736 b 167 625 215 736 167 688 b 171 593 167 614 168 603 b 139 597 161 596 150 597 b 28 486 76 597 28 549 b 51 417 28 460 36 436 b 28 347 36 397 28 374 b 51 278 28 321 36 297 b 28 208 36 258 28 235 b 139 97 28 146 76 97 b 171 101 150 97 161 99 b 167 69 168 92 167 81 b 278 -42 167 7 215 -42 b 389 69 340 -42 389 7 b 385 101 389 81 388 92 b 417 97 394 99 406 97 b 528 208 479 97 528 146 b 417 319 528 271 479 319 z "},"D":{"ha":556,"x_min":0,"x_max":0,"o":"m 504 417 b 528 486 519 436 528 460 b 417 597 528 549 479 597 b 385 593 406 597 394 596 b 389 625 388 603 389 614 b 278 736 389 688 340 736 b 208 713 251 736 228 728 b 139 736 189 728 165 736 b 28 625 76 736 28 688 b 51 556 28 599 36 575 b 28 486 36 536 28 513 b 51 417 28 460 36 436 b 28 347 36 397 28 374 b 51 278 28 321 36 297 b 28 208 36 258 28 235 b 51 139 28 182 36 158 b 28 69 36 119 28 96 b 139 -42 28 7 76 -42 b 208 -18 165 -42 189 -33 b 278 -42 228 -33 251 -42 b 389 69 340 -42 389 7 b 385 101 389 81 388 92 b 417 97 394 99 406 97 b 528 208 479 97 528 146 b 504 278 528 235 519 258 b 528 347 519 297 528 321 b 504 417 528 374 519 397 z m 246 176 b 250 208 249 186 250 197 b 226 278 250 235 242 258 b 250 347 242 297 250 321 b 226 417 250 374 242 397 b 250 486 242 436 250 460 b 246 518 250 497 249 508 b 278 514 256 515 267 514 b 310 518 289 514 300 515 b 306 486 307 508 306 497 b 329 417 306 460 314 436 b 306 347 314 397 306 374 b 329 278 306 321 314 297 b 306 208 314 258 306 235 b 310 176 306 197 307 186 b 278 181 300 179 289 181 b 246 176 267 181 256 179 z "},"Ð":{"ha":694,"x_min":0,"x_max":0,"o":"m 643 417 b 667 486 658 436 667 460 b 556 597 667 549 618 597 b 524 593 544 597 533 596 b 528 625 526 603 528 614 b 417 736 528 688 479 736 b 347 713 390 736 367 728 b 278 736 328 728 304 736 b 167 625 215 736 167 688 b 190 556 167 599 175 575 b 167 486 175 536 167 513 b 171 454 167 475 168 464 b 139 458 161 457 150 458 b 28 347 76 458 28 410 b 139 236 28 285 76 236 b 171 240 150 236 161 238 b 167 208 168 231 167 219 b 190 139 167 182 175 158 b 167 69 175 119 167 96 b 278 -42 167 7 215 -42 b 347 -18 304 -42 328 -33 b 417 -42 367 -33 390 -42 b 528 69 479 -42 528 7 b 524 101 528 81 526 92 b 556 97 533 99 544 97 b 667 208 618 97 667 146 b 643 278 667 235 658 258 b 667 347 658 297 667 321 b 643 417 667 374 658 397 z m 385 176 b 389 208 388 186 389 197 b 365 278 389 235 381 258 b 389 347 381 297 389 321 b 365 417 389 374 381 397 b 389 486 381 436 389 460 b 385 518 389 497 388 508 b 417 514 394 515 406 514 b 449 518 428 514 439 515 b 444 486 446 508 444 497 b 468 417 444 460 453 436 b 444 347 453 397 444 374 b 468 278 444 321 453 297 b 444 208 453 258 444 235 b 449 176 444 197 446 186 b 417 181 439 179 428 181 b 385 176 406 181 394 179 z "},"Ď":{"ha":556,"x_min":0,"x_max":0,"o":"m 139 931 b 171 935 150 931 161 932 b 167 903 168 925 167 914 b 278 792 167 840 215 792 b 389 903 340 792 389 840 b 385 935 389 914 388 925 b 417 931 394 932 406 931 b 528 1042 479 931 528 979 b 417 1153 528 1104 479 1153 b 306 1042 354 1153 306 1104 b 310 1010 306 1031 307 1019 b 278 1014 300 1013 289 1014 b 246 1010 267 1014 256 1013 b 250 1042 249 1019 250 1031 b 139 1153 250 1104 201 1153 b 28 1042 76 1153 28 1104 b 139 931 28 979 76 931 z m 417 597 b 385 593 406 597 394 596 b 389 625 388 603 389 614 b 278 736 389 688 340 736 b 208 713 251 736 228 728 b 139 736 189 728 165 736 b 28 625 76 736 28 688 b 51 556 28 599 36 575 b 28 486 36 536 28 513 b 51 417 28 460 36 436 b 28 347 36 397 28 374 b 51 278 28 321 36 297 b 28 208 36 258 28 235 b 51 139 28 182 36 158 b 28 69 36 119 28 96 b 139 -42 28 7 76 -42 b 208 -18 165 -42 189 -33 b 278 -42 228 -33 251 -42 b 389 69 340 -42 389 7 b 385 101 389 81 388 92 b 417 97 394 99 406 97 b 528 208 479 97 528 146 b 504 278 528 235 519 258 b 528 347 519 297 528 321 b 504 417 528 374 519 397 b 528 486 519 436 528 460 b 417 597 528 549 479 597 z m 246 176 b 250 208 249 186 250 197 b 226 278 250 235 242 258 b 250 347 242 297 250 321 b 226 417 250 374 242 397 b 250 486 242 436 250 460 b 246 518 250 497 249 508 b 278 514 256 515 267 514 b 310 518 289 514 300 515 b 306 486 307 508 306 497 b 329 417 306 460 314 436 b 306 347 314 397 306 374 b 329 278 306 321 314 297 b 306 208 314 258 306 235 b 310 176 306 197 307 186 b 278 181 300 179 289 181 b 246 176 267 181 256 179 z "},"Đ":{"ha":694,"x_min":0,"x_max":0,"o":"m 643 417 b 667 486 658 436 667 460 b 556 597 667 549 618 597 b 524 593 544 597 533 596 b 528 625 526 603 528 614 b 417 736 528 688 479 736 b 347 713 390 736 367 728 b 278 736 328 728 304 736 b 167 625 215 736 167 688 b 190 556 167 599 175 575 b 167 486 175 536 167 513 b 171 454 167 475 168 464 b 139 458 161 457 150 458 b 28 347 76 458 28 410 b 139 236 28 285 76 236 b 171 240 150 236 161 238 b 167 208 168 231 167 219 b 190 139 167 182 175 158 b 167 69 175 119 167 96 b 278 -42 167 7 215 -42 b 347 -18 304 -42 328 -33 b 417 -42 367 -33 390 -42 b 528 69 479 -42 528 7 b 524 101 528 81 526 92 b 556 97 533 99 544 97 b 667 208 618 97 667 146 b 643 278 667 235 658 258 b 667 347 658 297 667 321 b 643 417 667 374 658 397 z m 385 176 b 389 208 388 186 389 197 b 365 278 389 235 381 258 b 389 347 381 297 389 321 b 365 417 389 374 381 397 b 389 486 381 436 389 460 b 385 518 389 497 388 508 b 417 514 394 515 406 514 b 449 518 428 514 439 515 b 444 486 446 508 444 497 b 468 417 444 460 453 436 b 444 347 453 397 444 374 b 468 278 444 321 453 297 b 444 208 453 258 444 235 b 449 176 444 197 446 186 b 417 181 439 179 428 181 b 385 176 406 181 394 179 z "},"E":{"ha":417,"x_min":0,"x_max":0,"o":"m 389 347 b 278 458 389 410 340 458 b 246 454 267 458 256 457 b 250 486 249 464 250 475 b 246 518 250 497 249 508 b 278 514 256 515 267 514 b 389 625 340 514 389 563 b 278 736 389 688 340 736 b 208 713 251 736 228 728 b 139 736 189 728 165 736 b 28 625 76 736 28 688 b 51 556 28 599 36 575 b 28 486 36 536 28 513 b 51 417 28 460 36 436 b 28 347 36 397 28 374 b 51 278 28 321 36 297 b 28 208 36 258 28 235 b 51 139 28 182 36 158 b 28 69 36 119 28 96 b 139 -42 28 7 76 -42 b 208 -18 165 -42 189 -33 b 278 -42 228 -33 251 -42 b 389 69 340 -42 389 7 b 278 181 389 132 340 181 b 246 176 267 181 256 179 b 250 208 249 186 250 197 b 246 240 250 219 249 231 b 278 236 256 238 267 236 b 389 347 340 236 389 285 z "},"É":{"ha":417,"x_min":0,"x_max":0,"o":"m 139 792 b 250 903 201 792 250 840 b 246 935 250 914 249 925 b 278 931 256 932 267 931 b 389 1042 340 931 389 979 b 278 1153 389 1104 340 1153 b 167 1042 215 1153 167 1104 b 171 1010 167 1031 168 1019 b 139 1014 161 1013 150 1014 b 28 903 76 1014 28 965 b 139 792 28 840 76 792 z m 389 625 b 278 736 389 688 340 736 b 208 713 251 736 228 728 b 139 736 189 728 165 736 b 28 625 76 736 28 688 b 51 556 28 599 36 575 b 28 486 36 536 28 513 b 51 417 28 460 36 436 b 28 347 36 397 28 374 b 51 278 28 321 36 297 b 28 208 36 258 28 235 b 51 139 28 182 36 158 b 28 69 36 119 28 96 b 139 -42 28 7 76 -42 b 208 -18 165 -42 189 -33 b 278 -42 228 -33 251 -42 b 389 69 340 -42 389 7 b 278 181 389 132 340 181 b 246 176 267 181 256 179 b 250 208 249 186 250 197 b 246 240 250 219 249 231 b 278 236 256 238 267 236 b 389 347 340 236 389 285 b 278 458 389 410 340 458 b 246 454 267 458 256 457 b 250 486 249 464 250 475 b 246 518 250 497 249 508 b 278 514 256 515 267 514 b 389 625 340 514 389 563 z "},"Ě":{"ha":417,"x_min":0,"x_max":0,"o":"m 28 903 b 139 792 28 840 76 792 b 250 903 201 792 250 840 b 246 935 250 914 249 925 b 278 931 256 932 267 931 b 389 1042 340 931 389 979 b 278 1153 389 1104 340 1153 b 167 1042 215 1153 167 1104 b 171 1010 167 1031 168 1019 b 139 1014 161 1013 150 1014 b 107 1010 128 1014 117 1013 b 111 1042 110 1019 111 1031 b 0 1153 111 1104 63 1153 b -111 1042 -62 1153 -111 1104 b 0 931 -111 979 -62 931 b 32 935 11 931 22 932 b 28 903 29 925 28 914 z m 389 625 b 278 736 389 688 340 736 b 208 713 251 736 228 728 b 139 736 189 728 165 736 b 28 625 76 736 28 688 b 51 556 28 599 36 575 b 28 486 36 536 28 513 b 51 417 28 460 36 436 b 28 347 36 397 28 374 b 51 278 28 321 36 297 b 28 208 36 258 28 235 b 51 139 28 182 36 158 b 28 69 36 119 28 96 b 139 -42 28 7 76 -42 b 208 -18 165 -42 189 -33 b 278 -42 228 -33 251 -42 b 389 69 340 -42 389 7 b 278 181 389 132 340 181 b 246 176 267 181 256 179 b 250 208 249 186 250 197 b 246 240 250 219 249 231 b 278 236 256 238 267 236 b 389 347 340 236 389 285 b 278 458 389 410 340 458 b 246 454 267 458 256 457 b 250 486 249 464 250 475 b 246 518 250 497 249 508 b 278 514 256 515 267 514 b 389 625 340 514 389 563 z "},"Ê":{"ha":417,"x_min":0,"x_max":0,"o":"m 417 1014 b 385 1010 406 1014 394 1013 b 389 1042 388 1019 389 1031 b 278 1153 389 1104 340 1153 b 167 1042 215 1153 167 1104 b 171 1010 167 1031 168 1019 b 139 1014 161 1013 150 1014 b 28 903 76 1014 28 965 b 139 792 28 840 76 792 b 250 903 201 792 250 840 b 246 935 250 914 249 925 b 278 931 256 932 267 931 b 310 935 289 931 300 932 b 306 903 307 925 306 914 b 417 792 306 840 354 792 b 528 903 479 792 528 840 b 417 1014 528 965 479 1014 z m 389 625 b 278 736 389 688 340 736 b 208 713 251 736 228 728 b 139 736 189 728 165 736 b 28 625 76 736 28 688 b 51 556 28 599 36 575 b 28 486 36 536 28 513 b 51 417 28 460 36 436 b 28 347 36 397 28 374 b 51 278 28 321 36 297 b 28 208 36 258 28 235 b 51 139 28 182 36 158 b 28 69 36 119 28 96 b 139 -42 28 7 76 -42 b 208 -18 165 -42 189 -33 b 278 -42 228 -33 251 -42 b 389 69 340 -42 389 7 b 278 181 389 132 340 181 b 246 176 267 181 256 179 b 250 208 249 186 250 197 b 246 240 250 219 249 231 b 278 236 256 238 267 236 b 389 347 340 236 389 285 b 278 458 389 410 340 458 b 246 454 267 458 256 457 b 250 486 249 464 250 475 b 246 518 250 497 249 508 b 278 514 256 515 267 514 b 389 625 340 514 389 563 z "},"Ë":{"ha":417,"x_min":0,"x_max":0,"o":"m 139 792 b 250 903 201 792 250 840 b 139 1014 250 965 201 1014 b 28 903 76 1014 28 965 b 139 792 28 840 76 792 z m 417 1014 b 306 903 354 1014 306 965 b 417 792 306 840 354 792 b 528 903 479 792 528 840 b 417 1014 528 965 479 1014 z m 389 625 b 278 736 389 688 340 736 b 208 713 251 736 228 728 b 139 736 189 728 165 736 b 28 625 76 736 28 688 b 51 556 28 599 36 575 b 28 486 36 536 28 513 b 51 417 28 460 36 436 b 28 347 36 397 28 374 b 51 278 28 321 36 297 b 28 208 36 258 28 235 b 51 139 28 182 36 158 b 28 69 36 119 28 96 b 139 -42 28 7 76 -42 b 208 -18 165 -42 189 -33 b 278 -42 228 -33 251 -42 b 389 69 340 -42 389 7 b 278 181 389 132 340 181 b 246 176 267 181 256 179 b 250 208 249 186 250 197 b 246 240 250 219 249 231 b 278 236 256 238 267 236 b 389 347 340 236 389 285 b 278 458 389 410 340 458 b 246 454 267 458 256 457 b 250 486 249 464 250 475 b 246 518 250 497 249 508 b 278 514 256 515 267 514 b 389 625 340 514 389 563 z "},"Ė":{"ha":417,"x_min":0,"x_max":0,"o":"m 139 792 b 250 903 201 792 250 840 b 139 1014 250 965 201 1014 b 28 903 76 1014 28 965 b 139 792 28 840 76 792 z m 389 347 b 278 458 389 410 340 458 b 246 454 267 458 256 457 b 250 486 249 464 250 475 b 246 518 250 497 249 508 b 278 514 256 515 267 514 b 389 625 340 514 389 563 b 278 736 389 688 340 736 b 208 713 251 736 228 728 b 139 736 189 728 165 736 b 28 625 76 736 28 688 b 51 556 28 599 36 575 b 28 486 36 536 28 513 b 51 417 28 460 36 436 b 28 347 36 397 28 374 b 51 278 28 321 36 297 b 28 208 36 258 28 235 b 51 139 28 182 36 158 b 28 69 36 119 28 96 b 139 -42 28 7 76 -42 b 208 -18 165 -42 189 -33 b 278 -42 228 -33 251 -42 b 389 69 340 -42 389 7 b 278 181 389 132 340 181 b 246 176 267 181 256 179 b 250 208 249 186 250 197 b 246 240 250 219 249 231 b 278 236 256 238 267 236 b 389 347 340 236 389 285 z "},"È":{"ha":417,"x_min":0,"x_max":0,"o":"m 139 931 b 171 935 150 931 161 932 b 167 903 168 925 167 914 b 278 792 167 840 215 792 b 389 903 340 792 389 840 b 278 1014 389 965 340 1014 b 246 1010 267 1014 256 1013 b 250 1042 249 1019 250 1031 b 139 1153 250 1104 201 1153 b 28 1042 76 1153 28 1104 b 139 931 28 979 76 931 z m 389 625 b 278 736 389 688 340 736 b 208 713 251 736 228 728 b 139 736 189 728 165 736 b 28 625 76 736 28 688 b 51 556 28 599 36 575 b 28 486 36 536 28 513 b 51 417 28 460 36 436 b 28 347 36 397 28 374 b 51 278 28 321 36 297 b 28 208 36 258 28 235 b 51 139 28 182 36 158 b 28 69 36 119 28 96 b 139 -42 28 7 76 -42 b 208 -18 165 -42 189 -33 b 278 -42 228 -33 251 -42 b 389 69 340 -42 389 7 b 278 181 389 132 340 181 b 246 176 267 181 256 179 b 250 208 249 186 250 197 b 246 240 250 219 249 231 b 278 236 256 238 267 236 b 389 347 340 236 389 285 b 278 458 389 410 340 458 b 246 454 267 458 256 457 b 250 486 249 464 250 475 b 246 518 250 497 249 508 b 278 514 256 515 267 514 b 389 625 340 514 389 563 z "},"Ē":{"ha":417,"x_min":0,"x_max":0,"o":"m 417 1014 b 347 990 390 1014 367 1006 b 278 1014 328 1006 304 1014 b 208 990 251 1014 228 1006 b 139 1014 189 1006 165 1014 b 28 903 76 1014 28 965 b 139 792 28 840 76 792 b 208 815 165 792 189 800 b 278 792 228 800 251 792 b 347 815 304 792 328 800 b 417 792 367 800 390 792 b 528 903 479 792 528 840 b 417 1014 528 965 479 1014 z m 389 625 b 278 736 389 688 340 736 b 208 713 251 736 228 728 b 139 736 189 728 165 736 b 28 625 76 736 28 688 b 51 556 28 599 36 575 b 28 486 36 536 28 513 b 51 417 28 460 36 436 b 28 347 36 397 28 374 b 51 278 28 321 36 297 b 28 208 36 258 28 235 b 51 139 28 182 36 158 b 28 69 36 119 28 96 b 139 -42 28 7 76 -42 b 208 -18 165 -42 189 -33 b 278 -42 228 -33 251 -42 b 389 69 340 -42 389 7 b 278 181 389 132 340 181 b 246 176 267 181 256 179 b 250 208 249 186 250 197 b 246 240 250 219 249 231 b 278 236 256 238 267 236 b 389 347 340 236 389 285 b 278 458 389 410 340 458 b 246 454 267 458 256 457 b 250 486 249 464 250 475 b 246 518 250 497 249 508 b 278 514 256 515 267 514 b 389 625 340 514 389 563 z "},"Ę":{"ha":417,"x_min":0,"x_max":0,"o":"m 417 -97 b 385 -101 406 -97 394 -99 b 389 -69 388 -92 389 -81 b 365 0 389 -43 381 -19 b 389 69 381 19 389 43 b 278 181 389 132 340 181 b 246 176 267 181 256 179 b 250 208 249 186 250 197 b 246 240 250 219 249 231 b 278 236 256 238 267 236 b 389 347 340 236 389 285 b 278 458 389 410 340 458 b 246 454 267 458 256 457 b 250 486 249 464 250 475 b 246 518 250 497 249 508 b 278 514 256 515 267 514 b 389 625 340 514 389 563 b 278 736 389 688 340 736 b 208 713 251 736 228 728 b 139 736 189 728 165 736 b 28 625 76 736 28 688 b 51 556 28 599 36 575 b 28 486 36 536 28 513 b 51 417 28 460 36 436 b 28 347 36 397 28 374 b 51 278 28 321 36 297 b 28 208 36 258 28 235 b 51 139 28 182 36 158 b 28 69 36 119 28 96 b 139 -42 28 7 76 -42 b 171 -37 150 -42 161 -40 b 167 -69 168 -47 167 -58 b 190 -139 167 -96 175 -119 b 167 -208 175 -158 167 -182 b 278 -319 167 -271 215 -319 b 347 -296 304 -319 328 -311 b 417 -319 367 -311 390 -319 b 528 -208 479 -319 528 -271 b 417 -97 528 -146 479 -97 z "},"F":{"ha":417,"x_min":0,"x_max":0,"o":"m 278 458 b 246 454 267 458 256 457 b 250 486 249 464 250 475 b 246 518 250 497 249 508 b 278 514 256 515 267 514 b 389 625 340 514 389 563 b 278 736 389 688 340 736 b 208 713 251 736 228 728 b 139 736 189 728 165 736 b 28 625 76 736 28 688 b 51 556 28 599 36 575 b 28 486 36 536 28 513 b 51 417 28 460 36 436 b 28 347 36 397 28 374 b 51 278 28 321 36 297 b 28 208 36 258 28 235 b 51 139 28 182 36 158 b 28 69 36 119 28 96 b 139 -42 28 7 76 -42 b 250 69 201 -42 250 7 b 226 139 250 96 242 119 b 250 208 242 158 250 182 b 246 240 250 219 249 231 b 278 236 256 238 267 236 b 389 347 340 236 389 285 b 278 458 389 410 340 458 z "},"G":{"ha":556,"x_min":0,"x_max":0,"o":"m 417 458 b 306 347 354 458 306 410 b 329 278 306 321 314 297 b 306 208 314 258 306 235 b 310 176 306 197 307 186 b 278 181 300 179 289 181 b 246 176 267 181 256 179 b 250 208 249 186 250 197 b 226 278 250 235 242 258 b 250 347 242 297 250 321 b 226 417 250 374 242 397 b 250 486 242 436 250 460 b 246 518 250 497 249 508 b 278 514 256 515 267 514 b 347 538 304 514 328 522 b 417 514 367 522 390 514 b 528 625 479 514 528 563 b 417 736 528 688 479 736 b 347 713 390 736 367 728 b 278 736 328 728 304 736 b 167 625 215 736 167 688 b 171 593 167 614 168 603 b 139 597 161 596 150 597 b 28 486 76 597 28 549 b 51 417 28 460 36 436 b 28 347 36 397 28 374 b 51 278 28 321 36 297 b 28 208 36 258 28 235 b 139 97 28 146 76 97 b 171 101 150 97 161 99 b 167 69 168 92 167 81 b 278 -42 167 7 215 -42 b 347 -18 304 -42 328 -33 b 417 -42 367 -33 390 -42 b 528 69 479 -42 528 7 b 504 139 528 96 519 119 b 528 208 519 158 528 182 b 504 278 528 235 519 258 b 528 347 519 297 528 321 b 417 458 528 410 479 458 z "},"Ğ":{"ha":556,"x_min":0,"x_max":0,"o":"m 528 1042 b 417 1153 528 1104 479 1153 b 306 1042 354 1153 306 1104 b 310 1010 306 1031 307 1019 b 278 1014 300 1013 289 1014 b 246 1010 267 1014 256 1013 b 250 1042 249 1019 250 1031 b 139 1153 250 1104 201 1153 b 28 1042 76 1153 28 1104 b 51 972 28 1015 36 992 b 28 903 36 953 28 929 b 139 792 28 840 76 792 b 208 815 165 792 189 800 b 278 792 228 800 251 792 b 347 815 304 792 328 800 b 417 792 367 800 390 792 b 528 903 479 792 528 840 b 504 972 528 929 519 953 b 528 1042 519 992 528 1015 z m 347 538 b 417 514 367 522 390 514 b 528 625 479 514 528 563 b 417 736 528 688 479 736 b 347 713 390 736 367 728 b 278 736 328 728 304 736 b 167 625 215 736 167 688 b 171 593 167 614 168 603 b 139 597 161 596 150 597 b 28 486 76 597 28 549 b 51 417 28 460 36 436 b 28 347 36 397 28 374 b 51 278 28 321 36 297 b 28 208 36 258 28 235 b 139 97 28 146 76 97 b 171 101 150 97 161 99 b 167 69 168 92 167 81 b 278 -42 167 7 215 -42 b 347 -18 304 -42 328 -33 b 417 -42 367 -33 390 -42 b 528 69 479 -42 528 7 b 504 139 528 96 519 119 b 528 208 519 158 528 182 b 504 278 528 235 519 258 b 528 347 519 297 528 321 b 417 458 528 410 479 458 b 306 347 354 458 306 410 b 329 278 306 321 314 297 b 306 208 314 258 306 235 b 310 176 306 197 307 186 b 278 181 300 179 289 181 b 246 176 267 181 256 179 b 250 208 249 186 250 197 b 226 278 250 235 242 258 b 250 347 242 297 250 321 b 226 417 250 374 242 397 b 250 486 242 436 250 460 b 246 518 250 497 249 508 b 278 514 256 515 267 514 b 347 538 304 514 328 522 z "},"Ģ":{"ha":556,"x_min":0,"x_max":0,"o":"m 417 458 b 306 347 354 458 306 410 b 329 278 306 321 314 297 b 306 208 314 258 306 235 b 310 176 306 197 307 186 b 278 181 300 179 289 181 b 246 176 267 181 256 179 b 250 208 249 186 250 197 b 226 278 250 235 242 258 b 250 347 242 297 250 321 b 226 417 250 374 242 397 b 250 486 242 436 250 460 b 246 518 250 497 249 508 b 278 514 256 515 267 514 b 347 538 304 514 328 522 b 417 514 367 522 390 514 b 528 625 479 514 528 563 b 417 736 528 688 479 736 b 347 713 390 736 367 728 b 278 736 328 728 304 736 b 167 625 215 736 167 688 b 171 593 167 614 168 603 b 139 597 161 596 150 597 b 28 486 76 597 28 549 b 51 417 28 460 36 436 b 28 347 36 397 28 374 b 51 278 28 321 36 297 b 28 208 36 258 28 235 b 139 97 28 146 76 97 b 171 101 150 97 161 99 b 167 69 168 92 167 81 b 278 -42 167 7 215 -42 b 347 -18 304 -42 328 -33 b 417 -42 367 -33 390 -42 b 528 69 479 -42 528 7 b 504 139 528 96 519 119 b 528 208 519 158 528 182 b 504 278 528 235 519 258 b 528 347 519 297 528 321 b 417 458 528 410 479 458 z m 417 -97 b 347 -121 390 -97 367 -106 b 278 -97 328 -106 304 -97 b 167 -208 215 -97 167 -146 b 278 -319 167 -271 215 -319 b 310 -315 289 -319 300 -318 b 306 -347 307 -325 306 -336 b 310 -379 306 -358 307 -369 b 278 -375 300 -376 289 -375 b 167 -486 215 -375 167 -424 b 278 -597 167 -549 215 -597 b 389 -486 340 -597 389 -549 b 385 -454 389 -475 388 -464 b 417 -458 394 -457 406 -458 b 528 -347 479 -458 528 -410 b 504 -278 528 -321 519 -297 b 528 -208 519 -258 528 -235 b 417 -97 528 -146 479 -97 z "},"Ġ":{"ha":556,"x_min":0,"x_max":0,"o":"m 278 792 b 389 903 340 792 389 840 b 278 1014 389 965 340 1014 b 167 903 215 1014 167 965 b 278 792 167 840 215 792 z m 417 458 b 306 347 354 458 306 410 b 329 278 306 321 314 297 b 306 208 314 258 306 235 b 310 176 306 197 307 186 b 278 181 300 179 289 181 b 246 176 267 181 256 179 b 250 208 249 186 250 197 b 226 278 250 235 242 258 b 250 347 242 297 250 321 b 226 417 250 374 242 397 b 250 486 242 436 250 460 b 246 518 250 497 249 508 b 278 514 256 515 267 514 b 347 538 304 514 328 522 b 417 514 367 522 390 514 b 528 625 479 514 528 563 b 417 736 528 688 479 736 b 347 713 390 736 367 728 b 278 736 328 728 304 736 b 167 625 215 736 167 688 b 171 593 167 614 168 603 b 139 597 161 596 150 597 b 28 486 76 597 28 549 b 51 417 28 460 36 436 b 28 347 36 397 28 374 b 51 278 28 321 36 297 b 28 208 36 258 28 235 b 139 97 28 146 76 97 b 171 101 150 97 161 99 b 167 69 168 92 167 81 b 278 -42 167 7 215 -42 b 347 -18 304 -42 328 -33 b 417 -42 367 -33 390 -42 b 528 69 479 -42 528 7 b 504 139 528 96 519 119 b 528 208 519 158 528 182 b 504 278 528 235 519 258 b 528 347 519 297 528 321 b 417 458 528 410 479 458 z "},"H":{"ha":556,"x_min":0,"x_max":0,"o":"m 504 556 b 528 625 519 575 528 599 b 417 736 528 688 479 736 b 306 625 354 736 306 688 b 329 556 306 599 314 575 b 306 486 314 536 306 513 b 310 454 306 475 307 464 b 278 458 300 457 289 458 b 246 454 267 458 256 457 b 250 486 249 464 250 475 b 226 556 250 513 242 536 b 250 625 242 575 250 599 b 139 736 250 688 201 736 b 28 625 76 736 28 688 b 51 556 28 599 36 575 b 28 486 36 536 28 513 b 51 417 28 460 36 436 b 28 347 36 397 28 374 b 51 278 28 321 36 297 b 28 208 36 258 28 235 b 51 139 28 182 36 158 b 28 69 36 119 28 96 b 139 -42 28 7 76 -42 b 250 69 201 -42 250 7 b 226 139 250 96 242 119 b 250 208 242 158 250 182 b 246 240 250 219 249 231 b 278 236 256 238 267 236 b 310 240 289 236 300 238 b 306 208 307 231 306 219 b 329 139 306 182 314 158 b 306 69 314 119 306 96 b 417 -42 306 7 354 -42 b 528 69 479 -42 528 7 b 504 139 528 96 519 119 b 528 208 519 158 528 182 b 504 278 528 235 519 258 b 528 347 519 297 528 321 b 504 417 528 374 519 397 b 528 486 519 436 528 460 b 504 556 528 513 519 536 z "},"Ħ":{"ha":972,"x_min":0,"x_max":0,"o":"m 833 597 b 801 593 822 597 811 596 b 806 625 804 603 806 614 b 694 736 806 688 757 736 b 583 625 632 736 583 688 b 588 593 583 614 585 603 b 556 597 578 596 567 597 b 486 574 529 597 506 589 b 417 597 467 589 443 597 b 385 593 406 597 394 596 b 389 625 388 603 389 614 b 278 736 389 688 340 736 b 167 625 215 736 167 688 b 171 593 167 614 168 603 b 139 597 161 596 150 597 b 28 486 76 597 28 549 b 139 375 28 424 76 375 b 171 379 150 375 161 376 b 167 347 168 369 167 358 b 190 278 167 321 175 297 b 167 208 175 258 167 235 b 190 139 167 182 175 158 b 167 69 175 119 167 96 b 278 -42 167 7 215 -42 b 389 69 340 -42 389 7 b 385 101 389 81 388 92 b 417 97 394 99 406 97 b 486 121 443 97 467 106 b 556 97 506 106 529 97 b 588 101 567 97 578 99 b 583 69 585 92 583 81 b 694 -42 583 7 632 -42 b 806 69 757 -42 806 7 b 782 139 806 96 797 119 b 806 208 797 158 806 182 b 782 278 806 235 797 258 b 806 347 797 297 806 321 b 801 379 806 358 804 369 b 833 375 811 376 822 375 b 944 486 896 375 944 424 b 833 597 944 549 896 597 z m 486 296 b 417 319 467 311 443 319 b 385 315 406 319 394 318 b 389 347 388 325 389 336 b 385 379 389 358 388 369 b 417 375 394 376 406 375 b 486 399 443 375 467 383 b 556 375 506 383 529 375 b 588 379 567 375 578 376 b 583 347 585 369 583 358 b 588 315 583 336 585 325 b 556 319 578 318 567 319 b 486 296 529 319 506 311 z "},"I":{"ha":278,"x_min":0,"x_max":0,"o":"m 226 556 b 250 625 242 575 250 599 b 139 736 250 688 201 736 b 28 625 76 736 28 688 b 51 556 28 599 36 575 b 28 486 36 536 28 513 b 51 417 28 460 36 436 b 28 347 36 397 28 374 b 51 278 28 321 36 297 b 28 208 36 258 28 235 b 51 139 28 182 36 158 b 28 69 36 119 28 96 b 139 -42 28 7 76 -42 b 250 69 201 -42 250 7 b 226 139 250 96 242 119 b 250 208 242 158 250 182 b 226 278 250 235 242 258 b 250 347 242 297 250 321 b 226 417 250 374 242 397 b 250 486 242 436 250 460 b 226 556 250 513 242 536 z "},"Í":{"ha":278,"x_min":0,"x_max":0,"o":"m 278 1153 b 167 1042 215 1153 167 1104 b 171 1010 167 1031 168 1019 b 139 1014 161 1013 150 1014 b 28 903 76 1014 28 965 b 139 792 28 840 76 792 b 250 903 201 792 250 840 b 246 935 250 914 249 925 b 278 931 256 932 267 931 b 389 1042 340 931 389 979 b 278 1153 389 1104 340 1153 z m 139 736 b 28 625 76 736 28 688 b 51 556 28 599 36 575 b 28 486 36 536 28 513 b 51 417 28 460 36 436 b 28 347 36 397 28 374 b 51 278 28 321 36 297 b 28 208 36 258 28 235 b 51 139 28 182 36 158 b 28 69 36 119 28 96 b 139 -42 28 7 76 -42 b 250 69 201 -42 250 7 b 226 139 250 96 242 119 b 250 208 242 158 250 182 b 226 278 250 235 242 258 b 250 347 242 297 250 321 b 226 417 250 374 242 397 b 250 486 242 436 250 460 b 226 556 250 513 242 536 b 250 625 242 575 250 599 b 139 736 250 688 201 736 z "},"Î":{"ha":278,"x_min":0,"x_max":0,"o":"m 278 1014 b 246 1010 267 1014 256 1013 b 250 1042 249 1019 250 1031 b 139 1153 250 1104 201 1153 b 28 1042 76 1153 28 1104 b 32 1010 28 1031 29 1019 b 0 1014 22 1013 11 1014 b -111 903 -62 1014 -111 965 b 0 792 -111 840 -62 792 b 111 903 63 792 111 840 b 107 935 111 914 110 925 b 139 931 117 932 128 931 b 171 935 150 931 161 932 b 167 903 168 925 167 914 b 278 792 167 840 215 792 b 389 903 340 792 389 840 b 278 1014 389 965 340 1014 z m 139 736 b 28 625 76 736 28 688 b 51 556 28 599 36 575 b 28 486 36 536 28 513 b 51 417 28 460 36 436 b 28 347 36 397 28 374 b 51 278 28 321 36 297 b 28 208 36 258 28 235 b 51 139 28 182 36 158 b 28 69 36 119 28 96 b 139 -42 28 7 76 -42 b 250 69 201 -42 250 7 b 226 139 250 96 242 119 b 250 208 242 158 250 182 b 226 278 250 235 242 258 b 250 347 242 297 250 321 b 226 417 250 374 242 397 b 250 486 242 436 250 460 b 226 556 250 513 242 536 b 250 625 242 575 250 599 b 139 736 250 688 201 736 z "},"Ï":{"ha":278,"x_min":0,"x_max":0,"o":"m 111 903 b 0 1014 111 965 63 1014 b -111 903 -62 1014 -111 965 b 0 792 -111 840 -62 792 b 111 903 63 792 111 840 z m 278 1014 b 167 903 215 1014 167 965 b 278 792 167 840 215 792 b 389 903 340 792 389 840 b 278 1014 389 965 340 1014 z m 139 736 b 28 625 76 736 28 688 b 51 556 28 599 36 575 b 28 486 36 536 28 513 b 51 417 28 460 36 436 b 28 347 36 397 28 374 b 51 278 28 321 36 297 b 28 208 36 258 28 235 b 51 139 28 182 36 158 b 28 69 36 119 28 96 b 139 -42 28 7 76 -42 b 250 69 201 -42 250 7 b 226 139 250 96 242 119 b 250 208 242 158 250 182 b 226 278 250 235 242 258 b 250 347 242 297 250 321 b 226 417 250 374 242 397 b 250 486 242 436 250 460 b 226 556 250 513 242 536 b 250 625 242 575 250 599 b 139 736 250 688 201 736 z "},"İ":{"ha":278,"x_min":0,"x_max":0,"o":"m 139 792 b 250 903 201 792 250 840 b 139 1014 250 965 201 1014 b 28 903 76 1014 28 965 b 139 792 28 840 76 792 z m 139 736 b 28 625 76 736 28 688 b 51 556 28 599 36 575 b 28 486 36 536 28 513 b 51 417 28 460 36 436 b 28 347 36 397 28 374 b 51 278 28 321 36 297 b 28 208 36 258 28 235 b 51 139 28 182 36 158 b 28 69 36 119 28 96 b 139 -42 28 7 76 -42 b 250 69 201 -42 250 7 b 226 139 250 96 242 119 b 250 208 242 158 250 182 b 226 278 250 235 242 258 b 250 347 242 297 250 321 b 226 417 250 374 242 397 b 250 486 242 436 250 460 b 226 556 250 513 242 536 b 250 625 242 575 250 599 b 139 736 250 688 201 736 z "},"Ì":{"ha":278,"x_min":0,"x_max":0,"o":"m 28 903 b 139 792 28 840 76 792 b 250 903 201 792 250 840 b 139 1014 250 965 201 1014 b 107 1010 128 1014 117 1013 b 111 1042 110 1019 111 1031 b 0 1153 111 1104 63 1153 b -111 1042 -62 1153 -111 1104 b 0 931 -111 979 -62 931 b 32 935 11 931 22 932 b 28 903 29 925 28 914 z m 139 736 b 28 625 76 736 28 688 b 51 556 28 599 36 575 b 28 486 36 536 28 513 b 51 417 28 460 36 436 b 28 347 36 397 28 374 b 51 278 28 321 36 297 b 28 208 36 258 28 235 b 51 139 28 182 36 158 b 28 69 36 119 28 96 b 139 -42 28 7 76 -42 b 250 69 201 -42 250 7 b 226 139 250 96 242 119 b 250 208 242 158 250 182 b 226 278 250 235 242 258 b 250 347 242 297 250 321 b 226 417 250 374 242 397 b 250 486 242 436 250 460 b 226 556 250 513 242 536 b 250 625 242 575 250 599 b 139 736 250 688 201 736 z "},"Ī":{"ha":278,"x_min":0,"x_max":0,"o":"m 278 1014 b 208 990 251 1014 228 1006 b 139 1014 189 1006 165 1014 b 69 990 113 1014 89 1006 b 0 1014 50 1006 26 1014 b -111 903 -62 1014 -111 965 b 0 792 -111 840 -62 792 b 69 815 26 792 50 800 b 139 792 89 800 113 792 b 208 815 165 792 189 800 b 278 792 228 800 251 792 b 389 903 340 792 389 840 b 278 1014 389 965 340 1014 z m 139 736 b 28 625 76 736 28 688 b 51 556 28 599 36 575 b 28 486 36 536 28 513 b 51 417 28 460 36 436 b 28 347 36 397 28 374 b 51 278 28 321 36 297 b 28 208 36 258 28 235 b 51 139 28 182 36 158 b 28 69 36 119 28 96 b 139 -42 28 7 76 -42 b 250 69 201 -42 250 7 b 226 139 250 96 242 119 b 250 208 242 158 250 182 b 226 278 250 235 242 258 b 250 347 242 297 250 321 b 226 417 250 374 242 397 b 250 486 242 436 250 460 b 226 556 250 513 242 536 b 250 625 242 575 250 599 b 139 736 250 688 201 736 z "},"Į":{"ha":278,"x_min":0,"x_max":0,"o":"m 226 556 b 250 625 242 575 250 599 b 139 736 250 688 201 736 b 28 625 76 736 28 688 b 51 556 28 599 36 575 b 28 486 36 536 28 513 b 51 417 28 460 36 436 b 28 347 36 397 28 374 b 51 278 28 321 36 297 b 28 208 36 258 28 235 b 51 139 28 182 36 158 b 28 69 36 119 28 96 b 32 38 28 58 29 47 b 0 42 22 40 11 42 b -111 -69 -62 42 -111 -7 b -87 -139 -111 -96 -103 -119 b -111 -208 -103 -158 -111 -182 b 0 -319 -111 -271 -62 -319 b 69 -296 26 -319 50 -311 b 139 -319 89 -311 113 -319 b 250 -208 201 -319 250 -271 b 139 -97 250 -146 201 -97 b 107 -101 128 -97 117 -99 b 111 -69 110 -92 111 -81 b 107 -37 111 -58 110 -47 b 139 -42 117 -40 128 -42 b 250 69 201 -42 250 7 b 226 139 250 96 242 119 b 250 208 242 158 250 182 b 226 278 250 235 242 258 b 250 347 242 297 250 321 b 226 417 250 374 242 397 b 250 486 242 436 250 460 b 226 556 250 513 242 536 z "},"J":{"ha":556,"x_min":0,"x_max":0,"o":"m 504 556 b 528 625 519 575 528 599 b 417 736 528 688 479 736 b 306 625 354 736 306 688 b 329 556 306 599 314 575 b 306 486 314 536 306 513 b 329 417 306 460 314 436 b 306 347 314 397 306 374 b 329 278 306 321 314 297 b 306 208 314 258 306 235 b 310 176 306 197 307 186 b 278 181 300 179 289 181 b 246 176 267 181 256 179 b 250 208 249 186 250 197 b 226 278 250 235 242 258 b 250 347 242 297 250 321 b 139 458 250 410 201 458 b 28 347 76 458 28 410 b 51 278 28 321 36 297 b 28 208 36 258 28 235 b 139 97 28 146 76 97 b 171 101 150 97 161 99 b 167 69 168 92 167 81 b 278 -42 167 7 215 -42 b 389 69 340 -42 389 7 b 385 101 389 81 388 92 b 417 97 394 99 406 97 b 528 208 479 97 528 146 b 504 278 528 235 519 258 b 528 347 519 297 528 321 b 504 417 528 374 519 397 b 528 486 519 436 528 460 b 504 556 528 513 519 536 z "},"K":{"ha":556,"x_min":0,"x_max":0,"o":"m 417 181 b 385 176 406 181 394 179 b 389 208 388 186 389 197 b 278 319 389 271 340 319 b 246 315 267 319 256 318 b 250 347 249 325 250 336 b 246 379 250 358 249 369 b 278 375 256 376 267 375 b 389 486 340 375 389 424 b 385 518 389 497 388 508 b 417 514 394 515 406 514 b 528 625 479 514 528 563 b 417 736 528 688 479 736 b 306 625 354 736 306 688 b 310 593 306 614 307 603 b 278 597 300 596 289 597 b 246 593 267 597 256 596 b 250 625 249 603 250 614 b 139 736 250 688 201 736 b 28 625 76 736 28 688 b 51 556 28 599 36 575 b 28 486 36 536 28 513 b 51 417 28 460 36 436 b 28 347 36 397 28 374 b 51 278 28 321 36 297 b 28 208 36 258 28 235 b 51 139 28 182 36 158 b 28 69 36 119 28 96 b 139 -42 28 7 76 -42 b 250 69 201 -42 250 7 b 246 101 250 81 249 92 b 278 97 256 99 267 97 b 310 101 289 97 300 99 b 306 69 307 92 306 81 b 417 -42 306 7 354 -42 b 528 69 479 -42 528 7 b 417 181 528 132 479 181 z "},"Ķ":{"ha":556,"x_min":0,"x_max":0,"o":"m 417 181 b 385 176 406 181 394 179 b 389 208 388 186 389 197 b 278 319 389 271 340 319 b 246 315 267 319 256 318 b 250 347 249 325 250 336 b 246 379 250 358 249 369 b 278 375 256 376 267 375 b 389 486 340 375 389 424 b 385 518 389 497 388 508 b 417 514 394 515 406 514 b 528 625 479 514 528 563 b 417 736 528 688 479 736 b 306 625 354 736 306 688 b 310 593 306 614 307 603 b 278 597 300 596 289 597 b 246 593 267 597 256 596 b 250 625 249 603 250 614 b 139 736 250 688 201 736 b 28 625 76 736 28 688 b 51 556 28 599 36 575 b 28 486 36 536 28 513 b 51 417 28 460 36 436 b 28 347 36 397 28 374 b 51 278 28 321 36 297 b 28 208 36 258 28 235 b 51 139 28 182 36 158 b 28 69 36 119 28 96 b 139 -42 28 7 76 -42 b 250 69 201 -42 250 7 b 246 101 250 81 249 92 b 278 97 256 99 267 97 b 310 101 289 97 300 99 b 306 69 307 92 306 81 b 417 -42 306 7 354 -42 b 528 69 479 -42 528 7 b 417 181 528 132 479 181 z m 278 -97 b 208 -121 251 -97 228 -106 b 139 -97 189 -106 165 -97 b 28 -208 76 -97 28 -146 b 139 -319 28 -271 76 -319 b 171 -315 150 -319 161 -318 b 167 -347 168 -325 167 -336 b 171 -379 167 -358 168 -369 b 139 -375 161 -376 150 -375 b 28 -486 76 -375 28 -424 b 139 -597 28 -549 76 -597 b 250 -486 201 -597 250 -549 b 246 -454 250 -475 249 -464 b 278 -458 256 -457 267 -458 b 389 -347 340 -458 389 -410 b 365 -278 389 -321 381 -297 b 389 -208 381 -258 389 -235 b 278 -97 389 -146 340 -97 z "},"L":{"ha":417,"x_min":0,"x_max":0,"o":"m 278 181 b 246 176 267 181 256 179 b 250 208 249 186 250 197 b 226 278 250 235 242 258 b 250 347 242 297 250 321 b 226 417 250 374 242 397 b 250 486 242 436 250 460 b 226 556 250 513 242 536 b 250 625 242 575 250 599 b 139 736 250 688 201 736 b 28 625 76 736 28 688 b 51 556 28 599 36 575 b 28 486 36 536 28 513 b 51 417 28 460 36 436 b 28 347 36 397 28 374 b 51 278 28 321 36 297 b 28 208 36 258 28 235 b 51 139 28 182 36 158 b 28 69 36 119 28 96 b 139 -42 28 7 76 -42 b 208 -18 165 -42 189 -33 b 278 -42 228 -33 251 -42 b 389 69 340 -42 389 7 b 278 181 389 132 340 181 z "},"Ĺ":{"ha":417,"x_min":0,"x_max":0,"o":"m 139 792 b 250 903 201 792 250 840 b 246 935 250 914 249 925 b 278 931 256 932 267 931 b 389 1042 340 931 389 979 b 278 1153 389 1104 340 1153 b 167 1042 215 1153 167 1104 b 171 1010 167 1031 168 1019 b 139 1014 161 1013 150 1014 b 28 903 76 1014 28 965 b 139 792 28 840 76 792 z m 278 181 b 246 176 267 181 256 179 b 250 208 249 186 250 197 b 226 278 250 235 242 258 b 250 347 242 297 250 321 b 226 417 250 374 242 397 b 250 486 242 436 250 460 b 226 556 250 513 242 536 b 250 625 242 575 250 599 b 139 736 250 688 201 736 b 28 625 76 736 28 688 b 51 556 28 599 36 575 b 28 486 36 536 28 513 b 51 417 28 460 36 436 b 28 347 36 397 28 374 b 51 278 28 321 36 297 b 28 208 36 258 28 235 b 51 139 28 182 36 158 b 28 69 36 119 28 96 b 139 -42 28 7 76 -42 b 208 -18 165 -42 189 -33 b 278 -42 228 -33 251 -42 b 389 69 340 -42 389 7 b 278 181 389 132 340 181 z "},"Ľ":{"ha":694,"x_min":0,"x_max":0,"o":"m 278 181 b 246 176 267 181 256 179 b 250 208 249 186 250 197 b 226 278 250 235 242 258 b 250 347 242 297 250 321 b 226 417 250 374 242 397 b 250 486 242 436 250 460 b 226 556 250 513 242 536 b 250 625 242 575 250 599 b 139 736 250 688 201 736 b 28 625 76 736 28 688 b 51 556 28 599 36 575 b 28 486 36 536 28 513 b 51 417 28 460 36 436 b 28 347 36 397 28 374 b 51 278 28 321 36 297 b 28 208 36 258 28 235 b 51 139 28 182 36 158 b 28 69 36 119 28 96 b 139 -42 28 7 76 -42 b 208 -18 165 -42 189 -33 b 278 -42 228 -33 251 -42 b 389 69 340 -42 389 7 b 278 181 389 132 340 181 z m 667 625 b 556 736 667 688 618 736 b 486 713 529 736 506 728 b 417 736 467 728 443 736 b 306 625 354 736 306 688 b 417 514 306 563 354 514 b 449 518 428 514 439 515 b 444 486 446 508 444 497 b 449 454 444 475 446 464 b 417 458 439 457 428 458 b 306 347 354 458 306 410 b 417 236 306 285 354 236 b 528 347 479 236 528 285 b 524 379 528 358 526 369 b 556 375 533 376 544 375 b 667 486 618 375 667 424 b 643 556 667 513 658 536 b 667 625 658 575 667 599 z "},"Ļ":{"ha":417,"x_min":0,"x_max":0,"o":"m 139 -42 b 208 -18 165 -42 189 -33 b 278 -42 228 -33 251 -42 b 389 69 340 -42 389 7 b 278 181 389 132 340 181 b 246 176 267 181 256 179 b 250 208 249 186 250 197 b 226 278 250 235 242 258 b 250 347 242 297 250 321 b 226 417 250 374 242 397 b 250 486 242 436 250 460 b 226 556 250 513 242 536 b 250 625 242 575 250 599 b 139 736 250 688 201 736 b 28 625 76 736 28 688 b 51 556 28 599 36 575 b 28 486 36 536 28 513 b 51 417 28 460 36 436 b 28 347 36 397 28 374 b 51 278 28 321 36 297 b 28 208 36 258 28 235 b 51 139 28 182 36 158 b 28 69 36 119 28 96 b 139 -42 28 7 76 -42 z m 278 -97 b 208 -121 251 -97 228 -106 b 139 -97 189 -106 165 -97 b 28 -208 76 -97 28 -146 b 139 -319 28 -271 76 -319 b 171 -315 150 -319 161 -318 b 167 -347 168 -325 167 -336 b 171 -379 167 -358 168 -369 b 139 -375 161 -376 150 -375 b 28 -486 76 -375 28 -424 b 139 -597 28 -549 76 -597 b 250 -486 201 -597 250 -549 b 246 -454 250 -475 249 -464 b 278 -458 256 -457 267 -458 b 389 -347 340 -458 389 -410 b 365 -278 389 -321 381 -297 b 389 -208 381 -258 389 -235 b 278 -97 389 -146 340 -97 z "},"Ł":{"ha":556,"x_min":0,"x_max":0,"o":"m 417 181 b 385 176 406 181 394 179 b 389 208 388 186 389 197 b 365 278 389 235 381 258 b 389 347 381 297 389 321 b 385 379 389 358 388 369 b 417 375 394 376 406 375 b 528 486 479 375 528 424 b 417 597 528 549 479 597 b 385 593 406 597 394 596 b 389 625 388 603 389 614 b 278 736 389 688 340 736 b 167 625 215 736 167 688 b 190 556 167 599 175 575 b 167 486 175 536 167 513 b 171 454 167 475 168 464 b 139 458 161 457 150 458 b 28 347 76 458 28 410 b 139 236 28 285 76 236 b 171 240 150 236 161 238 b 167 208 168 231 167 219 b 190 139 167 182 175 158 b 167 69 175 119 167 96 b 278 -42 167 7 215 -42 b 347 -18 304 -42 328 -33 b 417 -42 367 -33 390 -42 b 528 69 479 -42 528 7 b 417 181 528 132 479 181 z "},"M":{"ha":833,"x_min":0,"x_max":0,"o":"m 782 556 b 806 625 797 575 806 599 b 694 736 806 688 757 736 b 583 625 632 736 583 688 b 588 593 583 614 585 603 b 556 597 578 596 567 597 b 444 486 493 597 444 549 b 449 454 444 475 446 464 b 417 458 439 457 428 458 b 385 454 406 458 394 457 b 389 486 388 464 389 475 b 278 597 389 549 340 597 b 246 593 267 597 256 596 b 250 625 249 603 250 614 b 139 736 250 688 201 736 b 28 625 76 736 28 688 b 51 556 28 599 36 575 b 28 486 36 536 28 513 b 51 417 28 460 36 436 b 28 347 36 397 28 374 b 51 278 28 321 36 297 b 28 208 36 258 28 235 b 51 139 28 182 36 158 b 28 69 36 119 28 96 b 139 -42 28 7 76 -42 b 250 69 201 -42 250 7 b 226 139 250 96 242 119 b 250 208 242 158 250 182 b 226 278 250 235 242 258 b 250 347 242 297 250 321 b 246 379 250 358 249 369 b 278 375 256 376 267 375 b 310 379 289 375 300 376 b 306 347 307 369 306 358 b 417 236 306 285 354 236 b 528 347 479 236 528 285 b 524 379 528 358 526 369 b 556 375 533 376 544 375 b 588 379 567 375 578 376 b 583 347 585 369 583 358 b 607 278 583 321 592 297 b 583 208 592 258 583 235 b 607 139 583 182 592 158 b 583 69 592 119 583 96 b 694 -42 583 7 632 -42 b 806 69 757 -42 806 7 b 782 139 806 96 797 119 b 806 208 797 158 806 182 b 782 278 806 235 797 258 b 806 347 797 297 806 321 b 782 417 806 374 797 397 b 806 486 797 436 806 460 b 782 556 806 513 797 536 z "},"N":{"ha":556,"x_min":0,"x_max":0,"o":"m 504 417 b 528 486 519 436 528 460 b 417 597 528 549 479 597 b 385 593 406 597 394 596 b 389 625 388 603 389 614 b 278 736 389 688 340 736 b 208 713 251 736 228 728 b 139 736 189 728 165 736 b 28 625 76 736 28 688 b 51 556 28 599 36 575 b 28 486 36 536 28 513 b 51 417 28 460 36 436 b 28 347 36 397 28 374 b 51 278 28 321 36 297 b 28 208 36 258 28 235 b 51 139 28 182 36 158 b 28 69 36 119 28 96 b 139 -42 28 7 76 -42 b 250 69 201 -42 250 7 b 226 139 250 96 242 119 b 250 208 242 158 250 182 b 226 278 250 235 242 258 b 250 347 242 297 250 321 b 226 417 250 374 242 397 b 250 486 242 436 250 460 b 246 518 250 497 249 508 b 278 514 256 515 267 514 b 310 518 289 514 300 515 b 306 486 307 508 306 497 b 329 417 306 460 314 436 b 306 347 314 397 306 374 b 329 278 306 321 314 297 b 306 208 314 258 306 235 b 329 139 306 182 314 158 b 306 69 314 119 306 96 b 417 -42 306 7 354 -42 b 528 69 479 -42 528 7 b 504 139 528 96 519 119 b 528 208 519 158 528 182 b 504 278 528 235 519 258 b 528 347 519 297 528 321 b 504 417 528 374 519 397 z "},"Ń":{"ha":556,"x_min":0,"x_max":0,"o":"m 278 792 b 389 903 340 792 389 840 b 385 935 389 914 388 925 b 417 931 394 932 406 931 b 528 1042 479 931 528 979 b 417 1153 528 1104 479 1153 b 306 1042 354 1153 306 1104 b 310 1010 306 1031 307 1019 b 278 1014 300 1013 289 1014 b 167 903 215 1014 167 965 b 278 792 167 840 215 792 z m 417 597 b 385 593 406 597 394 596 b 389 625 388 603 389 614 b 278 736 389 688 340 736 b 208 713 251 736 228 728 b 139 736 189 728 165 736 b 28 625 76 736 28 688 b 51 556 28 599 36 575 b 28 486 36 536 28 513 b 51 417 28 460 36 436 b 28 347 36 397 28 374 b 51 278 28 321 36 297 b 28 208 36 258 28 235 b 51 139 28 182 36 158 b 28 69 36 119 28 96 b 139 -42 28 7 76 -42 b 250 69 201 -42 250 7 b 226 139 250 96 242 119 b 250 208 242 158 250 182 b 226 278 250 235 242 258 b 250 347 242 297 250 321 b 226 417 250 374 242 397 b 250 486 242 436 250 460 b 246 518 250 497 249 508 b 278 514 256 515 267 514 b 310 518 289 514 300 515 b 306 486 307 508 306 497 b 329 417 306 460 314 436 b 306 347 314 397 306 374 b 329 278 306 321 314 297 b 306 208 314 258 306 235 b 329 139 306 182 314 158 b 306 69 314 119 306 96 b 417 -42 306 7 354 -42 b 528 69 479 -42 528 7 b 504 139 528 96 519 119 b 528 208 519 158 528 182 b 504 278 528 235 519 258 b 528 347 519 297 528 321 b 504 417 528 374 519 397 b 528 486 519 436 528 460 b 417 597 528 549 479 597 z "},"Ň":{"ha":556,"x_min":0,"x_max":0,"o":"m 139 931 b 171 935 150 931 161 932 b 167 903 168 925 167 914 b 278 792 167 840 215 792 b 389 903 340 792 389 840 b 385 935 389 914 388 925 b 417 931 394 932 406 931 b 528 1042 479 931 528 979 b 417 1153 528 1104 479 1153 b 306 1042 354 1153 306 1104 b 310 1010 306 1031 307 1019 b 278 1014 300 1013 289 1014 b 246 1010 267 1014 256 1013 b 250 1042 249 1019 250 1031 b 139 1153 250 1104 201 1153 b 28 1042 76 1153 28 1104 b 139 931 28 979 76 931 z m 417 597 b 385 593 406 597 394 596 b 389 625 388 603 389 614 b 278 736 389 688 340 736 b 208 713 251 736 228 728 b 139 736 189 728 165 736 b 28 625 76 736 28 688 b 51 556 28 599 36 575 b 28 486 36 536 28 513 b 51 417 28 460 36 436 b 28 347 36 397 28 374 b 51 278 28 321 36 297 b 28 208 36 258 28 235 b 51 139 28 182 36 158 b 28 69 36 119 28 96 b 139 -42 28 7 76 -42 b 250 69 201 -42 250 7 b 226 139 250 96 242 119 b 250 208 242 158 250 182 b 226 278 250 235 242 258 b 250 347 242 297 250 321 b 226 417 250 374 242 397 b 250 486 242 436 250 460 b 246 518 250 497 249 508 b 278 514 256 515 267 514 b 310 518 289 514 300 515 b 306 486 307 508 306 497 b 329 417 306 460 314 436 b 306 347 314 397 306 374 b 329 278 306 321 314 297 b 306 208 314 258 306 235 b 329 139 306 182 314 158 b 306 69 314 119 306 96 b 417 -42 306 7 354 -42 b 528 69 479 -42 528 7 b 504 139 528 96 519 119 b 528 208 519 158 528 182 b 504 278 528 235 519 258 b 528 347 519 297 528 321 b 504 417 528 374 519 397 b 528 486 519 436 528 460 b 417 597 528 549 479 597 z "},"Ņ":{"ha":556,"x_min":0,"x_max":0,"o":"m 504 417 b 528 486 519 436 528 460 b 417 597 528 549 479 597 b 385 593 406 597 394 596 b 389 625 388 603 389 614 b 278 736 389 688 340 736 b 208 713 251 736 228 728 b 139 736 189 728 165 736 b 28 625 76 736 28 688 b 51 556 28 599 36 575 b 28 486 36 536 28 513 b 51 417 28 460 36 436 b 28 347 36 397 28 374 b 51 278 28 321 36 297 b 28 208 36 258 28 235 b 51 139 28 182 36 158 b 28 69 36 119 28 96 b 139 -42 28 7 76 -42 b 250 69 201 -42 250 7 b 226 139 250 96 242 119 b 250 208 242 158 250 182 b 226 278 250 235 242 258 b 250 347 242 297 250 321 b 226 417 250 374 242 397 b 250 486 242 436 250 460 b 246 518 250 497 249 508 b 278 514 256 515 267 514 b 310 518 289 514 300 515 b 306 486 307 508 306 497 b 329 417 306 460 314 436 b 306 347 314 397 306 374 b 329 278 306 321 314 297 b 306 208 314 258 306 235 b 329 139 306 182 314 158 b 306 69 314 119 306 96 b 417 -42 306 7 354 -42 b 528 69 479 -42 528 7 b 504 139 528 96 519 119 b 528 208 519 158 528 182 b 504 278 528 235 519 258 b 528 347 519 297 528 321 b 504 417 528 374 519 397 z m 278 -97 b 208 -121 251 -97 228 -106 b 139 -97 189 -106 165 -97 b 28 -208 76 -97 28 -146 b 139 -319 28 -271 76 -319 b 171 -315 150 -319 161 -318 b 167 -347 168 -325 167 -336 b 171 -379 167 -358 168 -369 b 139 -375 161 -376 150 -375 b 28 -486 76 -375 28 -424 b 139 -597 28 -549 76 -597 b 250 -486 201 -597 250 -549 b 246 -454 250 -475 249 -464 b 278 -458 256 -457 267 -458 b 389 -347 340 -458 389 -410 b 365 -278 389 -321 381 -297 b 389 -208 381 -258 389 -235 b 278 -97 389 -146 340 -97 z "},"Ŋ":{"ha":556,"x_min":0,"x_max":0,"o":"m 504 417 b 528 486 519 436 528 460 b 417 597 528 549 479 597 b 385 593 406 597 394 596 b 389 625 388 603 389 614 b 278 736 389 688 340 736 b 208 713 251 736 228 728 b 139 736 189 728 165 736 b 28 625 76 736 28 688 b 51 556 28 599 36 575 b 28 486 36 536 28 513 b 51 417 28 460 36 436 b 28 347 36 397 28 374 b 51 278 28 321 36 297 b 28 208 36 258 28 235 b 51 139 28 182 36 158 b 28 69 36 119 28 96 b 139 -42 28 7 76 -42 b 250 69 201 -42 250 7 b 226 139 250 96 242 119 b 250 208 242 158 250 182 b 226 278 250 235 242 258 b 250 347 242 297 250 321 b 226 417 250 374 242 397 b 250 486 242 436 250 460 b 246 518 250 497 249 508 b 278 514 256 515 267 514 b 310 518 289 514 300 515 b 306 486 307 508 306 497 b 329 417 306 460 314 436 b 306 347 314 397 306 374 b 329 278 306 321 314 297 b 306 208 314 258 306 235 b 329 139 306 182 314 158 b 306 69 314 119 306 96 b 329 0 306 43 314 19 b 306 -69 314 -19 306 -43 b 310 -101 306 -81 307 -92 b 278 -97 300 -99 289 -97 b 167 -208 215 -97 167 -146 b 278 -319 167 -271 215 -319 b 347 -296 304 -319 328 -311 b 417 -319 367 -311 390 -319 b 528 -208 479 -319 528 -271 b 504 -139 528 -182 519 -158 b 528 -69 519 -119 528 -96 b 504 0 528 -43 519 -19 b 528 69 519 19 528 43 b 504 139 528 96 519 119 b 528 208 519 158 528 182 b 504 278 528 235 519 258 b 528 347 519 297 528 321 b 504 417 528 374 519 397 z "},"Ñ":{"ha":556,"x_min":0,"x_max":0,"o":"m 556 1153 b 444 1042 493 1153 444 1104 b 449 1010 444 1031 446 1019 b 417 1014 439 1013 428 1014 b 385 1010 406 1014 394 1013 b 389 1042 388 1019 389 1031 b 278 1153 389 1104 340 1153 b 167 1042 215 1153 167 1104 b 171 1010 167 1031 168 1019 b 139 1014 161 1013 150 1014 b 28 903 76 1014 28 965 b 139 792 28 840 76 792 b 250 903 201 792 250 840 b 246 935 250 914 249 925 b 278 931 256 932 267 931 b 310 935 289 931 300 932 b 306 903 307 925 306 914 b 417 792 306 840 354 792 b 528 903 479 792 528 840 b 524 935 528 914 526 925 b 556 931 533 932 544 931 b 667 1042 618 931 667 979 b 556 1153 667 1104 618 1153 z m 417 597 b 385 593 406 597 394 596 b 389 625 388 603 389 614 b 278 736 389 688 340 736 b 208 713 251 736 228 728 b 139 736 189 728 165 736 b 28 625 76 736 28 688 b 51 556 28 599 36 575 b 28 486 36 536 28 513 b 51 417 28 460 36 436 b 28 347 36 397 28 374 b 51 278 28 321 36 297 b 28 208 36 258 28 235 b 51 139 28 182 36 158 b 28 69 36 119 28 96 b 139 -42 28 7 76 -42 b 250 69 201 -42 250 7 b 226 139 250 96 242 119 b 250 208 242 158 250 182 b 226 278 250 235 242 258 b 250 347 242 297 250 321 b 226 417 250 374 242 397 b 250 486 242 436 250 460 b 246 518 250 497 249 508 b 278 514 256 515 267 514 b 310 518 289 514 300 515 b 306 486 307 508 306 497 b 329 417 306 460 314 436 b 306 347 314 397 306 374 b 329 278 306 321 314 297 b 306 208 314 258 306 235 b 329 139 306 182 314 158 b 306 69 314 119 306 96 b 417 -42 306 7 354 -42 b 528 69 479 -42 528 7 b 504 139 528 96 519 119 b 528 208 519 158 528 182 b 504 278 528 235 519 258 b 528 347 519 297 528 321 b 504 417 528 374 519 397 b 528 486 519 436 528 460 b 417 597 528 549 479 597 z "},"O":{"ha":556,"x_min":0,"x_max":0,"o":"m 504 417 b 528 486 519 436 528 460 b 417 597 528 549 479 597 b 385 593 406 597 394 596 b 389 625 388 603 389 614 b 278 736 389 688 340 736 b 167 625 215 736 167 688 b 171 593 167 614 168 603 b 139 597 161 596 150 597 b 28 486 76 597 28 549 b 51 417 28 460 36 436 b 28 347 36 397 28 374 b 51 278 28 321 36 297 b 28 208 36 258 28 235 b 139 97 28 146 76 97 b 171 101 150 97 161 99 b 167 69 168 92 167 81 b 278 -42 167 7 215 -42 b 389 69 340 -42 389 7 b 385 101 389 81 388 92 b 417 97 394 99 406 97 b 528 208 479 97 528 146 b 504 278 528 235 519 258 b 528 347 519 297 528 321 b 504 417 528 374 519 397 z m 246 176 b 250 208 249 186 250 197 b 226 278 250 235 242 258 b 250 347 242 297 250 321 b 226 417 250 374 242 397 b 250 486 242 436 250 460 b 246 518 250 497 249 508 b 278 514 256 515 267 514 b 310 518 289 514 300 515 b 306 486 307 508 306 497 b 329 417 306 460 314 436 b 306 347 314 397 306 374 b 329 278 306 321 314 297 b 306 208 314 258 306 235 b 310 176 306 197 307 186 b 278 181 300 179 289 181 b 246 176 267 181 256 179 z "},"Ó":{"ha":556,"x_min":0,"x_max":0,"o":"m 278 792 b 389 903 340 792 389 840 b 385 935 389 914 388 925 b 417 931 394 932 406 931 b 528 1042 479 931 528 979 b 417 1153 528 1104 479 1153 b 306 1042 354 1153 306 1104 b 310 1010 306 1031 307 1019 b 278 1014 300 1013 289 1014 b 167 903 215 1014 167 965 b 278 792 167 840 215 792 z m 417 597 b 385 593 406 597 394 596 b 389 625 388 603 389 614 b 278 736 389 688 340 736 b 167 625 215 736 167 688 b 171 593 167 614 168 603 b 139 597 161 596 150 597 b 28 486 76 597 28 549 b 51 417 28 460 36 436 b 28 347 36 397 28 374 b 51 278 28 321 36 297 b 28 208 36 258 28 235 b 139 97 28 146 76 97 b 171 101 150 97 161 99 b 167 69 168 92 167 81 b 278 -42 167 7 215 -42 b 389 69 340 -42 389 7 b 385 101 389 81 388 92 b 417 97 394 99 406 97 b 528 208 479 97 528 146 b 504 278 528 235 519 258 b 528 347 519 297 528 321 b 504 417 528 374 519 397 b 528 486 519 436 528 460 b 417 597 528 549 479 597 z m 246 176 b 250 208 249 186 250 197 b 226 278 250 235 242 258 b 250 347 242 297 250 321 b 226 417 250 374 242 397 b 250 486 242 436 250 460 b 246 518 250 497 249 508 b 278 514 256 515 267 514 b 310 518 289 514 300 515 b 306 486 307 508 306 497 b 329 417 306 460 314 436 b 306 347 314 397 306 374 b 329 278 306 321 314 297 b 306 208 314 258 306 235 b 310 176 306 197 307 186 b 278 181 300 179 289 181 b 246 176 267 181 256 179 z "},"Ô":{"ha":556,"x_min":0,"x_max":0,"o":"m 139 792 b 250 903 201 792 250 840 b 246 935 250 914 249 925 b 278 931 256 932 267 931 b 310 935 289 931 300 932 b 306 903 307 925 306 914 b 417 792 306 840 354 792 b 528 903 479 792 528 840 b 417 1014 528 965 479 1014 b 385 1010 406 1014 394 1013 b 389 1042 388 1019 389 1031 b 278 1153 389 1104 340 1153 b 167 1042 215 1153 167 1104 b 171 1010 167 1031 168 1019 b 139 1014 161 1013 150 1014 b 28 903 76 1014 28 965 b 139 792 28 840 76 792 z m 417 597 b 385 593 406 597 394 596 b 389 625 388 603 389 614 b 278 736 389 688 340 736 b 167 625 215 736 167 688 b 171 593 167 614 168 603 b 139 597 161 596 150 597 b 28 486 76 597 28 549 b 51 417 28 460 36 436 b 28 347 36 397 28 374 b 51 278 28 321 36 297 b 28 208 36 258 28 235 b 139 97 28 146 76 97 b 171 101 150 97 161 99 b 167 69 168 92 167 81 b 278 -42 167 7 215 -42 b 389 69 340 -42 389 7 b 385 101 389 81 388 92 b 417 97 394 99 406 97 b 528 208 479 97 528 146 b 504 278 528 235 519 258 b 528 347 519 297 528 321 b 504 417 528 374 519 397 b 528 486 519 436 528 460 b 417 597 528 549 479 597 z m 246 176 b 250 208 249 186 250 197 b 226 278 250 235 242 258 b 250 347 242 297 250 321 b 226 417 250 374 242 397 b 250 486 242 436 250 460 b 246 518 250 497 249 508 b 278 514 256 515 267 514 b 310 518 289 514 300 515 b 306 486 307 508 306 497 b 329 417 306 460 314 436 b 306 347 314 397 306 374 b 329 278 306 321 314 297 b 306 208 314 258 306 235 b 310 176 306 197 307 186 b 278 181 300 179 289 181 b 246 176 267 181 256 179 z "},"Ö":{"ha":556,"x_min":0,"x_max":0,"o":"m 139 792 b 250 903 201 792 250 840 b 139 1014 250 965 201 1014 b 28 903 76 1014 28 965 b 139 792 28 840 76 792 z m 417 792 b 528 903 479 792 528 840 b 417 1014 528 965 479 1014 b 306 903 354 1014 306 965 b 417 792 306 840 354 792 z m 417 597 b 385 593 406 597 394 596 b 389 625 388 603 389 614 b 278 736 389 688 340 736 b 167 625 215 736 167 688 b 171 593 167 614 168 603 b 139 597 161 596 150 597 b 28 486 76 597 28 549 b 51 417 28 460 36 436 b 28 347 36 397 28 374 b 51 278 28 321 36 297 b 28 208 36 258 28 235 b 139 97 28 146 76 97 b 171 101 150 97 161 99 b 167 69 168 92 167 81 b 278 -42 167 7 215 -42 b 389 69 340 -42 389 7 b 385 101 389 81 388 92 b 417 97 394 99 406 97 b 528 208 479 97 528 146 b 504 278 528 235 519 258 b 528 347 519 297 528 321 b 504 417 528 374 519 397 b 528 486 519 436 528 460 b 417 597 528 549 479 597 z m 246 176 b 250 208 249 186 250 197 b 226 278 250 235 242 258 b 250 347 242 297 250 321 b 226 417 250 374 242 397 b 250 486 242 436 250 460 b 246 518 250 497 249 508 b 278 514 256 515 267 514 b 310 518 289 514 300 515 b 306 486 307 508 306 497 b 329 417 306 460 314 436 b 306 347 314 397 306 374 b 329 278 306 321 314 297 b 306 208 314 258 306 235 b 310 176 306 197 307 186 b 278 181 300 179 289 181 b 246 176 267 181 256 179 z "},"Ò":{"ha":556,"x_min":0,"x_max":0,"o":"m 139 931 b 171 935 150 931 161 932 b 167 903 168 925 167 914 b 278 792 167 840 215 792 b 389 903 340 792 389 840 b 278 1014 389 965 340 1014 b 246 1010 267 1014 256 1013 b 250 1042 249 1019 250 1031 b 139 1153 250 1104 201 1153 b 28 1042 76 1153 28 1104 b 139 931 28 979 76 931 z m 504 417 b 528 486 519 436 528 460 b 417 597 528 549 479 597 b 385 593 406 597 394 596 b 389 625 388 603 389 614 b 278 736 389 688 340 736 b 167 625 215 736 167 688 b 171 593 167 614 168 603 b 139 597 161 596 150 597 b 28 486 76 597 28 549 b 51 417 28 460 36 436 b 28 347 36 397 28 374 b 51 278 28 321 36 297 b 28 208 36 258 28 235 b 139 97 28 146 76 97 b 171 101 150 97 161 99 b 167 69 168 92 167 81 b 278 -42 167 7 215 -42 b 389 69 340 -42 389 7 b 385 101 389 81 388 92 b 417 97 394 99 406 97 b 528 208 479 97 528 146 b 504 278 528 235 519 258 b 528 347 519 297 528 321 b 504 417 528 374 519 397 z m 246 176 b 250 208 249 186 250 197 b 226 278 250 235 242 258 b 250 347 242 297 250 321 b 226 417 250 374 242 397 b 250 486 242 436 250 460 b 246 518 250 497 249 508 b 278 514 256 515 267 514 b 310 518 289 514 300 515 b 306 486 307 508 306 497 b 329 417 306 460 314 436 b 306 347 314 397 306 374 b 329 278 306 321 314 297 b 306 208 314 258 306 235 b 310 176 306 197 307 186 b 278 181 300 179 289 181 b 246 176 267 181 256 179 z "},"Ő":{"ha":556,"x_min":0,"x_max":0,"o":"m 556 1153 b 444 1042 493 1153 444 1104 b 449 1010 444 1031 446 1019 b 417 1014 439 1013 428 1014 b 385 1010 406 1014 394 1013 b 389 1042 388 1019 389 1031 b 278 1153 389 1104 340 1153 b 167 1042 215 1153 167 1104 b 171 1010 167 1031 168 1019 b 139 1014 161 1013 150 1014 b 28 903 76 1014 28 965 b 139 792 28 840 76 792 b 250 903 201 792 250 840 b 246 935 250 914 249 925 b 278 931 256 932 267 931 b 310 935 289 931 300 932 b 306 903 307 925 306 914 b 417 792 306 840 354 792 b 528 903 479 792 528 840 b 524 935 528 914 526 925 b 556 931 533 932 544 931 b 667 1042 618 931 667 979 b 556 1153 667 1104 618 1153 z m 417 597 b 385 593 406 597 394 596 b 389 625 388 603 389 614 b 278 736 389 688 340 736 b 167 625 215 736 167 688 b 171 593 167 614 168 603 b 139 597 161 596 150 597 b 28 486 76 597 28 549 b 51 417 28 460 36 436 b 28 347 36 397 28 374 b 51 278 28 321 36 297 b 28 208 36 258 28 235 b 139 97 28 146 76 97 b 171 101 150 97 161 99 b 167 69 168 92 167 81 b 278 -42 167 7 215 -42 b 389 69 340 -42 389 7 b 385 101 389 81 388 92 b 417 97 394 99 406 97 b 528 208 479 97 528 146 b 504 278 528 235 519 258 b 528 347 519 297 528 321 b 504 417 528 374 519 397 b 528 486 519 436 528 460 b 417 597 528 549 479 597 z m 246 176 b 250 208 249 186 250 197 b 226 278 250 235 242 258 b 250 347 242 297 250 321 b 226 417 250 374 242 397 b 250 486 242 436 250 460 b 246 518 250 497 249 508 b 278 514 256 515 267 514 b 310 518 289 514 300 515 b 306 486 307 508 306 497 b 329 417 306 460 314 436 b 306 347 314 397 306 374 b 329 278 306 321 314 297 b 306 208 314 258 306 235 b 310 176 306 197 307 186 b 278 181 300 179 289 181 b 246 176 267 181 256 179 z "},"Ō":{"ha":556,"x_min":0,"x_max":0,"o":"m 139 792 b 208 815 165 792 189 800 b 278 792 228 800 251 792 b 347 815 304 792 328 800 b 417 792 367 800 390 792 b 528 903 479 792 528 840 b 417 1014 528 965 479 1014 b 347 990 390 1014 367 1006 b 278 1014 328 1006 304 1014 b 208 990 251 1014 228 1006 b 139 1014 189 1006 165 1014 b 28 903 76 1014 28 965 b 139 792 28 840 76 792 z m 417 597 b 385 593 406 597 394 596 b 389 625 388 603 389 614 b 278 736 389 688 340 736 b 167 625 215 736 167 688 b 171 593 167 614 168 603 b 139 597 161 596 150 597 b 28 486 76 597 28 549 b 51 417 28 460 36 436 b 28 347 36 397 28 374 b 51 278 28 321 36 297 b 28 208 36 258 28 235 b 139 97 28 146 76 97 b 171 101 150 97 161 99 b 167 69 168 92 167 81 b 278 -42 167 7 215 -42 b 389 69 340 -42 389 7 b 385 101 389 81 388 92 b 417 97 394 99 406 97 b 528 208 479 97 528 146 b 504 278 528 235 519 258 b 528 347 519 297 528 321 b 504 417 528 374 519 397 b 528 486 519 436 528 460 b 417 597 528 549 479 597 z m 246 176 b 250 208 249 186 250 197 b 226 278 250 235 242 258 b 250 347 242 297 250 321 b 226 417 250 374 242 397 b 250 486 242 436 250 460 b 246 518 250 497 249 508 b 278 514 256 515 267 514 b 310 518 289 514 300 515 b 306 486 307 508 306 497 b 329 417 306 460 314 436 b 306 347 314 397 306 374 b 329 278 306 321 314 297 b 306 208 314 258 306 235 b 310 176 306 197 307 186 b 278 181 300 179 289 181 b 246 176 267 181 256 179 z "},"Ø":{"ha":833,"x_min":0,"x_max":0,"o":"m 694 458 b 663 454 683 458 672 457 b 667 486 665 464 667 475 b 663 518 667 497 665 508 b 694 514 672 515 683 514 b 806 625 757 514 806 563 b 694 736 806 688 757 736 b 583 625 632 736 583 688 b 588 593 583 614 585 603 b 556 597 578 596 567 597 b 524 593 544 597 533 596 b 528 625 526 603 528 614 b 417 736 528 688 479 736 b 347 713 390 736 367 728 b 278 736 328 728 304 736 b 167 625 215 736 167 688 b 171 593 167 614 168 603 b 139 597 161 596 150 597 b 28 486 76 597 28 549 b 51 417 28 460 36 436 b 28 347 36 397 28 374 b 139 236 28 285 76 236 b 171 240 150 236 161 238 b 167 208 168 231 167 219 b 171 176 167 197 168 186 b 139 181 161 179 150 181 b 28 69 76 181 28 132 b 139 -42 28 7 76 -42 b 250 69 201 -42 250 7 b 246 101 250 81 249 92 b 278 97 256 99 267 97 b 310 101 289 97 300 99 b 306 69 307 92 306 81 b 417 -42 306 7 354 -42 b 486 -18 443 -42 467 -33 b 556 -42 506 -33 529 -42 b 667 69 618 -42 667 7 b 663 101 667 81 665 92 b 694 97 672 99 683 97 b 806 208 757 97 806 146 b 782 278 806 235 797 258 b 806 347 797 297 806 321 b 694 458 806 410 757 458 z m 246 315 b 250 347 249 325 250 336 b 226 417 250 374 242 397 b 250 486 242 436 250 460 b 246 518 250 497 249 508 b 278 514 256 515 267 514 b 347 538 304 514 328 522 b 417 514 367 522 390 514 b 449 518 428 514 439 515 b 444 486 446 508 444 497 b 449 454 444 475 446 464 b 417 458 439 457 428 458 b 306 347 354 458 306 410 b 310 315 306 336 307 325 b 278 319 300 318 289 319 b 246 315 267 319 256 318 z m 486 157 b 417 181 467 172 443 181 b 385 176 406 181 394 179 b 389 208 388 186 389 197 b 385 240 389 219 388 231 b 417 236 394 238 406 236 b 528 347 479 236 528 285 b 524 379 528 358 526 369 b 556 375 533 376 544 375 b 588 379 567 375 578 376 b 583 347 585 369 583 358 b 607 278 583 321 592 297 b 583 208 592 258 583 235 b 588 176 583 197 585 186 b 556 181 578 179 567 181 b 486 157 529 181 506 172 z "},"Õ":{"ha":556,"x_min":0,"x_max":0,"o":"m 556 1153 b 444 1042 493 1153 444 1104 b 449 1010 444 1031 446 1019 b 417 1014 439 1013 428 1014 b 385 1010 406 1014 394 1013 b 389 1042 388 1019 389 1031 b 278 1153 389 1104 340 1153 b 167 1042 215 1153 167 1104 b 171 1010 167 1031 168 1019 b 139 1014 161 1013 150 1014 b 28 903 76 1014 28 965 b 139 792 28 840 76 792 b 250 903 201 792 250 840 b 246 935 250 914 249 925 b 278 931 256 932 267 931 b 310 935 289 931 300 932 b 306 903 307 925 306 914 b 417 792 306 840 354 792 b 528 903 479 792 528 840 b 524 935 528 914 526 925 b 556 931 533 932 544 931 b 667 1042 618 931 667 979 b 556 1153 667 1104 618 1153 z m 417 597 b 385 593 406 597 394 596 b 389 625 388 603 389 614 b 278 736 389 688 340 736 b 167 625 215 736 167 688 b 171 593 167 614 168 603 b 139 597 161 596 150 597 b 28 486 76 597 28 549 b 51 417 28 460 36 436 b 28 347 36 397 28 374 b 51 278 28 321 36 297 b 28 208 36 258 28 235 b 139 97 28 146 76 97 b 171 101 150 97 161 99 b 167 69 168 92 167 81 b 278 -42 167 7 215 -42 b 389 69 340 -42 389 7 b 385 101 389 81 388 92 b 417 97 394 99 406 97 b 528 208 479 97 528 146 b 504 278 528 235 519 258 b 528 347 519 297 528 321 b 504 417 528 374 519 397 b 528 486 519 436 528 460 b 417 597 528 549 479 597 z m 246 176 b 250 208 249 186 250 197 b 226 278 250 235 242 258 b 250 347 242 297 250 321 b 226 417 250 374 242 397 b 250 486 242 436 250 460 b 246 518 250 497 249 508 b 278 514 256 515 267 514 b 310 518 289 514 300 515 b 306 486 307 508 306 497 b 329 417 306 460 314 436 b 306 347 314 397 306 374 b 329 278 306 321 314 297 b 306 208 314 258 306 235 b 310 176 306 197 307 186 b 278 181 300 179 289 181 b 246 176 267 181 256 179 z "},"Œ":{"ha":694,"x_min":0,"x_max":0,"o":"m 667 347 b 556 458 667 410 618 458 b 524 454 544 458 533 457 b 528 486 526 464 528 475 b 524 518 528 497 526 508 b 556 514 533 515 544 514 b 667 625 618 514 667 563 b 556 736 667 688 618 736 b 486 713 529 736 506 728 b 417 736 467 728 443 736 b 347 713 390 736 367 728 b 278 736 328 728 304 736 b 167 625 215 736 167 688 b 171 593 167 614 168 603 b 139 597 161 596 150 597 b 28 486 76 597 28 549 b 51 417 28 460 36 436 b 28 347 36 397 28 374 b 51 278 28 321 36 297 b 28 208 36 258 28 235 b 139 97 28 146 76 97 b 171 101 150 97 161 99 b 167 69 168 92 167 81 b 278 -42 167 7 215 -42 b 347 -18 304 -42 328 -33 b 417 -42 367 -33 390 -42 b 486 -18 443 -42 467 -33 b 556 -42 506 -33 529 -42 b 667 69 618 -42 667 7 b 556 181 667 132 618 181 b 524 176 544 181 533 179 b 528 208 526 186 528 197 b 524 240 528 219 526 231 b 556 236 533 238 544 236 b 667 347 618 236 667 285 z m 246 176 b 250 208 249 186 250 197 b 226 278 250 235 242 258 b 250 347 242 297 250 321 b 226 417 250 374 242 397 b 250 486 242 436 250 460 b 246 518 250 497 249 508 b 278 514 256 515 267 514 b 310 518 289 514 300 515 b 306 486 307 508 306 497 b 329 417 306 460 314 436 b 306 347 314 397 306 374 b 329 278 306 321 314 297 b 306 208 314 258 306 235 b 310 176 306 197 307 186 b 278 181 300 179 289 181 b 246 176 267 181 256 179 z "},"P":{"ha":556,"x_min":0,"x_max":0,"o":"m 417 597 b 385 593 406 597 394 596 b 389 625 388 603 389 614 b 278 736 389 688 340 736 b 208 713 251 736 228 728 b 139 736 189 728 165 736 b 28 625 76 736 28 688 b 51 556 28 599 36 575 b 28 486 36 536 28 513 b 51 417 28 460 36 436 b 28 347 36 397 28 374 b 51 278 28 321 36 297 b 28 208 36 258 28 235 b 51 139 28 182 36 158 b 28 69 36 119 28 96 b 139 -42 28 7 76 -42 b 250 69 201 -42 250 7 b 226 139 250 96 242 119 b 250 208 242 158 250 182 b 246 240 250 219 249 231 b 278 236 256 238 267 236 b 389 347 340 236 389 285 b 385 379 389 358 388 369 b 417 375 394 376 406 375 b 528 486 479 375 528 424 b 417 597 528 549 479 597 z m 246 454 b 250 486 249 464 250 475 b 246 518 250 497 249 508 b 278 514 256 515 267 514 b 310 518 289 514 300 515 b 306 486 307 508 306 497 b 310 454 306 475 307 464 b 278 458 300 457 289 458 b 246 454 267 458 256 457 z "},"Þ":{"ha":556,"x_min":0,"x_max":0,"o":"m 417 458 b 385 454 406 458 394 457 b 389 486 388 464 389 475 b 278 597 389 549 340 597 b 246 593 267 597 256 596 b 250 625 249 603 250 614 b 139 736 250 688 201 736 b 28 625 76 736 28 688 b 51 556 28 599 36 575 b 28 486 36 536 28 513 b 51 417 28 460 36 436 b 28 347 36 397 28 374 b 51 278 28 321 36 297 b 28 208 36 258 28 235 b 51 139 28 182 36 158 b 28 69 36 119 28 96 b 139 -42 28 7 76 -42 b 250 69 201 -42 250 7 b 246 101 250 81 249 92 b 278 97 256 99 267 97 b 389 208 340 97 389 146 b 385 240 389 219 388 231 b 417 236 394 238 406 236 b 528 347 479 236 528 285 b 417 458 528 410 479 458 z m 246 315 b 250 347 249 325 250 336 b 246 379 250 358 249 369 b 278 375 256 376 267 375 b 310 379 289 375 300 376 b 306 347 307 369 306 358 b 310 315 306 336 307 325 b 278 319 300 318 289 319 b 246 315 267 319 256 318 z "},"Q":{"ha":556,"x_min":0,"x_max":0,"o":"m 528 347 b 504 417 528 374 519 397 b 528 486 519 436 528 460 b 417 597 528 549 479 597 b 385 593 406 597 394 596 b 389 625 388 603 389 614 b 278 736 389 688 340 736 b 167 625 215 736 167 688 b 171 593 167 614 168 603 b 139 597 161 596 150 597 b 28 486 76 597 28 549 b 51 417 28 460 36 436 b 28 347 36 397 28 374 b 51 278 28 321 36 297 b 28 208 36 258 28 235 b 139 97 28 146 76 97 b 171 101 150 97 161 99 b 167 69 168 92 167 81 b 278 -42 167 7 215 -42 b 347 -18 304 -42 328 -33 b 417 -42 367 -33 390 -42 b 528 69 479 -42 528 7 b 417 181 528 132 479 181 b 385 176 406 181 394 179 b 389 208 388 186 389 197 b 385 240 389 219 388 231 b 417 236 394 238 406 236 b 528 347 479 236 528 285 z m 310 518 b 306 486 307 508 306 497 b 329 417 306 460 314 436 b 306 347 314 397 306 374 b 310 315 306 336 307 325 b 278 319 300 318 289 319 b 246 315 267 319 256 318 b 250 347 249 325 250 336 b 226 417 250 374 242 397 b 250 486 242 436 250 460 b 246 518 250 497 249 508 b 278 514 256 515 267 514 b 310 518 289 514 300 515 z "},"R":{"ha":556,"x_min":0,"x_max":0,"o":"m 417 319 b 385 315 406 319 394 318 b 389 347 388 325 389 336 b 385 379 389 358 388 369 b 417 375 394 376 406 375 b 528 486 479 375 528 424 b 417 597 528 549 479 597 b 385 593 406 597 394 596 b 389 625 388 603 389 614 b 278 736 389 688 340 736 b 208 713 251 736 228 728 b 139 736 189 728 165 736 b 28 625 76 736 28 688 b 51 556 28 599 36 575 b 28 486 36 536 28 513 b 51 417 28 460 36 436 b 28 347 36 397 28 374 b 51 278 28 321 36 297 b 28 208 36 258 28 235 b 51 139 28 182 36 158 b 28 69 36 119 28 96 b 139 -42 28 7 76 -42 b 250 69 201 -42 250 7 b 226 139 250 96 242 119 b 250 208 242 158 250 182 b 246 240 250 219 249 231 b 278 236 256 238 267 236 b 310 240 289 236 300 238 b 306 208 307 231 306 219 b 329 139 306 182 314 158 b 306 69 314 119 306 96 b 417 -42 306 7 354 -42 b 528 69 479 -42 528 7 b 504 139 528 96 519 119 b 528 208 519 158 528 182 b 417 319 528 271 479 319 z m 246 454 b 250 486 249 464 250 475 b 246 518 250 497 249 508 b 278 514 256 515 267 514 b 310 518 289 514 300 515 b 306 486 307 508 306 497 b 310 454 306 475 307 464 b 278 458 300 457 289 458 b 246 454 267 458 256 457 z "},"Ŕ":{"ha":556,"x_min":0,"x_max":0,"o":"m 278 792 b 389 903 340 792 389 840 b 385 935 389 914 388 925 b 417 931 394 932 406 931 b 528 1042 479 931 528 979 b 417 1153 528 1104 479 1153 b 306 1042 354 1153 306 1104 b 310 1010 306 1031 307 1019 b 278 1014 300 1013 289 1014 b 167 903 215 1014 167 965 b 278 792 167 840 215 792 z m 528 486 b 417 597 528 549 479 597 b 385 593 406 597 394 596 b 389 625 388 603 389 614 b 278 736 389 688 340 736 b 208 713 251 736 228 728 b 139 736 189 728 165 736 b 28 625 76 736 28 688 b 51 556 28 599 36 575 b 28 486 36 536 28 513 b 51 417 28 460 36 436 b 28 347 36 397 28 374 b 51 278 28 321 36 297 b 28 208 36 258 28 235 b 51 139 28 182 36 158 b 28 69 36 119 28 96 b 139 -42 28 7 76 -42 b 250 69 201 -42 250 7 b 226 139 250 96 242 119 b 250 208 242 158 250 182 b 246 240 250 219 249 231 b 278 236 256 238 267 236 b 310 240 289 236 300 238 b 306 208 307 231 306 219 b 329 139 306 182 314 158 b 306 69 314 119 306 96 b 417 -42 306 7 354 -42 b 528 69 479 -42 528 7 b 504 139 528 96 519 119 b 528 208 519 158 528 182 b 417 319 528 271 479 319 b 385 315 406 319 394 318 b 389 347 388 325 389 336 b 385 379 389 358 388 369 b 417 375 394 376 406 375 b 528 486 479 375 528 424 z m 246 454 b 250 486 249 464 250 475 b 246 518 250 497 249 508 b 278 514 256 515 267 514 b 310 518 289 514 300 515 b 306 486 307 508 306 497 b 310 454 306 475 307 464 b 278 458 300 457 289 458 b 246 454 267 458 256 457 z "},"Ř":{"ha":556,"x_min":0,"x_max":0,"o":"m 139 931 b 171 935 150 931 161 932 b 167 903 168 925 167 914 b 278 792 167 840 215 792 b 389 903 340 792 389 840 b 385 935 389 914 388 925 b 417 931 394 932 406 931 b 528 1042 479 931 528 979 b 417 1153 528 1104 479 1153 b 306 1042 354 1153 306 1104 b 310 1010 306 1031 307 1019 b 278 1014 300 1013 289 1014 b 246 1010 267 1014 256 1013 b 250 1042 249 1019 250 1031 b 139 1153 250 1104 201 1153 b 28 1042 76 1153 28 1104 b 139 931 28 979 76 931 z m 528 486 b 417 597 528 549 479 597 b 385 593 406 597 394 596 b 389 625 388 603 389 614 b 278 736 389 688 340 736 b 208 713 251 736 228 728 b 139 736 189 728 165 736 b 28 625 76 736 28 688 b 51 556 28 599 36 575 b 28 486 36 536 28 513 b 51 417 28 460 36 436 b 28 347 36 397 28 374 b 51 278 28 321 36 297 b 28 208 36 258 28 235 b 51 139 28 182 36 158 b 28 69 36 119 28 96 b 139 -42 28 7 76 -42 b 250 69 201 -42 250 7 b 226 139 250 96 242 119 b 250 208 242 158 250 182 b 246 240 250 219 249 231 b 278 236 256 238 267 236 b 310 240 289 236 300 238 b 306 208 307 231 306 219 b 329 139 306 182 314 158 b 306 69 314 119 306 96 b 417 -42 306 7 354 -42 b 528 69 479 -42 528 7 b 504 139 528 96 519 119 b 528 208 519 158 528 182 b 417 319 528 271 479 319 b 385 315 406 319 394 318 b 389 347 388 325 389 336 b 385 379 389 358 388 369 b 417 375 394 376 406 375 b 528 486 479 375 528 424 z m 246 454 b 250 486 249 464 250 475 b 246 518 250 497 249 508 b 278 514 256 515 267 514 b 310 518 289 514 300 515 b 306 486 307 508 306 497 b 310 454 306 475 307 464 b 278 458 300 457 289 458 b 246 454 267 458 256 457 z "},"Ŗ":{"ha":556,"x_min":0,"x_max":0,"o":"m 417 319 b 385 315 406 319 394 318 b 389 347 388 325 389 336 b 385 379 389 358 388 369 b 417 375 394 376 406 375 b 528 486 479 375 528 424 b 417 597 528 549 479 597 b 385 593 406 597 394 596 b 389 625 388 603 389 614 b 278 736 389 688 340 736 b 208 713 251 736 228 728 b 139 736 189 728 165 736 b 28 625 76 736 28 688 b 51 556 28 599 36 575 b 28 486 36 536 28 513 b 51 417 28 460 36 436 b 28 347 36 397 28 374 b 51 278 28 321 36 297 b 28 208 36 258 28 235 b 51 139 28 182 36 158 b 28 69 36 119 28 96 b 139 -42 28 7 76 -42 b 250 69 201 -42 250 7 b 226 139 250 96 242 119 b 250 208 242 158 250 182 b 246 240 250 219 249 231 b 278 236 256 238 267 236 b 310 240 289 236 300 238 b 306 208 307 231 306 219 b 329 139 306 182 314 158 b 306 69 314 119 306 96 b 417 -42 306 7 354 -42 b 528 69 479 -42 528 7 b 504 139 528 96 519 119 b 528 208 519 158 528 182 b 417 319 528 271 479 319 z m 246 454 b 250 486 249 464 250 475 b 246 518 250 497 249 508 b 278 514 256 515 267 514 b 310 518 289 514 300 515 b 306 486 307 508 306 497 b 310 454 306 475 307 464 b 278 458 300 457 289 458 b 246 454 267 458 256 457 z m 278 -97 b 208 -121 251 -97 228 -106 b 139 -97 189 -106 165 -97 b 28 -208 76 -97 28 -146 b 139 -319 28 -271 76 -319 b 171 -315 150 -319 161 -318 b 167 -347 168 -325 167 -336 b 171 -379 167 -358 168 -369 b 139 -375 161 -376 150 -375 b 28 -486 76 -375 28 -424 b 139 -597 28 -549 76 -597 b 250 -486 201 -597 250 -549 b 246 -454 250 -475 249 -464 b 278 -458 256 -457 267 -458 b 389 -347 340 -458 389 -410 b 365 -278 389 -321 381 -297 b 389 -208 381 -258 389 -235 b 278 -97 389 -146 340 -97 z "},"S":{"ha":556,"x_min":0,"x_max":0,"o":"m 417 319 b 385 315 406 319 394 318 b 389 347 388 325 389 336 b 278 458 389 410 340 458 b 246 454 267 458 256 457 b 250 486 249 464 250 475 b 246 518 250 497 249 508 b 278 514 256 515 267 514 b 347 538 304 514 328 522 b 417 514 367 522 390 514 b 528 625 479 514 528 563 b 417 736 528 688 479 736 b 347 713 390 736 367 728 b 278 736 328 728 304 736 b 167 625 215 736 167 688 b 171 593 167 614 168 603 b 139 597 161 596 150 597 b 28 486 76 597 28 549 b 139 375 28 424 76 375 b 171 379 150 375 161 376 b 167 347 168 369 167 358 b 278 236 167 285 215 236 b 310 240 289 236 300 238 b 306 208 307 231 306 219 b 310 176 306 197 307 186 b 278 181 300 179 289 181 b 208 157 251 181 228 172 b 139 181 189 172 165 181 b 28 69 76 181 28 132 b 139 -42 28 7 76 -42 b 208 -18 165 -42 189 -33 b 278 -42 228 -33 251 -42 b 389 69 340 -42 389 7 b 385 101 389 81 388 92 b 417 97 394 99 406 97 b 528 208 479 97 528 146 b 417 319 528 271 479 319 z "},"Ś":{"ha":556,"x_min":0,"x_max":0,"o":"m 278 792 b 389 903 340 792 389 840 b 385 935 389 914 388 925 b 417 931 394 932 406 931 b 528 1042 479 931 528 979 b 417 1153 528 1104 479 1153 b 306 1042 354 1153 306 1104 b 310 1010 306 1031 307 1019 b 278 1014 300 1013 289 1014 b 167 903 215 1014 167 965 b 278 792 167 840 215 792 z m 347 538 b 417 514 367 522 390 514 b 528 625 479 514 528 563 b 417 736 528 688 479 736 b 347 713 390 736 367 728 b 278 736 328 728 304 736 b 167 625 215 736 167 688 b 171 593 167 614 168 603 b 139 597 161 596 150 597 b 28 486 76 597 28 549 b 139 375 28 424 76 375 b 171 379 150 375 161 376 b 167 347 168 369 167 358 b 278 236 167 285 215 236 b 310 240 289 236 300 238 b 306 208 307 231 306 219 b 310 176 306 197 307 186 b 278 181 300 179 289 181 b 208 157 251 181 228 172 b 139 181 189 172 165 181 b 28 69 76 181 28 132 b 139 -42 28 7 76 -42 b 208 -18 165 -42 189 -33 b 278 -42 228 -33 251 -42 b 389 69 340 -42 389 7 b 385 101 389 81 388 92 b 417 97 394 99 406 97 b 528 208 479 97 528 146 b 417 319 528 271 479 319 b 385 315 406 319 394 318 b 389 347 388 325 389 336 b 278 458 389 410 340 458 b 246 454 267 458 256 457 b 250 486 249 464 250 475 b 246 518 250 497 249 508 b 278 514 256 515 267 514 b 347 538 304 514 328 522 z "},"Š":{"ha":556,"x_min":0,"x_max":0,"o":"m 139 931 b 171 935 150 931 161 932 b 167 903 168 925 167 914 b 278 792 167 840 215 792 b 389 903 340 792 389 840 b 385 935 389 914 388 925 b 417 931 394 932 406 931 b 528 1042 479 931 528 979 b 417 1153 528 1104 479 1153 b 306 1042 354 1153 306 1104 b 310 1010 306 1031 307 1019 b 278 1014 300 1013 289 1014 b 246 1010 267 1014 256 1013 b 250 1042 249 1019 250 1031 b 139 1153 250 1104 201 1153 b 28 1042 76 1153 28 1104 b 139 931 28 979 76 931 z m 347 538 b 417 514 367 522 390 514 b 528 625 479 514 528 563 b 417 736 528 688 479 736 b 347 713 390 736 367 728 b 278 736 328 728 304 736 b 167 625 215 736 167 688 b 171 593 167 614 168 603 b 139 597 161 596 150 597 b 28 486 76 597 28 549 b 139 375 28 424 76 375 b 171 379 150 375 161 376 b 167 347 168 369 167 358 b 278 236 167 285 215 236 b 310 240 289 236 300 238 b 306 208 307 231 306 219 b 310 176 306 197 307 186 b 278 181 300 179 289 181 b 208 157 251 181 228 172 b 139 181 189 172 165 181 b 28 69 76 181 28 132 b 139 -42 28 7 76 -42 b 208 -18 165 -42 189 -33 b 278 -42 228 -33 251 -42 b 389 69 340 -42 389 7 b 385 101 389 81 388 92 b 417 97 394 99 406 97 b 528 208 479 97 528 146 b 417 319 528 271 479 319 b 385 315 406 319 394 318 b 389 347 388 325 389 336 b 278 458 389 410 340 458 b 246 454 267 458 256 457 b 250 486 249 464 250 475 b 246 518 250 497 249 508 b 278 514 256 515 267 514 b 347 538 304 514 328 522 z "},"Ş":{"ha":556,"x_min":0,"x_max":0,"o":"m 417 319 b 385 315 406 319 394 318 b 389 347 388 325 389 336 b 278 458 389 410 340 458 b 246 454 267 458 256 457 b 250 486 249 464 250 475 b 246 518 250 497 249 508 b 278 514 256 515 267 514 b 347 538 304 514 328 522 b 417 514 367 522 390 514 b 528 625 479 514 528 563 b 417 736 528 688 479 736 b 347 713 390 736 367 728 b 278 736 328 728 304 736 b 167 625 215 736 167 688 b 171 593 167 614 168 603 b 139 597 161 596 150 597 b 28 486 76 597 28 549 b 139 375 28 424 76 375 b 171 379 150 375 161 376 b 167 347 168 369 167 358 b 278 236 167 285 215 236 b 310 240 289 236 300 238 b 306 208 307 231 306 219 b 310 176 306 197 307 186 b 278 181 300 179 289 181 b 208 157 251 181 228 172 b 139 181 189 172 165 181 b 28 69 76 181 28 132 b 139 -42 28 7 76 -42 b 171 -37 150 -42 161 -40 b 167 -69 168 -47 167 -58 b 171 -101 167 -81 168 -92 b 139 -97 161 -99 150 -97 b 28 -208 76 -97 28 -146 b 139 -319 28 -271 76 -319 b 208 -296 165 -319 189 -311 b 278 -319 228 -311 251 -319 b 389 -208 340 -319 389 -271 b 365 -139 389 -182 381 -158 b 389 -69 381 -119 389 -96 b 365 0 389 -43 381 -19 b 389 69 381 19 389 43 b 385 101 389 81 388 92 b 417 97 394 99 406 97 b 528 208 479 97 528 146 b 417 319 528 271 479 319 z "},"Ș":{"ha":556,"x_min":0,"x_max":0,"o":"m 417 319 b 385 315 406 319 394 318 b 389 347 388 325 389 336 b 278 458 389 410 340 458 b 246 454 267 458 256 457 b 250 486 249 464 250 475 b 246 518 250 497 249 508 b 278 514 256 515 267 514 b 347 538 304 514 328 522 b 417 514 367 522 390 514 b 528 625 479 514 528 563 b 417 736 528 688 479 736 b 347 713 390 736 367 728 b 278 736 328 728 304 736 b 167 625 215 736 167 688 b 171 593 167 614 168 603 b 139 597 161 596 150 597 b 28 486 76 597 28 549 b 139 375 28 424 76 375 b 171 379 150 375 161 376 b 167 347 168 369 167 358 b 278 236 167 285 215 236 b 310 240 289 236 300 238 b 306 208 307 231 306 219 b 310 176 306 197 307 186 b 278 181 300 179 289 181 b 208 157 251 181 228 172 b 139 181 189 172 165 181 b 28 69 76 181 28 132 b 139 -42 28 7 76 -42 b 208 -18 165 -42 189 -33 b 278 -42 228 -33 251 -42 b 389 69 340 -42 389 7 b 385 101 389 81 388 92 b 417 97 394 99 406 97 b 528 208 479 97 528 146 b 417 319 528 271 479 319 z m 278 -97 b 208 -121 251 -97 228 -106 b 139 -97 189 -106 165 -97 b 28 -208 76 -97 28 -146 b 139 -319 28 -271 76 -319 b 171 -315 150 -319 161 -318 b 167 -347 168 -325 167 -336 b 171 -379 167 -358 168 -369 b 139 -375 161 -376 150 -375 b 28 -486 76 -375 28 -424 b 139 -597 28 -549 76 -597 b 250 -486 201 -597 250 -549 b 246 -454 250 -475 249 -464 b 278 -458 256 -457 267 -458 b 389 -347 340 -458 389 -410 b 365 -278 389 -321 381 -297 b 389 -208 381 -258 389 -235 b 278 -97 389 -146 340 -97 z "},"ẞ":{"ha":694,"x_min":0,"x_max":0,"o":"m 667 486 b 643 556 667 513 658 536 b 667 625 658 575 667 599 b 556 736 667 688 618 736 b 486 713 529 736 506 728 b 417 736 467 728 443 736 b 347 713 390 736 367 728 b 278 736 328 728 304 736 b 167 625 215 736 167 688 b 171 593 167 614 168 603 b 139 597 161 596 150 597 b 28 486 76 597 28 549 b 51 417 28 460 36 436 b 28 347 36 397 28 374 b 51 278 28 321 36 297 b 28 208 36 258 28 235 b 51 139 28 182 36 158 b 28 69 36 119 28 96 b 139 -42 28 7 76 -42 b 250 69 201 -42 250 7 b 226 139 250 96 242 119 b 250 208 242 158 250 182 b 226 278 250 235 242 258 b 250 347 242 297 250 321 b 226 417 250 374 242 397 b 250 486 242 436 250 460 b 246 518 250 497 249 508 b 278 514 256 515 267 514 b 347 538 304 514 328 522 b 417 514 367 522 390 514 b 449 518 428 514 439 515 b 444 486 446 508 444 497 b 449 454 444 475 446 464 b 417 458 439 457 428 458 b 306 347 354 458 306 410 b 417 236 306 285 354 236 b 449 240 428 236 439 238 b 444 208 446 231 444 219 b 449 176 444 197 446 186 b 417 181 439 179 428 181 b 306 69 354 181 306 132 b 417 -42 306 7 354 -42 b 528 69 479 -42 528 7 b 524 101 528 81 526 92 b 556 97 533 99 544 97 b 667 208 618 97 667 146 b 556 319 667 271 618 319 b 524 315 544 319 533 318 b 528 347 526 325 528 336 b 524 379 528 358 526 369 b 556 375 533 376 544 375 b 667 486 618 375 667 424 z "},"T":{"ha":556,"x_min":0,"x_max":0,"o":"m 417 736 b 347 713 390 736 367 728 b 278 736 328 728 304 736 b 208 713 251 736 228 728 b 139 736 189 728 165 736 b 28 625 76 736 28 688 b 139 514 28 563 76 514 b 171 518 150 514 161 515 b 167 486 168 508 167 497 b 190 417 167 460 175 436 b 167 347 175 397 167 374 b 190 278 167 321 175 297 b 167 208 175 258 167 235 b 190 139 167 182 175 158 b 167 69 175 119 167 96 b 278 -42 167 7 215 -42 b 389 69 340 -42 389 7 b 365 139 389 96 381 119 b 389 208 381 158 389 182 b 365 278 389 235 381 258 b 389 347 381 297 389 321 b 365 417 389 374 381 397 b 389 486 381 436 389 460 b 385 518 389 497 388 508 b 417 514 394 515 406 514 b 528 625 479 514 528 563 b 417 736 528 688 479 736 z "},"Ŧ":{"ha":556,"x_min":0,"x_max":0,"o":"m 417 458 b 385 454 406 458 394 457 b 389 486 388 464 389 475 b 385 518 389 497 388 508 b 417 514 394 515 406 514 b 528 625 479 514 528 563 b 417 736 528 688 479 736 b 347 713 390 736 367 728 b 278 736 328 728 304 736 b 208 713 251 736 228 728 b 139 736 189 728 165 736 b 28 625 76 736 28 688 b 139 514 28 563 76 514 b 171 518 150 514 161 515 b 167 486 168 508 167 497 b 171 454 167 475 168 464 b 139 458 161 457 150 458 b 28 347 76 458 28 410 b 139 236 28 285 76 236 b 171 240 150 236 161 238 b 167 208 168 231 167 219 b 190 139 167 182 175 158 b 167 69 175 119 167 96 b 278 -42 167 7 215 -42 b 389 69 340 -42 389 7 b 365 139 389 96 381 119 b 389 208 381 158 389 182 b 385 240 389 219 388 231 b 417 236 394 238 406 236 b 528 347 479 236 528 285 b 417 458 528 410 479 458 z "},"Ť":{"ha":556,"x_min":0,"x_max":0,"o":"m 139 931 b 171 935 150 931 161 932 b 167 903 168 925 167 914 b 278 792 167 840 215 792 b 389 903 340 792 389 840 b 385 935 389 914 388 925 b 417 931 394 932 406 931 b 528 1042 479 931 528 979 b 417 1153 528 1104 479 1153 b 306 1042 354 1153 306 1104 b 310 1010 306 1031 307 1019 b 278 1014 300 1013 289 1014 b 246 1010 267 1014 256 1013 b 250 1042 249 1019 250 1031 b 139 1153 250 1104 201 1153 b 28 1042 76 1153 28 1104 b 139 931 28 979 76 931 z m 417 736 b 347 713 390 736 367 728 b 278 736 328 728 304 736 b 208 713 251 736 228 728 b 139 736 189 728 165 736 b 28 625 76 736 28 688 b 139 514 28 563 76 514 b 171 518 150 514 161 515 b 167 486 168 508 167 497 b 190 417 167 460 175 436 b 167 347 175 397 167 374 b 190 278 167 321 175 297 b 167 208 175 258 167 235 b 190 139 167 182 175 158 b 167 69 175 119 167 96 b 278 -42 167 7 215 -42 b 389 69 340 -42 389 7 b 365 139 389 96 381 119 b 389 208 381 158 389 182 b 365 278 389 235 381 258 b 389 347 381 297 389 321 b 365 417 389 374 381 397 b 389 486 381 436 389 460 b 385 518 389 497 388 508 b 417 514 394 515 406 514 b 528 625 479 514 528 563 b 417 736 528 688 479 736 z "},"Ţ":{"ha":556,"x_min":0,"x_max":0,"o":"m 417 42 b 385 38 406 42 394 40 b 389 69 388 47 389 58 b 365 139 389 96 381 119 b 389 208 381 158 389 182 b 365 278 389 235 381 258 b 389 347 381 297 389 321 b 365 417 389 374 381 397 b 389 486 381 436 389 460 b 385 518 389 497 388 508 b 417 514 394 515 406 514 b 528 625 479 514 528 563 b 417 736 528 688 479 736 b 347 713 390 736 367 728 b 278 736 328 728 304 736 b 208 713 251 736 228 728 b 139 736 189 728 165 736 b 28 625 76 736 28 688 b 139 514 28 563 76 514 b 171 518 150 514 161 515 b 167 486 168 508 167 497 b 190 417 167 460 175 436 b 167 347 175 397 167 374 b 190 278 167 321 175 297 b 167 208 175 258 167 235 b 190 139 167 182 175 158 b 167 69 175 119 167 96 b 278 -42 167 7 215 -42 b 310 -37 289 -42 300 -40 b 306 -69 307 -47 306 -58 b 310 -101 306 -81 307 -92 b 278 -97 300 -99 289 -97 b 167 -208 215 -97 167 -146 b 278 -319 167 -271 215 -319 b 347 -296 304 -319 328 -311 b 417 -319 367 -311 390 -319 b 528 -208 479 -319 528 -271 b 504 -139 528 -182 519 -158 b 528 -69 519 -119 528 -96 b 417 42 528 -7 479 42 z "},"Ț":{"ha":556,"x_min":0,"x_max":0,"o":"m 417 736 b 347 713 390 736 367 728 b 278 736 328 728 304 736 b 208 713 251 736 228 728 b 139 736 189 728 165 736 b 28 625 76 736 28 688 b 139 514 28 563 76 514 b 171 518 150 514 161 515 b 167 486 168 508 167 497 b 190 417 167 460 175 436 b 167 347 175 397 167 374 b 190 278 167 321 175 297 b 167 208 175 258 167 235 b 190 139 167 182 175 158 b 167 69 175 119 167 96 b 278 -42 167 7 215 -42 b 389 69 340 -42 389 7 b 365 139 389 96 381 119 b 389 208 381 158 389 182 b 365 278 389 235 381 258 b 389 347 381 297 389 321 b 365 417 389 374 381 397 b 389 486 381 436 389 460 b 385 518 389 497 388 508 b 417 514 394 515 406 514 b 528 625 479 514 528 563 b 417 736 528 688 479 736 z m 278 -97 b 208 -121 251 -97 228 -106 b 139 -97 189 -106 165 -97 b 28 -208 76 -97 28 -146 b 139 -319 28 -271 76 -319 b 171 -315 150 -319 161 -318 b 167 -347 168 -325 167 -336 b 171 -379 167 -358 168 -369 b 139 -375 161 -376 150 -375 b 28 -486 76 -375 28 -424 b 139 -597 28 -549 76 -597 b 250 -486 201 -597 250 -549 b 246 -454 250 -475 249 -464 b 278 -458 256 -457 267 -458 b 389 -347 340 -458 389 -410 b 365 -278 389 -321 381 -297 b 389 -208 381 -258 389 -235 b 278 -97 389 -146 340 -97 z "},"U":{"ha":556,"x_min":0,"x_max":0,"o":"m 504 556 b 528 625 519 575 528 599 b 417 736 528 688 479 736 b 306 625 354 736 306 688 b 329 556 306 599 314 575 b 306 486 314 536 306 513 b 329 417 306 460 314 436 b 306 347 314 397 306 374 b 329 278 306 321 314 297 b 306 208 314 258 306 235 b 310 176 306 197 307 186 b 278 181 300 179 289 181 b 246 176 267 181 256 179 b 250 208 249 186 250 197 b 226 278 250 235 242 258 b 250 347 242 297 250 321 b 226 417 250 374 242 397 b 250 486 242 436 250 460 b 226 556 250 513 242 536 b 250 625 242 575 250 599 b 139 736 250 688 201 736 b 28 625 76 736 28 688 b 51 556 28 599 36 575 b 28 486 36 536 28 513 b 51 417 28 460 36 436 b 28 347 36 397 28 374 b 51 278 28 321 36 297 b 28 208 36 258 28 235 b 139 97 28 146 76 97 b 171 101 150 97 161 99 b 167 69 168 92 167 81 b 278 -42 167 7 215 -42 b 347 -18 304 -42 328 -33 b 417 -42 367 -33 390 -42 b 528 69 479 -42 528 7 b 504 139 528 96 519 119 b 528 208 519 158 528 182 b 504 278 528 235 519 258 b 528 347 519 297 528 321 b 504 417 528 374 519 397 b 528 486 519 436 528 460 b 504 556 528 513 519 536 z "},"Ú":{"ha":556,"x_min":0,"x_max":0,"o":"m 278 792 b 389 903 340 792 389 840 b 385 935 389 914 388 925 b 417 931 394 932 406 931 b 528 1042 479 931 528 979 b 417 1153 528 1104 479 1153 b 306 1042 354 1153 306 1104 b 310 1010 306 1031 307 1019 b 278 1014 300 1013 289 1014 b 167 903 215 1014 167 965 b 278 792 167 840 215 792 z m 417 736 b 306 625 354 736 306 688 b 329 556 306 599 314 575 b 306 486 314 536 306 513 b 329 417 306 460 314 436 b 306 347 314 397 306 374 b 329 278 306 321 314 297 b 306 208 314 258 306 235 b 310 176 306 197 307 186 b 278 181 300 179 289 181 b 246 176 267 181 256 179 b 250 208 249 186 250 197 b 226 278 250 235 242 258 b 250 347 242 297 250 321 b 226 417 250 374 242 397 b 250 486 242 436 250 460 b 226 556 250 513 242 536 b 250 625 242 575 250 599 b 139 736 250 688 201 736 b 28 625 76 736 28 688 b 51 556 28 599 36 575 b 28 486 36 536 28 513 b 51 417 28 460 36 436 b 28 347 36 397 28 374 b 51 278 28 321 36 297 b 28 208 36 258 28 235 b 139 97 28 146 76 97 b 171 101 150 97 161 99 b 167 69 168 92 167 81 b 278 -42 167 7 215 -42 b 347 -18 304 -42 328 -33 b 417 -42 367 -33 390 -42 b 528 69 479 -42 528 7 b 504 139 528 96 519 119 b 528 208 519 158 528 182 b 504 278 528 235 519 258 b 528 347 519 297 528 321 b 504 417 528 374 519 397 b 528 486 519 436 528 460 b 504 556 528 513 519 536 b 528 625 519 575 528 599 b 417 736 528 688 479 736 z "},"Û":{"ha":556,"x_min":0,"x_max":0,"o":"m 139 792 b 250 903 201 792 250 840 b 246 935 250 914 249 925 b 278 931 256 932 267 931 b 310 935 289 931 300 932 b 306 903 307 925 306 914 b 417 792 306 840 354 792 b 528 903 479 792 528 840 b 417 1014 528 965 479 1014 b 385 1010 406 1014 394 1013 b 389 1042 388 1019 389 1031 b 278 1153 389 1104 340 1153 b 167 1042 215 1153 167 1104 b 171 1010 167 1031 168 1019 b 139 1014 161 1013 150 1014 b 28 903 76 1014 28 965 b 139 792 28 840 76 792 z m 417 736 b 306 625 354 736 306 688 b 329 556 306 599 314 575 b 306 486 314 536 306 513 b 329 417 306 460 314 436 b 306 347 314 397 306 374 b 329 278 306 321 314 297 b 306 208 314 258 306 235 b 310 176 306 197 307 186 b 278 181 300 179 289 181 b 246 176 267 181 256 179 b 250 208 249 186 250 197 b 226 278 250 235 242 258 b 250 347 242 297 250 321 b 226 417 250 374 242 397 b 250 486 242 436 250 460 b 226 556 250 513 242 536 b 250 625 242 575 250 599 b 139 736 250 688 201 736 b 28 625 76 736 28 688 b 51 556 28 599 36 575 b 28 486 36 536 28 513 b 51 417 28 460 36 436 b 28 347 36 397 28 374 b 51 278 28 321 36 297 b 28 208 36 258 28 235 b 139 97 28 146 76 97 b 171 101 150 97 161 99 b 167 69 168 92 167 81 b 278 -42 167 7 215 -42 b 347 -18 304 -42 328 -33 b 417 -42 367 -33 390 -42 b 528 69 479 -42 528 7 b 504 139 528 96 519 119 b 528 208 519 158 528 182 b 504 278 528 235 519 258 b 528 347 519 297 528 321 b 504 417 528 374 519 397 b 528 486 519 436 528 460 b 504 556 528 513 519 536 b 528 625 519 575 528 599 b 417 736 528 688 479 736 z "},"Ü":{"ha":556,"x_min":0,"x_max":0,"o":"m 139 792 b 250 903 201 792 250 840 b 139 1014 250 965 201 1014 b 28 903 76 1014 28 965 b 139 792 28 840 76 792 z m 417 792 b 528 903 479 792 528 840 b 417 1014 528 965 479 1014 b 306 903 354 1014 306 965 b 417 792 306 840 354 792 z m 417 736 b 306 625 354 736 306 688 b 329 556 306 599 314 575 b 306 486 314 536 306 513 b 329 417 306 460 314 436 b 306 347 314 397 306 374 b 329 278 306 321 314 297 b 306 208 314 258 306 235 b 310 176 306 197 307 186 b 278 181 300 179 289 181 b 246 176 267 181 256 179 b 250 208 249 186 250 197 b 226 278 250 235 242 258 b 250 347 242 297 250 321 b 226 417 250 374 242 397 b 250 486 242 436 250 460 b 226 556 250 513 242 536 b 250 625 242 575 250 599 b 139 736 250 688 201 736 b 28 625 76 736 28 688 b 51 556 28 599 36 575 b 28 486 36 536 28 513 b 51 417 28 460 36 436 b 28 347 36 397 28 374 b 51 278 28 321 36 297 b 28 208 36 258 28 235 b 139 97 28 146 76 97 b 171 101 150 97 161 99 b 167 69 168 92 167 81 b 278 -42 167 7 215 -42 b 347 -18 304 -42 328 -33 b 417 -42 367 -33 390 -42 b 528 69 479 -42 528 7 b 504 139 528 96 519 119 b 528 208 519 158 528 182 b 504 278 528 235 519 258 b 528 347 519 297 528 321 b 504 417 528 374 519 397 b 528 486 519 436 528 460 b 504 556 528 513 519 536 b 528 625 519 575 528 599 b 417 736 528 688 479 736 z "},"Ù":{"ha":556,"x_min":0,"x_max":0,"o":"m 139 931 b 171 935 150 931 161 932 b 167 903 168 925 167 914 b 278 792 167 840 215 792 b 389 903 340 792 389 840 b 278 1014 389 965 340 1014 b 246 1010 267 1014 256 1013 b 250 1042 249 1019 250 1031 b 139 1153 250 1104 201 1153 b 28 1042 76 1153 28 1104 b 139 931 28 979 76 931 z m 504 556 b 528 625 519 575 528 599 b 417 736 528 688 479 736 b 306 625 354 736 306 688 b 329 556 306 599 314 575 b 306 486 314 536 306 513 b 329 417 306 460 314 436 b 306 347 314 397 306 374 b 329 278 306 321 314 297 b 306 208 314 258 306 235 b 310 176 306 197 307 186 b 278 181 300 179 289 181 b 246 176 267 181 256 179 b 250 208 249 186 250 197 b 226 278 250 235 242 258 b 250 347 242 297 250 321 b 226 417 250 374 242 397 b 250 486 242 436 250 460 b 226 556 250 513 242 536 b 250 625 242 575 250 599 b 139 736 250 688 201 736 b 28 625 76 736 28 688 b 51 556 28 599 36 575 b 28 486 36 536 28 513 b 51 417 28 460 36 436 b 28 347 36 397 28 374 b 51 278 28 321 36 297 b 28 208 36 258 28 235 b 139 97 28 146 76 97 b 171 101 150 97 161 99 b 167 69 168 92 167 81 b 278 -42 167 7 215 -42 b 347 -18 304 -42 328 -33 b 417 -42 367 -33 390 -42 b 528 69 479 -42 528 7 b 504 139 528 96 519 119 b 528 208 519 158 528 182 b 504 278 528 235 519 258 b 528 347 519 297 528 321 b 504 417 528 374 519 397 b 528 486 519 436 528 460 b 504 556 528 513 519 536 z "},"Ű":{"ha":556,"x_min":0,"x_max":0,"o":"m 556 1153 b 444 1042 493 1153 444 1104 b 449 1010 444 1031 446 1019 b 417 1014 439 1013 428 1014 b 385 1010 406 1014 394 1013 b 389 1042 388 1019 389 1031 b 278 1153 389 1104 340 1153 b 167 1042 215 1153 167 1104 b 171 1010 167 1031 168 1019 b 139 1014 161 1013 150 1014 b 28 903 76 1014 28 965 b 139 792 28 840 76 792 b 250 903 201 792 250 840 b 246 935 250 914 249 925 b 278 931 256 932 267 931 b 310 935 289 931 300 932 b 306 903 307 925 306 914 b 417 792 306 840 354 792 b 528 903 479 792 528 840 b 524 935 528 914 526 925 b 556 931 533 932 544 931 b 667 1042 618 931 667 979 b 556 1153 667 1104 618 1153 z m 417 736 b 306 625 354 736 306 688 b 329 556 306 599 314 575 b 306 486 314 536 306 513 b 329 417 306 460 314 436 b 306 347 314 397 306 374 b 329 278 306 321 314 297 b 306 208 314 258 306 235 b 310 176 306 197 307 186 b 278 181 300 179 289 181 b 246 176 267 181 256 179 b 250 208 249 186 250 197 b 226 278 250 235 242 258 b 250 347 242 297 250 321 b 226 417 250 374 242 397 b 250 486 242 436 250 460 b 226 556 250 513 242 536 b 250 625 242 575 250 599 b 139 736 250 688 201 736 b 28 625 76 736 28 688 b 51 556 28 599 36 575 b 28 486 36 536 28 513 b 51 417 28 460 36 436 b 28 347 36 397 28 374 b 51 278 28 321 36 297 b 28 208 36 258 28 235 b 139 97 28 146 76 97 b 171 101 150 97 161 99 b 167 69 168 92 167 81 b 278 -42 167 7 215 -42 b 347 -18 304 -42 328 -33 b 417 -42 367 -33 390 -42 b 528 69 479 -42 528 7 b 504 139 528 96 519 119 b 528 208 519 158 528 182 b 504 278 528 235 519 258 b 528 347 519 297 528 321 b 504 417 528 374 519 397 b 528 486 519 436 528 460 b 504 556 528 513 519 536 b 528 625 519 575 528 599 b 417 736 528 688 479 736 z "},"Ū":{"ha":556,"x_min":0,"x_max":0,"o":"m 139 792 b 208 815 165 792 189 800 b 278 792 228 800 251 792 b 347 815 304 792 328 800 b 417 792 367 800 390 792 b 528 903 479 792 528 840 b 417 1014 528 965 479 1014 b 347 990 390 1014 367 1006 b 278 1014 328 1006 304 1014 b 208 990 251 1014 228 1006 b 139 1014 189 1006 165 1014 b 28 903 76 1014 28 965 b 139 792 28 840 76 792 z m 417 736 b 306 625 354 736 306 688 b 329 556 306 599 314 575 b 306 486 314 536 306 513 b 329 417 306 460 314 436 b 306 347 314 397 306 374 b 329 278 306 321 314 297 b 306 208 314 258 306 235 b 310 176 306 197 307 186 b 278 181 300 179 289 181 b 246 176 267 181 256 179 b 250 208 249 186 250 197 b 226 278 250 235 242 258 b 250 347 242 297 250 321 b 226 417 250 374 242 397 b 250 486 242 436 250 460 b 226 556 250 513 242 536 b 250 625 242 575 250 599 b 139 736 250 688 201 736 b 28 625 76 736 28 688 b 51 556 28 599 36 575 b 28 486 36 536 28 513 b 51 417 28 460 36 436 b 28 347 36 397 28 374 b 51 278 28 321 36 297 b 28 208 36 258 28 235 b 139 97 28 146 76 97 b 171 101 150 97 161 99 b 167 69 168 92 167 81 b 278 -42 167 7 215 -42 b 347 -18 304 -42 328 -33 b 417 -42 367 -33 390 -42 b 528 69 479 -42 528 7 b 504 139 528 96 519 119 b 528 208 519 158 528 182 b 504 278 528 235 519 258 b 528 347 519 297 528 321 b 504 417 528 374 519 397 b 528 486 519 436 528 460 b 504 556 528 513 519 536 b 528 625 519 575 528 599 b 417 736 528 688 479 736 z "},"Ų":{"ha":556,"x_min":0,"x_max":0,"o":"m 504 556 b 528 625 519 575 528 599 b 417 736 528 688 479 736 b 306 625 354 736 306 688 b 329 556 306 599 314 575 b 306 486 314 536 306 513 b 329 417 306 460 314 436 b 306 347 314 397 306 374 b 329 278 306 321 314 297 b 306 208 314 258 306 235 b 310 176 306 197 307 186 b 278 181 300 179 289 181 b 246 176 267 181 256 179 b 250 208 249 186 250 197 b 226 278 250 235 242 258 b 250 347 242 297 250 321 b 226 417 250 374 242 397 b 250 486 242 436 250 460 b 226 556 250 513 242 536 b 250 625 242 575 250 599 b 139 736 250 688 201 736 b 28 625 76 736 28 688 b 51 556 28 599 36 575 b 28 486 36 536 28 513 b 51 417 28 460 36 436 b 28 347 36 397 28 374 b 51 278 28 321 36 297 b 28 208 36 258 28 235 b 139 97 28 146 76 97 b 171 101 150 97 161 99 b 167 69 168 92 167 81 b 190 0 167 43 175 19 b 167 -69 175 -19 167 -43 b 190 -139 167 -96 175 -119 b 167 -208 175 -158 167 -182 b 278 -319 167 -271 215 -319 b 347 -296 304 -319 328 -311 b 417 -319 367 -311 390 -319 b 528 -208 479 -319 528 -271 b 417 -97 528 -146 479 -97 b 385 -101 406 -97 394 -99 b 389 -69 388 -92 389 -81 b 385 -37 389 -58 388 -47 b 417 -42 394 -40 406 -42 b 528 69 479 -42 528 7 b 504 139 528 96 519 119 b 528 208 519 158 528 182 b 504 278 528 235 519 258 b 528 347 519 297 528 321 b 504 417 528 374 519 397 b 528 486 519 436 528 460 b 504 556 528 513 519 536 z "},"Ů":{"ha":556,"x_min":0,"x_max":0,"o":"m 417 736 b 385 732 406 736 394 735 b 389 764 388 742 389 753 b 385 796 389 775 388 786 b 417 792 394 793 406 792 b 528 903 479 792 528 840 b 417 1014 528 965 479 1014 b 385 1010 406 1014 394 1013 b 389 1042 388 1019 389 1031 b 278 1153 389 1104 340 1153 b 167 1042 215 1153 167 1104 b 171 1010 167 1031 168 1019 b 139 1014 161 1013 150 1014 b 28 903 76 1014 28 965 b 139 792 28 840 76 792 b 171 796 150 792 161 793 b 167 764 168 786 167 775 b 171 732 167 753 168 742 b 139 736 161 735 150 736 b 28 625 76 736 28 688 b 51 556 28 599 36 575 b 28 486 36 536 28 513 b 51 417 28 460 36 436 b 28 347 36 397 28 374 b 51 278 28 321 36 297 b 28 208 36 258 28 235 b 139 97 28 146 76 97 b 171 101 150 97 161 99 b 167 69 168 92 167 81 b 278 -42 167 7 215 -42 b 347 -18 304 -42 328 -33 b 417 -42 367 -33 390 -42 b 528 69 479 -42 528 7 b 504 139 528 96 519 119 b 528 208 519 158 528 182 b 504 278 528 235 519 258 b 528 347 519 297 528 321 b 504 417 528 374 519 397 b 528 486 519 436 528 460 b 504 556 528 513 519 536 b 528 625 519 575 528 599 b 417 736 528 688 479 736 z m 310 935 b 306 903 307 925 306 914 b 310 871 306 892 307 881 b 278 875 300 874 289 875 b 246 871 267 875 256 874 b 250 903 249 881 250 892 b 246 935 250 914 249 925 b 278 931 256 932 267 931 b 310 935 289 931 300 932 z m 246 176 b 250 208 249 186 250 197 b 226 278 250 235 242 258 b 250 347 242 297 250 321 b 226 417 250 374 242 397 b 250 486 242 436 250 460 b 226 556 250 513 242 536 b 250 625 242 575 250 599 b 246 657 250 636 249 647 b 278 653 256 654 267 653 b 310 657 289 653 300 654 b 306 625 307 647 306 636 b 329 556 306 599 314 575 b 306 486 314 536 306 513 b 329 417 306 460 314 436 b 306 347 314 397 306 374 b 329 278 306 321 314 297 b 306 208 314 258 306 235 b 310 176 306 197 307 186 b 278 181 300 179 289 181 b 246 176 267 181 256 179 z "},"V":{"ha":556,"x_min":0,"x_max":0,"o":"m 504 556 b 528 625 519 575 528 599 b 417 736 528 688 479 736 b 306 625 354 736 306 688 b 329 556 306 599 314 575 b 306 486 314 536 306 513 b 329 417 306 460 314 436 b 306 347 314 397 306 374 b 329 278 306 321 314 297 b 306 208 314 258 306 235 b 310 176 306 197 307 186 b 278 181 300 179 289 181 b 246 176 267 181 256 179 b 250 208 249 186 250 197 b 226 278 250 235 242 258 b 250 347 242 297 250 321 b 226 417 250 374 242 397 b 250 486 242 436 250 460 b 226 556 250 513 242 536 b 250 625 242 575 250 599 b 139 736 250 688 201 736 b 28 625 76 736 28 688 b 51 556 28 599 36 575 b 28 486 36 536 28 513 b 51 417 28 460 36 436 b 28 347 36 397 28 374 b 51 278 28 321 36 297 b 28 208 36 258 28 235 b 139 97 28 146 76 97 b 171 101 150 97 161 99 b 167 69 168 92 167 81 b 278 -42 167 7 215 -42 b 389 69 340 -42 389 7 b 385 101 389 81 388 92 b 417 97 394 99 406 97 b 528 208 479 97 528 146 b 504 278 528 235 519 258 b 528 347 519 297 528 321 b 504 417 528 374 519 397 b 528 486 519 436 528 460 b 504 556 528 513 519 536 z "},"W":{"ha":833,"x_min":0,"x_max":0,"o":"m 782 556 b 806 625 797 575 806 599 b 694 736 806 688 757 736 b 583 625 632 736 583 688 b 607 556 583 599 592 575 b 583 486 592 536 583 513 b 607 417 583 460 592 436 b 583 347 592 397 583 374 b 607 278 583 321 592 297 b 583 208 592 258 583 235 b 588 176 583 197 585 186 b 556 181 578 179 567 181 b 524 176 544 181 533 179 b 528 208 526 186 528 197 b 504 278 528 235 519 258 b 528 347 519 297 528 321 b 504 417 528 374 519 397 b 528 486 519 436 528 460 b 504 556 528 513 519 536 b 528 625 519 575 528 599 b 417 736 528 688 479 736 b 306 625 354 736 306 688 b 329 556 306 599 314 575 b 306 486 314 536 306 513 b 329 417 306 460 314 436 b 306 347 314 397 306 374 b 329 278 306 321 314 297 b 306 208 314 258 306 235 b 310 176 306 197 307 186 b 278 181 300 179 289 181 b 246 176 267 181 256 179 b 250 208 249 186 250 197 b 226 278 250 235 242 258 b 250 347 242 297 250 321 b 226 417 250 374 242 397 b 250 486 242 436 250 460 b 226 556 250 513 242 536 b 250 625 242 575 250 599 b 139 736 250 688 201 736 b 28 625 76 736 28 688 b 51 556 28 599 36 575 b 28 486 36 536 28 513 b 51 417 28 460 36 436 b 28 347 36 397 28 374 b 51 278 28 321 36 297 b 28 208 36 258 28 235 b 139 97 28 146 76 97 b 171 101 150 97 161 99 b 167 69 168 92 167 81 b 278 -42 167 7 215 -42 b 389 69 340 -42 389 7 b 385 101 389 81 388 92 b 417 97 394 99 406 97 b 449 101 428 97 439 99 b 444 69 446 92 444 81 b 556 -42 444 7 493 -42 b 667 69 618 -42 667 7 b 663 101 667 81 665 92 b 694 97 672 99 683 97 b 806 208 757 97 806 146 b 782 278 806 235 797 258 b 806 347 797 297 806 321 b 782 417 806 374 797 397 b 806 486 797 436 806 460 b 782 556 806 513 797 536 z "},"Ẃ":{"ha":833,"x_min":0,"x_max":0,"o":"m 417 792 b 528 903 479 792 528 840 b 524 935 528 914 526 925 b 556 931 533 932 544 931 b 667 1042 618 931 667 979 b 556 1153 667 1104 618 1153 b 444 1042 493 1153 444 1104 b 449 1010 444 1031 446 1019 b 417 1014 439 1013 428 1014 b 306 903 354 1014 306 965 b 417 792 306 840 354 792 z m 782 556 b 806 625 797 575 806 599 b 694 736 806 688 757 736 b 583 625 632 736 583 688 b 607 556 583 599 592 575 b 583 486 592 536 583 513 b 607 417 583 460 592 436 b 583 347 592 397 583 374 b 607 278 583 321 592 297 b 583 208 592 258 583 235 b 588 176 583 197 585 186 b 556 181 578 179 567 181 b 524 176 544 181 533 179 b 528 208 526 186 528 197 b 504 278 528 235 519 258 b 528 347 519 297 528 321 b 504 417 528 374 519 397 b 528 486 519 436 528 460 b 504 556 528 513 519 536 b 528 625 519 575 528 599 b 417 736 528 688 479 736 b 306 625 354 736 306 688 b 329 556 306 599 314 575 b 306 486 314 536 306 513 b 329 417 306 460 314 436 b 306 347 314 397 306 374 b 329 278 306 321 314 297 b 306 208 314 258 306 235 b 310 176 306 197 307 186 b 278 181 300 179 289 181 b 246 176 267 181 256 179 b 250 208 249 186 250 197 b 226 278 250 235 242 258 b 250 347 242 297 250 321 b 226 417 250 374 242 397 b 250 486 242 436 250 460 b 226 556 250 513 242 536 b 250 625 242 575 250 599 b 139 736 250 688 201 736 b 28 625 76 736 28 688 b 51 556 28 599 36 575 b 28 486 36 536 28 513 b 51 417 28 460 36 436 b 28 347 36 397 28 374 b 51 278 28 321 36 297 b 28 208 36 258 28 235 b 139 97 28 146 76 97 b 171 101 150 97 161 99 b 167 69 168 92 167 81 b 278 -42 167 7 215 -42 b 389 69 340 -42 389 7 b 385 101 389 81 388 92 b 417 97 394 99 406 97 b 449 101 428 97 439 99 b 444 69 446 92 444 81 b 556 -42 444 7 493 -42 b 667 69 618 -42 667 7 b 663 101 667 81 665 92 b 694 97 672 99 683 97 b 806 208 757 97 806 146 b 782 278 806 235 797 258 b 806 347 797 297 806 321 b 782 417 806 374 797 397 b 806 486 797 436 806 460 b 782 556 806 513 797 536 z "},"Ŵ":{"ha":833,"x_min":0,"x_max":0,"o":"m 278 792 b 389 903 340 792 389 840 b 385 935 389 914 388 925 b 417 931 394 932 406 931 b 449 935 428 931 439 932 b 444 903 446 925 444 914 b 556 792 444 840 493 792 b 667 903 618 792 667 840 b 556 1014 667 965 618 1014 b 524 1010 544 1014 533 1013 b 528 1042 526 1019 528 1031 b 417 1153 528 1104 479 1153 b 306 1042 354 1153 306 1104 b 310 1010 306 1031 307 1019 b 278 1014 300 1013 289 1014 b 167 903 215 1014 167 965 b 278 792 167 840 215 792 z m 782 556 b 806 625 797 575 806 599 b 694 736 806 688 757 736 b 583 625 632 736 583 688 b 607 556 583 599 592 575 b 583 486 592 536 583 513 b 607 417 583 460 592 436 b 583 347 592 397 583 374 b 607 278 583 321 592 297 b 583 208 592 258 583 235 b 588 176 583 197 585 186 b 556 181 578 179 567 181 b 524 176 544 181 533 179 b 528 208 526 186 528 197 b 504 278 528 235 519 258 b 528 347 519 297 528 321 b 504 417 528 374 519 397 b 528 486 519 436 528 460 b 504 556 528 513 519 536 b 528 625 519 575 528 599 b 417 736 528 688 479 736 b 306 625 354 736 306 688 b 329 556 306 599 314 575 b 306 486 314 536 306 513 b 329 417 306 460 314 436 b 306 347 314 397 306 374 b 329 278 306 321 314 297 b 306 208 314 258 306 235 b 310 176 306 197 307 186 b 278 181 300 179 289 181 b 246 176 267 181 256 179 b 250 208 249 186 250 197 b 226 278 250 235 242 258 b 250 347 242 297 250 321 b 226 417 250 374 242 397 b 250 486 242 436 250 460 b 226 556 250 513 242 536 b 250 625 242 575 250 599 b 139 736 250 688 201 736 b 28 625 76 736 28 688 b 51 556 28 599 36 575 b 28 486 36 536 28 513 b 51 417 28 460 36 436 b 28 347 36 397 28 374 b 51 278 28 321 36 297 b 28 208 36 258 28 235 b 139 97 28 146 76 97 b 171 101 150 97 161 99 b 167 69 168 92 167 81 b 278 -42 167 7 215 -42 b 389 69 340 -42 389 7 b 385 101 389 81 388 92 b 417 97 394 99 406 97 b 449 101 428 97 439 99 b 444 69 446 92 444 81 b 556 -42 444 7 493 -42 b 667 69 618 -42 667 7 b 663 101 667 81 665 92 b 694 97 672 99 683 97 b 806 208 757 97 806 146 b 782 278 806 235 797 258 b 806 347 797 297 806 321 b 782 417 806 374 797 397 b 806 486 797 436 806 460 b 782 556 806 513 797 536 z "},"Ẅ":{"ha":833,"x_min":0,"x_max":0,"o":"m 278 792 b 389 903 340 792 389 840 b 278 1014 389 965 340 1014 b 167 903 215 1014 167 965 b 278 792 167 840 215 792 z m 556 792 b 667 903 618 792 667 840 b 556 1014 667 965 618 1014 b 444 903 493 1014 444 965 b 556 792 444 840 493 792 z m 782 556 b 806 625 797 575 806 599 b 694 736 806 688 757 736 b 583 625 632 736 583 688 b 607 556 583 599 592 575 b 583 486 592 536 583 513 b 607 417 583 460 592 436 b 583 347 592 397 583 374 b 607 278 583 321 592 297 b 583 208 592 258 583 235 b 588 176 583 197 585 186 b 556 181 578 179 567 181 b 524 176 544 181 533 179 b 528 208 526 186 528 197 b 504 278 528 235 519 258 b 528 347 519 297 528 321 b 504 417 528 374 519 397 b 528 486 519 436 528 460 b 504 556 528 513 519 536 b 528 625 519 575 528 599 b 417 736 528 688 479 736 b 306 625 354 736 306 688 b 329 556 306 599 314 575 b 306 486 314 536 306 513 b 329 417 306 460 314 436 b 306 347 314 397 306 374 b 329 278 306 321 314 297 b 306 208 314 258 306 235 b 310 176 306 197 307 186 b 278 181 300 179 289 181 b 246 176 267 181 256 179 b 250 208 249 186 250 197 b 226 278 250 235 242 258 b 250 347 242 297 250 321 b 226 417 250 374 242 397 b 250 486 242 436 250 460 b 226 556 250 513 242 536 b 250 625 242 575 250 599 b 139 736 250 688 201 736 b 28 625 76 736 28 688 b 51 556 28 599 36 575 b 28 486 36 536 28 513 b 51 417 28 460 36 436 b 28 347 36 397 28 374 b 51 278 28 321 36 297 b 28 208 36 258 28 235 b 139 97 28 146 76 97 b 171 101 150 97 161 99 b 167 69 168 92 167 81 b 278 -42 167 7 215 -42 b 389 69 340 -42 389 7 b 385 101 389 81 388 92 b 417 97 394 99 406 97 b 449 101 428 97 439 99 b 444 69 446 92 444 81 b 556 -42 444 7 493 -42 b 667 69 618 -42 667 7 b 663 101 667 81 665 92 b 694 97 672 99 683 97 b 806 208 757 97 806 146 b 782 278 806 235 797 258 b 806 347 797 297 806 321 b 782 417 806 374 797 397 b 806 486 797 436 806 460 b 782 556 806 513 797 536 z "},"Ẁ":{"ha":833,"x_min":0,"x_max":0,"o":"m 278 931 b 310 935 289 931 300 932 b 306 903 307 925 306 914 b 417 792 306 840 354 792 b 528 903 479 792 528 840 b 417 1014 528 965 479 1014 b 385 1010 406 1014 394 1013 b 389 1042 388 1019 389 1031 b 278 1153 389 1104 340 1153 b 167 1042 215 1153 167 1104 b 278 931 167 979 215 931 z m 782 556 b 806 625 797 575 806 599 b 694 736 806 688 757 736 b 583 625 632 736 583 688 b 607 556 583 599 592 575 b 583 486 592 536 583 513 b 607 417 583 460 592 436 b 583 347 592 397 583 374 b 607 278 583 321 592 297 b 583 208 592 258 583 235 b 588 176 583 197 585 186 b 556 181 578 179 567 181 b 524 176 544 181 533 179 b 528 208 526 186 528 197 b 504 278 528 235 519 258 b 528 347 519 297 528 321 b 504 417 528 374 519 397 b 528 486 519 436 528 460 b 504 556 528 513 519 536 b 528 625 519 575 528 599 b 417 736 528 688 479 736 b 306 625 354 736 306 688 b 329 556 306 599 314 575 b 306 486 314 536 306 513 b 329 417 306 460 314 436 b 306 347 314 397 306 374 b 329 278 306 321 314 297 b 306 208 314 258 306 235 b 310 176 306 197 307 186 b 278 181 300 179 289 181 b 246 176 267 181 256 179 b 250 208 249 186 250 197 b 226 278 250 235 242 258 b 250 347 242 297 250 321 b 226 417 250 374 242 397 b 250 486 242 436 250 460 b 226 556 250 513 242 536 b 250 625 242 575 250 599 b 139 736 250 688 201 736 b 28 625 76 736 28 688 b 51 556 28 599 36 575 b 28 486 36 536 28 513 b 51 417 28 460 36 436 b 28 347 36 397 28 374 b 51 278 28 321 36 297 b 28 208 36 258 28 235 b 139 97 28 146 76 97 b 171 101 150 97 161 99 b 167 69 168 92 167 81 b 278 -42 167 7 215 -42 b 389 69 340 -42 389 7 b 385 101 389 81 388 92 b 417 97 394 99 406 97 b 449 101 428 97 439 99 b 444 69 446 92 444 81 b 556 -42 444 7 493 -42 b 667 69 618 -42 667 7 b 663 101 667 81 665 92 b 694 97 672 99 683 97 b 806 208 757 97 806 146 b 782 278 806 235 797 258 b 806 347 797 297 806 321 b 782 417 806 374 797 397 b 806 486 797 436 806 460 b 782 556 806 513 797 536 z "},"X":{"ha":556,"x_min":0,"x_max":0,"o":"m 528 486 b 504 556 528 513 519 536 b 528 625 519 575 528 599 b 417 736 528 688 479 736 b 306 625 354 736 306 688 b 329 556 306 599 314 575 b 306 486 314 536 306 513 b 310 454 306 475 307 464 b 278 458 300 457 289 458 b 246 454 267 458 256 457 b 250 486 249 464 250 475 b 226 556 250 513 242 536 b 250 625 242 575 250 599 b 139 736 250 688 201 736 b 28 625 76 736 28 688 b 51 556 28 599 36 575 b 28 486 36 536 28 513 b 139 375 28 424 76 375 b 171 379 150 375 161 376 b 167 347 168 369 167 358 b 171 315 167 336 168 325 b 139 319 161 318 150 319 b 28 208 76 319 28 271 b 51 139 28 182 36 158 b 28 69 36 119 28 96 b 139 -42 28 7 76 -42 b 250 69 201 -42 250 7 b 226 139 250 96 242 119 b 250 208 242 158 250 182 b 246 240 250 219 249 231 b 278 236 256 238 267 236 b 310 240 289 236 300 238 b 306 208 307 231 306 219 b 329 139 306 182 314 158 b 306 69 314 119 306 96 b 417 -42 306 7 354 -42 b 528 69 479 -42 528 7 b 504 139 528 96 519 119 b 528 208 519 158 528 182 b 417 319 528 271 479 319 b 385 315 406 319 394 318 b 389 347 388 325 389 336 b 385 379 389 358 388 369 b 417 375 394 376 406 375 b 528 486 479 375 528 424 z "},"Y":{"ha":556,"x_min":0,"x_max":0,"o":"m 528 625 b 417 736 528 688 479 736 b 306 625 354 736 306 688 b 329 556 306 599 314 575 b 306 486 314 536 306 513 b 310 454 306 475 307 464 b 278 458 300 457 289 458 b 246 454 267 458 256 457 b 250 486 249 464 250 475 b 226 556 250 513 242 536 b 250 625 242 575 250 599 b 139 736 250 688 201 736 b 28 625 76 736 28 688 b 51 556 28 599 36 575 b 28 486 36 536 28 513 b 139 375 28 424 76 375 b 171 379 150 375 161 376 b 167 347 168 369 167 358 b 190 278 167 321 175 297 b 167 208 175 258 167 235 b 190 139 167 182 175 158 b 167 69 175 119 167 96 b 278 -42 167 7 215 -42 b 389 69 340 -42 389 7 b 365 139 389 96 381 119 b 389 208 381 158 389 182 b 365 278 389 235 381 258 b 389 347 381 297 389 321 b 385 379 389 358 388 369 b 417 375 394 376 406 375 b 528 486 479 375 528 424 b 504 556 528 513 519 536 b 528 625 519 575 528 599 z "},"Ý":{"ha":556,"x_min":0,"x_max":0,"o":"m 278 792 b 389 903 340 792 389 840 b 385 935 389 914 388 925 b 417 931 394 932 406 931 b 528 1042 479 931 528 979 b 417 1153 528 1104 479 1153 b 306 1042 354 1153 306 1104 b 310 1010 306 1031 307 1019 b 278 1014 300 1013 289 1014 b 167 903 215 1014 167 965 b 278 792 167 840 215 792 z m 417 736 b 306 625 354 736 306 688 b 329 556 306 599 314 575 b 306 486 314 536 306 513 b 310 454 306 475 307 464 b 278 458 300 457 289 458 b 246 454 267 458 256 457 b 250 486 249 464 250 475 b 226 556 250 513 242 536 b 250 625 242 575 250 599 b 139 736 250 688 201 736 b 28 625 76 736 28 688 b 51 556 28 599 36 575 b 28 486 36 536 28 513 b 139 375 28 424 76 375 b 171 379 150 375 161 376 b 167 347 168 369 167 358 b 190 278 167 321 175 297 b 167 208 175 258 167 235 b 190 139 167 182 175 158 b 167 69 175 119 167 96 b 278 -42 167 7 215 -42 b 389 69 340 -42 389 7 b 365 139 389 96 381 119 b 389 208 381 158 389 182 b 365 278 389 235 381 258 b 389 347 381 297 389 321 b 385 379 389 358 388 369 b 417 375 394 376 406 375 b 528 486 479 375 528 424 b 504 556 528 513 519 536 b 528 625 519 575 528 599 b 417 736 528 688 479 736 z "},"Ŷ":{"ha":556,"x_min":0,"x_max":0,"o":"m 139 792 b 250 903 201 792 250 840 b 246 935 250 914 249 925 b 278 931 256 932 267 931 b 310 935 289 931 300 932 b 306 903 307 925 306 914 b 417 792 306 840 354 792 b 528 903 479 792 528 840 b 417 1014 528 965 479 1014 b 385 1010 406 1014 394 1013 b 389 1042 388 1019 389 1031 b 278 1153 389 1104 340 1153 b 167 1042 215 1153 167 1104 b 171 1010 167 1031 168 1019 b 139 1014 161 1013 150 1014 b 28 903 76 1014 28 965 b 139 792 28 840 76 792 z m 417 736 b 306 625 354 736 306 688 b 329 556 306 599 314 575 b 306 486 314 536 306 513 b 310 454 306 475 307 464 b 278 458 300 457 289 458 b 246 454 267 458 256 457 b 250 486 249 464 250 475 b 226 556 250 513 242 536 b 250 625 242 575 250 599 b 139 736 250 688 201 736 b 28 625 76 736 28 688 b 51 556 28 599 36 575 b 28 486 36 536 28 513 b 139 375 28 424 76 375 b 171 379 150 375 161 376 b 167 347 168 369 167 358 b 190 278 167 321 175 297 b 167 208 175 258 167 235 b 190 139 167 182 175 158 b 167 69 175 119 167 96 b 278 -42 167 7 215 -42 b 389 69 340 -42 389 7 b 365 139 389 96 381 119 b 389 208 381 158 389 182 b 365 278 389 235 381 258 b 389 347 381 297 389 321 b 385 379 389 358 388 369 b 417 375 394 376 406 375 b 528 486 479 375 528 424 b 504 556 528 513 519 536 b 528 625 519 575 528 599 b 417 736 528 688 479 736 z "},"Ÿ":{"ha":556,"x_min":0,"x_max":0,"o":"m 139 792 b 250 903 201 792 250 840 b 139 1014 250 965 201 1014 b 28 903 76 1014 28 965 b 139 792 28 840 76 792 z m 417 792 b 528 903 479 792 528 840 b 417 1014 528 965 479 1014 b 306 903 354 1014 306 965 b 417 792 306 840 354 792 z m 417 736 b 306 625 354 736 306 688 b 329 556 306 599 314 575 b 306 486 314 536 306 513 b 310 454 306 475 307 464 b 278 458 300 457 289 458 b 246 454 267 458 256 457 b 250 486 249 464 250 475 b 226 556 250 513 242 536 b 250 625 242 575 250 599 b 139 736 250 688 201 736 b 28 625 76 736 28 688 b 51 556 28 599 36 575 b 28 486 36 536 28 513 b 139 375 28 424 76 375 b 171 379 150 375 161 376 b 167 347 168 369 167 358 b 190 278 167 321 175 297 b 167 208 175 258 167 235 b 190 139 167 182 175 158 b 167 69 175 119 167 96 b 278 -42 167 7 215 -42 b 389 69 340 -42 389 7 b 365 139 389 96 381 119 b 389 208 381 158 389 182 b 365 278 389 235 381 258 b 389 347 381 297 389 321 b 385 379 389 358 388 369 b 417 375 394 376 406 375 b 528 486 479 375 528 424 b 504 556 528 513 519 536 b 528 625 519 575 528 599 b 417 736 528 688 479 736 z "},"Ỳ":{"ha":556,"x_min":0,"x_max":0,"o":"m 139 931 b 171 935 150 931 161 932 b 167 903 168 925 167 914 b 278 792 167 840 215 792 b 389 903 340 792 389 840 b 278 1014 389 965 340 1014 b 246 1010 267 1014 256 1013 b 250 1042 249 1019 250 1031 b 139 1153 250 1104 201 1153 b 28 1042 76 1153 28 1104 b 139 931 28 979 76 931 z m 528 625 b 417 736 528 688 479 736 b 306 625 354 736 306 688 b 329 556 306 599 314 575 b 306 486 314 536 306 513 b 310 454 306 475 307 464 b 278 458 300 457 289 458 b 246 454 267 458 256 457 b 250 486 249 464 250 475 b 226 556 250 513 242 536 b 250 625 242 575 250 599 b 139 736 250 688 201 736 b 28 625 76 736 28 688 b 51 556 28 599 36 575 b 28 486 36 536 28 513 b 139 375 28 424 76 375 b 171 379 150 375 161 376 b 167 347 168 369 167 358 b 190 278 167 321 175 297 b 167 208 175 258 167 235 b 190 139 167 182 175 158 b 167 69 175 119 167 96 b 278 -42 167 7 215 -42 b 389 69 340 -42 389 7 b 365 139 389 96 381 119 b 389 208 381 158 389 182 b 365 278 389 235 381 258 b 389 347 381 297 389 321 b 385 379 389 358 388 369 b 417 375 394 376 406 375 b 528 486 479 375 528 424 b 504 556 528 513 519 536 b 528 625 519 575 528 599 z "},"Z":{"ha":556,"x_min":0,"x_max":0,"o":"m 528 486 b 504 556 528 513 519 536 b 528 625 519 575 528 599 b 417 736 528 688 479 736 b 347 713 390 736 367 728 b 278 736 328 728 304 736 b 208 713 251 736 228 728 b 139 736 189 728 165 736 b 28 625 76 736 28 688 b 139 514 28 563 76 514 b 208 538 165 514 189 522 b 278 514 228 522 251 514 b 310 518 289 514 300 515 b 306 486 307 508 306 497 b 310 454 306 475 307 464 b 278 458 300 457 289 458 b 167 347 215 458 167 410 b 171 315 167 336 168 325 b 139 319 161 318 150 319 b 28 208 76 319 28 271 b 51 139 28 182 36 158 b 28 69 36 119 28 96 b 139 -42 28 7 76 -42 b 208 -18 165 -42 189 -33 b 278 -42 228 -33 251 -42 b 347 -18 304 -42 328 -33 b 417 -42 367 -33 390 -42 b 528 69 479 -42 528 7 b 417 181 528 132 479 181 b 347 157 390 181 367 172 b 278 181 328 172 304 181 b 246 176 267 181 256 179 b 250 208 249 186 250 197 b 246 240 250 219 249 231 b 278 236 256 238 267 236 b 389 347 340 236 389 285 b 385 379 389 358 388 369 b 417 375 394 376 406 375 b 528 486 479 375 528 424 z "},"Ź":{"ha":556,"x_min":0,"x_max":0,"o":"m 278 792 b 389 903 340 792 389 840 b 385 935 389 914 388 925 b 417 931 394 932 406 931 b 528 1042 479 931 528 979 b 417 1153 528 1104 479 1153 b 306 1042 354 1153 306 1104 b 310 1010 306 1031 307 1019 b 278 1014 300 1013 289 1014 b 167 903 215 1014 167 965 b 278 792 167 840 215 792 z m 417 736 b 347 713 390 736 367 728 b 278 736 328 728 304 736 b 208 713 251 736 228 728 b 139 736 189 728 165 736 b 28 625 76 736 28 688 b 139 514 28 563 76 514 b 208 538 165 514 189 522 b 278 514 228 522 251 514 b 310 518 289 514 300 515 b 306 486 307 508 306 497 b 310 454 306 475 307 464 b 278 458 300 457 289 458 b 167 347 215 458 167 410 b 171 315 167 336 168 325 b 139 319 161 318 150 319 b 28 208 76 319 28 271 b 51 139 28 182 36 158 b 28 69 36 119 28 96 b 139 -42 28 7 76 -42 b 208 -18 165 -42 189 -33 b 278 -42 228 -33 251 -42 b 347 -18 304 -42 328 -33 b 417 -42 367 -33 390 -42 b 528 69 479 -42 528 7 b 417 181 528 132 479 181 b 347 157 390 181 367 172 b 278 181 328 172 304 181 b 246 176 267 181 256 179 b 250 208 249 186 250 197 b 246 240 250 219 249 231 b 278 236 256 238 267 236 b 389 347 340 236 389 285 b 385 379 389 358 388 369 b 417 375 394 376 406 375 b 528 486 479 375 528 424 b 504 556 528 513 519 536 b 528 625 519 575 528 599 b 417 736 528 688 479 736 z "},"Ž":{"ha":556,"x_min":0,"x_max":0,"o":"m 139 931 b 171 935 150 931 161 932 b 167 903 168 925 167 914 b 278 792 167 840 215 792 b 389 903 340 792 389 840 b 385 935 389 914 388 925 b 417 931 394 932 406 931 b 528 1042 479 931 528 979 b 417 1153 528 1104 479 1153 b 306 1042 354 1153 306 1104 b 310 1010 306 1031 307 1019 b 278 1014 300 1013 289 1014 b 246 1010 267 1014 256 1013 b 250 1042 249 1019 250 1031 b 139 1153 250 1104 201 1153 b 28 1042 76 1153 28 1104 b 139 931 28 979 76 931 z m 417 736 b 347 713 390 736 367 728 b 278 736 328 728 304 736 b 208 713 251 736 228 728 b 139 736 189 728 165 736 b 28 625 76 736 28 688 b 139 514 28 563 76 514 b 208 538 165 514 189 522 b 278 514 228 522 251 514 b 310 518 289 514 300 515 b 306 486 307 508 306 497 b 310 454 306 475 307 464 b 278 458 300 457 289 458 b 167 347 215 458 167 410 b 171 315 167 336 168 325 b 139 319 161 318 150 319 b 28 208 76 319 28 271 b 51 139 28 182 36 158 b 28 69 36 119 28 96 b 139 -42 28 7 76 -42 b 208 -18 165 -42 189 -33 b 278 -42 228 -33 251 -42 b 347 -18 304 -42 328 -33 b 417 -42 367 -33 390 -42 b 528 69 479 -42 528 7 b 417 181 528 132 479 181 b 347 157 390 181 367 172 b 278 181 328 172 304 181 b 246 176 267 181 256 179 b 250 208 249 186 250 197 b 246 240 250 219 249 231 b 278 236 256 238 267 236 b 389 347 340 236 389 285 b 385 379 389 358 388 369 b 417 375 394 376 406 375 b 528 486 479 375 528 424 b 504 556 528 513 519 536 b 528 625 519 575 528 599 b 417 736 528 688 479 736 z "},"Ż":{"ha":556,"x_min":0,"x_max":0,"o":"m 278 792 b 389 903 340 792 389 840 b 278 1014 389 965 340 1014 b 167 903 215 1014 167 965 b 278 792 167 840 215 792 z m 528 486 b 504 556 528 513 519 536 b 528 625 519 575 528 599 b 417 736 528 688 479 736 b 347 713 390 736 367 728 b 278 736 328 728 304 736 b 208 713 251 736 228 728 b 139 736 189 728 165 736 b 28 625 76 736 28 688 b 139 514 28 563 76 514 b 208 538 165 514 189 522 b 278 514 228 522 251 514 b 310 518 289 514 300 515 b 306 486 307 508 306 497 b 310 454 306 475 307 464 b 278 458 300 457 289 458 b 167 347 215 458 167 410 b 171 315 167 336 168 325 b 139 319 161 318 150 319 b 28 208 76 319 28 271 b 51 139 28 182 36 158 b 28 69 36 119 28 96 b 139 -42 28 7 76 -42 b 208 -18 165 -42 189 -33 b 278 -42 228 -33 251 -42 b 347 -18 304 -42 328 -33 b 417 -42 367 -33 390 -42 b 528 69 479 -42 528 7 b 417 181 528 132 479 181 b 347 157 390 181 367 172 b 278 181 328 172 304 181 b 246 176 267 181 256 179 b 250 208 249 186 250 197 b 246 240 250 219 249 231 b 278 236 256 238 267 236 b 389 347 340 236 389 285 b 385 379 389 358 388 369 b 417 375 394 376 406 375 b 528 486 479 375 528 424 z "},"a":{"ha":556,"x_min":0,"x_max":0,"o":"m 504 278 b 528 347 519 297 528 321 b 417 458 528 410 479 458 b 385 454 406 458 394 457 b 389 486 388 464 389 475 b 278 597 389 549 340 597 b 208 574 251 597 228 589 b 139 597 189 589 165 597 b 28 486 76 597 28 549 b 139 375 28 424 76 375 b 208 399 165 375 189 383 b 278 375 228 383 251 375 b 310 379 289 375 300 376 b 306 347 307 369 306 358 b 310 315 306 336 307 325 b 278 319 300 318 289 319 b 208 296 251 319 228 311 b 139 319 189 311 165 319 b 28 208 76 319 28 271 b 51 139 28 182 36 158 b 28 69 36 119 28 96 b 139 -42 28 7 76 -42 b 250 69 201 -42 250 7 b 246 101 250 81 249 92 b 278 97 256 99 267 97 b 310 101 289 97 300 99 b 306 69 307 92 306 81 b 417 -42 306 7 354 -42 b 528 69 479 -42 528 7 b 504 139 528 96 519 119 b 528 208 519 158 528 182 b 504 278 528 235 519 258 z "},"á":{"ha":556,"x_min":0,"x_max":0,"o":"m 278 653 b 389 764 340 653 389 701 b 385 796 389 775 388 786 b 417 792 394 793 406 792 b 528 903 479 792 528 840 b 417 1014 528 965 479 1014 b 306 903 354 1014 306 965 b 310 871 306 892 307 881 b 278 875 300 874 289 875 b 167 764 215 875 167 826 b 278 653 167 701 215 653 z m 417 458 b 385 454 406 458 394 457 b 389 486 388 464 389 475 b 278 597 389 549 340 597 b 208 574 251 597 228 589 b 139 597 189 589 165 597 b 28 486 76 597 28 549 b 139 375 28 424 76 375 b 208 399 165 375 189 383 b 278 375 228 383 251 375 b 310 379 289 375 300 376 b 306 347 307 369 306 358 b 310 315 306 336 307 325 b 278 319 300 318 289 319 b 208 296 251 319 228 311 b 139 319 189 311 165 319 b 28 208 76 319 28 271 b 51 139 28 182 36 158 b 28 69 36 119 28 96 b 139 -42 28 7 76 -42 b 250 69 201 -42 250 7 b 246 101 250 81 249 92 b 278 97 256 99 267 97 b 310 101 289 97 300 99 b 306 69 307 92 306 81 b 417 -42 306 7 354 -42 b 528 69 479 -42 528 7 b 504 139 528 96 519 119 b 528 208 519 158 528 182 b 504 278 528 235 519 258 b 528 347 519 297 528 321 b 417 458 528 410 479 458 z "},"ă":{"ha":556,"x_min":0,"x_max":0,"o":"m 528 903 b 417 1014 528 965 479 1014 b 306 903 354 1014 306 965 b 310 871 306 892 307 881 b 278 875 300 874 289 875 b 246 871 267 875 256 874 b 250 903 249 881 250 892 b 139 1014 250 965 201 1014 b 28 903 76 1014 28 965 b 51 833 28 876 36 853 b 28 764 36 814 28 790 b 139 653 28 701 76 653 b 208 676 165 653 189 661 b 278 653 228 661 251 653 b 347 676 304 653 328 661 b 417 653 367 661 390 653 b 528 764 479 653 528 701 b 504 833 528 790 519 814 b 528 903 519 853 528 876 z m 417 458 b 385 454 406 458 394 457 b 389 486 388 464 389 475 b 278 597 389 549 340 597 b 208 574 251 597 228 589 b 139 597 189 589 165 597 b 28 486 76 597 28 549 b 139 375 28 424 76 375 b 208 399 165 375 189 383 b 278 375 228 383 251 375 b 310 379 289 375 300 376 b 306 347 307 369 306 358 b 310 315 306 336 307 325 b 278 319 300 318 289 319 b 208 296 251 319 228 311 b 139 319 189 311 165 319 b 28 208 76 319 28 271 b 51 139 28 182 36 158 b 28 69 36 119 28 96 b 139 -42 28 7 76 -42 b 250 69 201 -42 250 7 b 246 101 250 81 249 92 b 278 97 256 99 267 97 b 310 101 289 97 300 99 b 306 69 307 92 306 81 b 417 -42 306 7 354 -42 b 528 69 479 -42 528 7 b 504 139 528 96 519 119 b 528 208 519 158 528 182 b 504 278 528 235 519 258 b 528 347 519 297 528 321 b 417 458 528 410 479 458 z "},"â":{"ha":556,"x_min":0,"x_max":0,"o":"m 139 653 b 250 764 201 653 250 701 b 246 796 250 775 249 786 b 278 792 256 793 267 792 b 310 796 289 792 300 793 b 306 764 307 786 306 775 b 417 653 306 701 354 653 b 528 764 479 653 528 701 b 417 875 528 826 479 875 b 385 871 406 875 394 874 b 389 903 388 881 389 892 b 278 1014 389 965 340 1014 b 167 903 215 1014 167 965 b 171 871 167 892 168 881 b 139 875 161 874 150 875 b 28 764 76 875 28 826 b 139 653 28 701 76 653 z m 417 458 b 385 454 406 458 394 457 b 389 486 388 464 389 475 b 278 597 389 549 340 597 b 208 574 251 597 228 589 b 139 597 189 589 165 597 b 28 486 76 597 28 549 b 139 375 28 424 76 375 b 208 399 165 375 189 383 b 278 375 228 383 251 375 b 310 379 289 375 300 376 b 306 347 307 369 306 358 b 310 315 306 336 307 325 b 278 319 300 318 289 319 b 208 296 251 319 228 311 b 139 319 189 311 165 319 b 28 208 76 319 28 271 b 51 139 28 182 36 158 b 28 69 36 119 28 96 b 139 -42 28 7 76 -42 b 250 69 201 -42 250 7 b 246 101 250 81 249 92 b 278 97 256 99 267 97 b 310 101 289 97 300 99 b 306 69 307 92 306 81 b 417 -42 306 7 354 -42 b 528 69 479 -42 528 7 b 504 139 528 96 519 119 b 528 208 519 158 528 182 b 504 278 528 235 519 258 b 528 347 519 297 528 321 b 417 458 528 410 479 458 z "},"ä":{"ha":556,"x_min":0,"x_max":0,"o":"m 139 653 b 250 764 201 653 250 701 b 139 875 250 826 201 875 b 28 764 76 875 28 826 b 139 653 28 701 76 653 z m 417 653 b 528 764 479 653 528 701 b 417 875 528 826 479 875 b 306 764 354 875 306 826 b 417 653 306 701 354 653 z m 417 458 b 385 454 406 458 394 457 b 389 486 388 464 389 475 b 278 597 389 549 340 597 b 208 574 251 597 228 589 b 139 597 189 589 165 597 b 28 486 76 597 28 549 b 139 375 28 424 76 375 b 208 399 165 375 189 383 b 278 375 228 383 251 375 b 310 379 289 375 300 376 b 306 347 307 369 306 358 b 310 315 306 336 307 325 b 278 319 300 318 289 319 b 208 296 251 319 228 311 b 139 319 189 311 165 319 b 28 208 76 319 28 271 b 51 139 28 182 36 158 b 28 69 36 119 28 96 b 139 -42 28 7 76 -42 b 250 69 201 -42 250 7 b 246 101 250 81 249 92 b 278 97 256 99 267 97 b 310 101 289 97 300 99 b 306 69 307 92 306 81 b 417 -42 306 7 354 -42 b 528 69 479 -42 528 7 b 504 139 528 96 519 119 b 528 208 519 158 528 182 b 504 278 528 235 519 258 b 528 347 519 297 528 321 b 417 458 528 410 479 458 z "},"à":{"ha":556,"x_min":0,"x_max":0,"o":"m 139 792 b 171 796 150 792 161 793 b 167 764 168 786 167 775 b 278 653 167 701 215 653 b 389 764 340 653 389 701 b 278 875 389 826 340 875 b 246 871 267 875 256 874 b 250 903 249 881 250 892 b 139 1014 250 965 201 1014 b 28 903 76 1014 28 965 b 139 792 28 840 76 792 z m 504 278 b 528 347 519 297 528 321 b 417 458 528 410 479 458 b 385 454 406 458 394 457 b 389 486 388 464 389 475 b 278 597 389 549 340 597 b 208 574 251 597 228 589 b 139 597 189 589 165 597 b 28 486 76 597 28 549 b 139 375 28 424 76 375 b 208 399 165 375 189 383 b 278 375 228 383 251 375 b 310 379 289 375 300 376 b 306 347 307 369 306 358 b 310 315 306 336 307 325 b 278 319 300 318 289 319 b 208 296 251 319 228 311 b 139 319 189 311 165 319 b 28 208 76 319 28 271 b 51 139 28 182 36 158 b 28 69 36 119 28 96 b 139 -42 28 7 76 -42 b 250 69 201 -42 250 7 b 246 101 250 81 249 92 b 278 97 256 99 267 97 b 310 101 289 97 300 99 b 306 69 307 92 306 81 b 417 -42 306 7 354 -42 b 528 69 479 -42 528 7 b 504 139 528 96 519 119 b 528 208 519 158 528 182 b 504 278 528 235 519 258 z "},"ā":{"ha":556,"x_min":0,"x_max":0,"o":"m 139 653 b 208 676 165 653 189 661 b 278 653 228 661 251 653 b 347 676 304 653 328 661 b 417 653 367 661 390 653 b 528 764 479 653 528 701 b 417 875 528 826 479 875 b 347 851 390 875 367 867 b 278 875 328 867 304 875 b 208 851 251 875 228 867 b 139 875 189 867 165 875 b 28 764 76 875 28 826 b 139 653 28 701 76 653 z m 417 458 b 385 454 406 458 394 457 b 389 486 388 464 389 475 b 278 597 389 549 340 597 b 208 574 251 597 228 589 b 139 597 189 589 165 597 b 28 486 76 597 28 549 b 139 375 28 424 76 375 b 208 399 165 375 189 383 b 278 375 228 383 251 375 b 310 379 289 375 300 376 b 306 347 307 369 306 358 b 310 315 306 336 307 325 b 278 319 300 318 289 319 b 208 296 251 319 228 311 b 139 319 189 311 165 319 b 28 208 76 319 28 271 b 51 139 28 182 36 158 b 28 69 36 119 28 96 b 139 -42 28 7 76 -42 b 250 69 201 -42 250 7 b 246 101 250 81 249 92 b 278 97 256 99 267 97 b 310 101 289 97 300 99 b 306 69 307 92 306 81 b 417 -42 306 7 354 -42 b 528 69 479 -42 528 7 b 504 139 528 96 519 119 b 528 208 519 158 528 182 b 504 278 528 235 519 258 b 528 347 519 297 528 321 b 417 458 528 410 479 458 z "},"ą":{"ha":556,"x_min":0,"x_max":0,"o":"m 504 278 b 528 347 519 297 528 321 b 417 458 528 410 479 458 b 385 454 406 458 394 457 b 389 486 388 464 389 475 b 278 597 389 549 340 597 b 208 574 251 597 228 589 b 139 597 189 589 165 597 b 28 486 76 597 28 549 b 139 375 28 424 76 375 b 208 399 165 375 189 383 b 278 375 228 383 251 375 b 310 379 289 375 300 376 b 306 347 307 369 306 358 b 310 315 306 336 307 325 b 278 319 300 318 289 319 b 208 296 251 319 228 311 b 139 319 189 311 165 319 b 28 208 76 319 28 271 b 51 139 28 182 36 158 b 28 69 36 119 28 96 b 139 -42 28 7 76 -42 b 171 -37 150 -42 161 -40 b 167 -69 168 -47 167 -58 b 190 -139 167 -96 175 -119 b 167 -208 175 -158 167 -182 b 278 -319 167 -271 215 -319 b 347 -296 304 -319 328 -311 b 417 -319 367 -311 390 -319 b 528 -208 479 -319 528 -271 b 417 -97 528 -146 479 -97 b 385 -101 406 -97 394 -99 b 389 -69 388 -92 389 -81 b 385 -37 389 -58 388 -47 b 417 -42 394 -40 406 -42 b 528 69 479 -42 528 7 b 504 139 528 96 519 119 b 528 208 519 158 528 182 b 504 278 528 235 519 258 z m 310 101 b 306 69 307 92 306 81 b 310 38 306 58 307 47 b 278 42 300 40 289 42 b 246 38 267 42 256 40 b 250 69 249 47 250 58 b 246 101 250 81 249 92 b 278 97 256 99 267 97 b 310 101 289 97 300 99 z "},"å":{"ha":556,"x_min":0,"x_max":0,"o":"m 417 458 b 385 454 406 458 394 457 b 389 486 388 464 389 475 b 365 556 389 513 381 536 b 389 625 381 575 389 599 b 385 657 389 636 388 647 b 417 653 394 654 406 653 b 528 764 479 653 528 701 b 417 875 528 826 479 875 b 385 871 406 875 394 874 b 389 903 388 881 389 892 b 278 1014 389 965 340 1014 b 167 903 215 1014 167 965 b 171 871 167 892 168 881 b 139 875 161 874 150 875 b 28 764 76 875 28 826 b 139 653 28 701 76 653 b 171 657 150 653 161 654 b 167 625 168 647 167 636 b 171 593 167 614 168 603 b 139 597 161 596 150 597 b 28 486 76 597 28 549 b 139 375 28 424 76 375 b 208 399 165 375 189 383 b 278 375 228 383 251 375 b 310 379 289 375 300 376 b 306 347 307 369 306 358 b 310 315 306 336 307 325 b 278 319 300 318 289 319 b 208 296 251 319 228 311 b 139 319 189 311 165 319 b 28 208 76 319 28 271 b 51 139 28 182 36 158 b 28 69 36 119 28 96 b 139 -42 28 7 76 -42 b 250 69 201 -42 250 7 b 246 101 250 81 249 92 b 278 97 256 99 267 97 b 310 101 289 97 300 99 b 306 69 307 92 306 81 b 417 -42 306 7 354 -42 b 528 69 479 -42 528 7 b 504 139 528 96 519 119 b 528 208 519 158 528 182 b 504 278 528 235 519 258 b 528 347 519 297 528 321 b 417 458 528 410 479 458 z m 310 796 b 306 764 307 786 306 775 b 310 732 306 753 307 742 b 278 736 300 735 289 736 b 246 732 267 736 256 735 b 250 764 249 742 250 753 b 246 796 250 775 249 786 b 278 792 256 793 267 792 b 310 796 289 792 300 793 z "},"ã":{"ha":556,"x_min":0,"x_max":0,"o":"m 556 1014 b 444 903 493 1014 444 965 b 449 871 444 892 446 881 b 417 875 439 874 428 875 b 385 871 406 875 394 874 b 389 903 388 881 389 892 b 278 1014 389 965 340 1014 b 167 903 215 1014 167 965 b 171 871 167 892 168 881 b 139 875 161 874 150 875 b 28 764 76 875 28 826 b 139 653 28 701 76 653 b 250 764 201 653 250 701 b 246 796 250 775 249 786 b 278 792 256 793 267 792 b 310 796 289 792 300 793 b 306 764 307 786 306 775 b 417 653 306 701 354 653 b 528 764 479 653 528 701 b 524 796 528 775 526 786 b 556 792 533 793 544 792 b 667 903 618 792 667 840 b 556 1014 667 965 618 1014 z m 417 458 b 385 454 406 458 394 457 b 389 486 388 464 389 475 b 278 597 389 549 340 597 b 208 574 251 597 228 589 b 139 597 189 589 165 597 b 28 486 76 597 28 549 b 139 375 28 424 76 375 b 208 399 165 375 189 383 b 278 375 228 383 251 375 b 310 379 289 375 300 376 b 306 347 307 369 306 358 b 310 315 306 336 307 325 b 278 319 300 318 289 319 b 208 296 251 319 228 311 b 139 319 189 311 165 319 b 28 208 76 319 28 271 b 51 139 28 182 36 158 b 28 69 36 119 28 96 b 139 -42 28 7 76 -42 b 250 69 201 -42 250 7 b 246 101 250 81 249 92 b 278 97 256 99 267 97 b 310 101 289 97 300 99 b 306 69 307 92 306 81 b 417 -42 306 7 354 -42 b 528 69 479 -42 528 7 b 504 139 528 96 519 119 b 528 208 519 158 528 182 b 504 278 528 235 519 258 b 528 347 519 297 528 321 b 417 458 528 410 479 458 z "},"æ":{"ha":833,"x_min":0,"x_max":0,"o":"m 694 181 b 625 157 668 181 644 172 b 556 181 606 172 582 181 b 524 176 544 181 533 179 b 528 208 526 186 528 197 b 524 240 528 219 526 231 b 556 236 533 238 544 236 b 625 260 582 236 606 244 b 694 236 644 244 668 236 b 806 347 757 236 806 285 b 694 458 806 410 757 458 b 663 454 683 458 672 457 b 667 486 665 464 667 475 b 556 597 667 549 618 597 b 444 486 493 597 444 549 b 449 454 444 475 446 464 b 417 458 439 457 428 458 b 385 454 406 458 394 457 b 389 486 388 464 389 475 b 278 597 389 549 340 597 b 208 574 251 597 228 589 b 139 597 189 589 165 597 b 28 486 76 597 28 549 b 139 375 28 424 76 375 b 208 399 165 375 189 383 b 278 375 228 383 251 375 b 310 379 289 375 300 376 b 306 347 307 369 306 358 b 310 315 306 336 307 325 b 278 319 300 318 289 319 b 208 296 251 319 228 311 b 139 319 189 311 165 319 b 28 208 76 319 28 271 b 51 139 28 182 36 158 b 28 69 36 119 28 96 b 139 -42 28 7 76 -42 b 250 69 201 -42 250 7 b 246 101 250 81 249 92 b 278 97 256 99 267 97 b 310 101 289 97 300 99 b 306 69 307 92 306 81 b 417 -42 306 7 354 -42 b 486 -18 443 -42 467 -33 b 556 -42 506 -33 529 -42 b 625 -18 582 -42 606 -33 b 694 -42 644 -33 668 -42 b 806 69 757 -42 806 7 b 694 181 806 132 757 181 z "},"b":{"ha":556,"x_min":0,"x_max":0,"o":"m 528 347 b 417 458 528 410 479 458 b 385 454 406 458 394 457 b 389 486 388 464 389 475 b 278 597 389 549 340 597 b 246 593 267 597 256 596 b 250 625 249 603 250 614 b 139 736 250 688 201 736 b 28 625 76 736 28 688 b 51 556 28 599 36 575 b 28 486 36 536 28 513 b 51 417 28 460 36 436 b 28 347 36 397 28 374 b 51 278 28 321 36 297 b 28 208 36 258 28 235 b 51 139 28 182 36 158 b 28 69 36 119 28 96 b 139 -42 28 7 76 -42 b 208 -18 165 -42 189 -33 b 278 -42 228 -33 251 -42 b 389 69 340 -42 389 7 b 385 101 389 81 388 92 b 417 97 394 99 406 97 b 528 208 479 97 528 146 b 504 278 528 235 519 258 b 528 347 519 297 528 321 z m 246 176 b 250 208 249 186 250 197 b 226 278 250 235 242 258 b 250 347 242 297 250 321 b 246 379 250 358 249 369 b 278 375 256 376 267 375 b 310 379 289 375 300 376 b 306 347 307 369 306 358 b 329 278 306 321 314 297 b 306 208 314 258 306 235 b 310 176 306 197 307 186 b 278 181 300 179 289 181 b 246 176 267 181 256 179 z "},"c":{"ha":556,"x_min":0,"x_max":0,"o":"m 417 181 b 347 157 390 181 367 172 b 278 181 328 172 304 181 b 246 176 267 181 256 179 b 250 208 249 186 250 197 b 226 278 250 235 242 258 b 250 347 242 297 250 321 b 246 379 250 358 249 369 b 278 375 256 376 267 375 b 310 379 289 375 300 376 b 306 347 307 369 306 358 b 417 236 306 285 354 236 b 528 347 479 236 528 285 b 417 458 528 410 479 458 b 385 454 406 458 394 457 b 389 486 388 464 389 475 b 278 597 389 549 340 597 b 167 486 215 597 167 549 b 171 454 167 475 168 464 b 139 458 161 457 150 458 b 28 347 76 458 28 410 b 51 278 28 321 36 297 b 28 208 36 258 28 235 b 139 97 28 146 76 97 b 171 101 150 97 161 99 b 167 69 168 92 167 81 b 278 -42 167 7 215 -42 b 347 -18 304 -42 328 -33 b 417 -42 367 -33 390 -42 b 528 69 479 -42 528 7 b 417 181 528 132 479 181 z "},"ć":{"ha":556,"x_min":0,"x_max":0,"o":"m 278 653 b 389 764 340 653 389 701 b 385 796 389 775 388 786 b 417 792 394 793 406 792 b 528 903 479 792 528 840 b 417 1014 528 965 479 1014 b 306 903 354 1014 306 965 b 310 871 306 892 307 881 b 278 875 300 874 289 875 b 167 764 215 875 167 826 b 278 653 167 701 215 653 z m 417 236 b 528 347 479 236 528 285 b 417 458 528 410 479 458 b 385 454 406 458 394 457 b 389 486 388 464 389 475 b 278 597 389 549 340 597 b 167 486 215 597 167 549 b 171 454 167 475 168 464 b 139 458 161 457 150 458 b 28 347 76 458 28 410 b 51 278 28 321 36 297 b 28 208 36 258 28 235 b 139 97 28 146 76 97 b 171 101 150 97 161 99 b 167 69 168 92 167 81 b 278 -42 167 7 215 -42 b 347 -18 304 -42 328 -33 b 417 -42 367 -33 390 -42 b 528 69 479 -42 528 7 b 417 181 528 132 479 181 b 347 157 390 181 367 172 b 278 181 328 172 304 181 b 246 176 267 181 256 179 b 250 208 249 186 250 197 b 226 278 250 235 242 258 b 250 347 242 297 250 321 b 246 379 250 358 249 369 b 278 375 256 376 267 375 b 310 379 289 375 300 376 b 306 347 307 369 306 358 b 417 236 306 285 354 236 z "},"č":{"ha":556,"x_min":0,"x_max":0,"o":"m 139 792 b 171 796 150 792 161 793 b 167 764 168 786 167 775 b 278 653 167 701 215 653 b 389 764 340 653 389 701 b 385 796 389 775 388 786 b 417 792 394 793 406 792 b 528 903 479 792 528 840 b 417 1014 528 965 479 1014 b 306 903 354 1014 306 965 b 310 871 306 892 307 881 b 278 875 300 874 289 875 b 246 871 267 875 256 874 b 250 903 249 881 250 892 b 139 1014 250 965 201 1014 b 28 903 76 1014 28 965 b 139 792 28 840 76 792 z m 417 236 b 528 347 479 236 528 285 b 417 458 528 410 479 458 b 385 454 406 458 394 457 b 389 486 388 464 389 475 b 278 597 389 549 340 597 b 167 486 215 597 167 549 b 171 454 167 475 168 464 b 139 458 161 457 150 458 b 28 347 76 458 28 410 b 51 278 28 321 36 297 b 28 208 36 258 28 235 b 139 97 28 146 76 97 b 171 101 150 97 161 99 b 167 69 168 92 167 81 b 278 -42 167 7 215 -42 b 347 -18 304 -42 328 -33 b 417 -42 367 -33 390 -42 b 528 69 479 -42 528 7 b 417 181 528 132 479 181 b 347 157 390 181 367 172 b 278 181 328 172 304 181 b 246 176 267 181 256 179 b 250 208 249 186 250 197 b 226 278 250 235 242 258 b 250 347 242 297 250 321 b 246 379 250 358 249 369 b 278 375 256 376 267 375 b 310 379 289 375 300 376 b 306 347 307 369 306 358 b 417 236 306 285 354 236 z "},"ç":{"ha":556,"x_min":0,"x_max":0,"o":"m 417 181 b 347 157 390 181 367 172 b 278 181 328 172 304 181 b 246 176 267 181 256 179 b 250 208 249 186 250 197 b 226 278 250 235 242 258 b 250 347 242 297 250 321 b 246 379 250 358 249 369 b 278 375 256 376 267 375 b 310 379 289 375 300 376 b 306 347 307 369 306 358 b 417 236 306 285 354 236 b 528 347 479 236 528 285 b 417 458 528 410 479 458 b 385 454 406 458 394 457 b 389 486 388 464 389 475 b 278 597 389 549 340 597 b 167 486 215 597 167 549 b 171 454 167 475 168 464 b 139 458 161 457 150 458 b 28 347 76 458 28 410 b 51 278 28 321 36 297 b 28 208 36 258 28 235 b 139 97 28 146 76 97 b 171 101 150 97 161 99 b 167 69 168 92 167 81 b 190 0 167 43 175 19 b 167 -69 175 -19 167 -43 b 171 -101 167 -81 168 -92 b 139 -97 161 -99 150 -97 b 28 -208 76 -97 28 -146 b 139 -319 28 -271 76 -319 b 208 -296 165 -319 189 -311 b 278 -319 228 -311 251 -319 b 389 -208 340 -319 389 -271 b 365 -139 389 -182 381 -158 b 389 -69 381 -119 389 -96 b 385 -37 389 -58 388 -47 b 417 -42 394 -40 406 -42 b 528 69 479 -42 528 7 b 417 181 528 132 479 181 z "},"ċ":{"ha":556,"x_min":0,"x_max":0,"o":"m 278 653 b 389 764 340 653 389 701 b 278 875 389 826 340 875 b 167 764 215 875 167 826 b 278 653 167 701 215 653 z m 417 181 b 347 157 390 181 367 172 b 278 181 328 172 304 181 b 246 176 267 181 256 179 b 250 208 249 186 250 197 b 226 278 250 235 242 258 b 250 347 242 297 250 321 b 246 379 250 358 249 369 b 278 375 256 376 267 375 b 310 379 289 375 300 376 b 306 347 307 369 306 358 b 417 236 306 285 354 236 b 528 347 479 236 528 285 b 417 458 528 410 479 458 b 385 454 406 458 394 457 b 389 486 388 464 389 475 b 278 597 389 549 340 597 b 167 486 215 597 167 549 b 171 454 167 475 168 464 b 139 458 161 457 150 458 b 28 347 76 458 28 410 b 51 278 28 321 36 297 b 28 208 36 258 28 235 b 139 97 28 146 76 97 b 171 101 150 97 161 99 b 167 69 168 92 167 81 b 278 -42 167 7 215 -42 b 347 -18 304 -42 328 -33 b 417 -42 367 -33 390 -42 b 528 69 479 -42 528 7 b 417 181 528 132 479 181 z "},"d":{"ha":556,"x_min":0,"x_max":0,"o":"m 504 556 b 528 625 519 575 528 599 b 417 736 528 688 479 736 b 306 625 354 736 306 688 b 310 593 306 614 307 603 b 278 597 300 596 289 597 b 167 486 215 597 167 549 b 171 454 167 475 168 464 b 139 458 161 457 150 458 b 28 347 76 458 28 410 b 51 278 28 321 36 297 b 28 208 36 258 28 235 b 139 97 28 146 76 97 b 171 101 150 97 161 99 b 167 69 168 92 167 81 b 278 -42 167 7 215 -42 b 347 -18 304 -42 328 -33 b 417 -42 367 -33 390 -42 b 528 69 479 -42 528 7 b 504 139 528 96 519 119 b 528 208 519 158 528 182 b 504 278 528 235 519 258 b 528 347 519 297 528 321 b 504 417 528 374 519 397 b 528 486 519 436 528 460 b 504 556 528 513 519 536 z m 246 176 b 250 208 249 186 250 197 b 226 278 250 235 242 258 b 250 347 242 297 250 321 b 246 379 250 358 249 369 b 278 375 256 376 267 375 b 310 379 289 375 300 376 b 306 347 307 369 306 358 b 329 278 306 321 314 297 b 306 208 314 258 306 235 b 310 176 306 197 307 186 b 278 181 300 179 289 181 b 246 176 267 181 256 179 z "},"ð":{"ha":556,"x_min":0,"x_max":0,"o":"m 417 736 b 385 732 406 736 394 735 b 389 764 388 742 389 753 b 385 796 389 775 388 786 b 417 792 394 793 406 792 b 528 903 479 792 528 840 b 417 1014 528 965 479 1014 b 306 903 354 1014 306 965 b 310 871 306 892 307 881 b 278 875 300 874 289 875 b 246 871 267 875 256 874 b 250 903 249 881 250 892 b 139 1014 250 965 201 1014 b 28 903 76 1014 28 965 b 139 792 28 840 76 792 b 171 796 150 792 161 793 b 167 764 168 786 167 775 b 171 732 167 753 168 742 b 139 736 161 735 150 736 b 28 625 76 736 28 688 b 139 514 28 563 76 514 b 250 625 201 514 250 563 b 246 657 250 636 249 647 b 278 653 256 654 267 653 b 310 657 289 653 300 654 b 306 625 307 647 306 636 b 329 556 306 599 314 575 b 306 486 314 536 306 513 b 310 454 306 475 307 464 b 278 458 300 457 289 458 b 167 347 215 458 167 410 b 171 315 167 336 168 325 b 139 319 161 318 150 319 b 28 208 76 319 28 271 b 139 97 28 146 76 97 b 171 101 150 97 161 99 b 167 69 168 92 167 81 b 278 -42 167 7 215 -42 b 347 -18 304 -42 328 -33 b 417 -42 367 -33 390 -42 b 528 69 479 -42 528 7 b 504 139 528 96 519 119 b 528 208 519 158 528 182 b 504 278 528 235 519 258 b 528 347 519 297 528 321 b 504 417 528 374 519 397 b 528 486 519 436 528 460 b 504 556 528 513 519 536 b 528 625 519 575 528 599 b 417 736 528 688 479 736 z m 246 176 b 250 208 249 186 250 197 b 246 240 250 219 249 231 b 278 236 256 238 267 236 b 310 240 289 236 300 238 b 306 208 307 231 306 219 b 310 176 306 197 307 186 b 278 181 300 179 289 181 b 246 176 267 181 256 179 z "},"ď":{"ha":972,"x_min":0,"x_max":0,"o":"m 417 736 b 306 625 354 736 306 688 b 310 593 306 614 307 603 b 278 597 300 596 289 597 b 167 486 215 597 167 549 b 171 454 167 475 168 464 b 139 458 161 457 150 458 b 28 347 76 458 28 410 b 51 278 28 321 36 297 b 28 208 36 258 28 235 b 139 97 28 146 76 97 b 171 101 150 97 161 99 b 167 69 168 92 167 81 b 278 -42 167 7 215 -42 b 347 -18 304 -42 328 -33 b 417 -42 367 -33 390 -42 b 528 69 479 -42 528 7 b 504 139 528 96 519 119 b 528 208 519 158 528 182 b 504 278 528 235 519 258 b 528 347 519 297 528 321 b 504 417 528 374 519 397 b 528 486 519 436 528 460 b 504 556 528 513 519 536 b 528 625 519 575 528 599 b 417 736 528 688 479 736 z m 944 625 b 833 736 944 688 896 736 b 764 713 807 736 783 728 b 694 736 744 728 721 736 b 583 625 632 736 583 688 b 694 514 583 563 632 514 b 726 518 706 514 717 515 b 722 486 724 508 722 497 b 726 454 722 475 724 464 b 694 458 717 457 706 458 b 583 347 632 458 583 410 b 694 236 583 285 632 236 b 806 347 757 236 806 285 b 801 379 806 358 804 369 b 833 375 811 376 822 375 b 944 486 896 375 944 424 b 921 556 944 513 936 536 b 944 625 936 575 944 599 z m 246 176 b 250 208 249 186 250 197 b 226 278 250 235 242 258 b 250 347 242 297 250 321 b 246 379 250 358 249 369 b 278 375 256 376 267 375 b 310 379 289 375 300 376 b 306 347 307 369 306 358 b 329 278 306 321 314 297 b 306 208 314 258 306 235 b 310 176 306 197 307 186 b 278 181 300 179 289 181 b 246 176 267 181 256 179 z "},"đ":{"ha":694,"x_min":0,"x_max":0,"o":"m 556 597 b 524 593 544 597 533 596 b 528 625 526 603 528 614 b 417 736 528 688 479 736 b 347 713 390 736 367 728 b 278 736 328 728 304 736 b 167 625 215 736 167 688 b 278 514 167 563 215 514 b 310 518 289 514 300 515 b 306 486 307 508 306 497 b 310 454 306 475 307 464 b 278 458 300 457 289 458 b 167 347 215 458 167 410 b 171 315 167 336 168 325 b 139 319 161 318 150 319 b 28 208 76 319 28 271 b 139 97 28 146 76 97 b 171 101 150 97 161 99 b 167 69 168 92 167 81 b 278 -42 167 7 215 -42 b 347 -18 304 -42 328 -33 b 417 -42 367 -33 390 -42 b 528 69 479 -42 528 7 b 504 139 528 96 519 119 b 528 208 519 158 528 182 b 504 278 528 235 519 258 b 528 347 519 297 528 321 b 524 379 528 358 526 369 b 556 375 533 376 544 375 b 667 486 618 375 667 424 b 556 597 667 549 618 597 z m 246 176 b 250 208 249 186 250 197 b 246 240 250 219 249 231 b 278 236 256 238 267 236 b 310 240 289 236 300 238 b 306 208 307 231 306 219 b 310 176 306 197 307 186 b 278 181 300 179 289 181 b 246 176 267 181 256 179 z "},"e":{"ha":556,"x_min":0,"x_max":0,"o":"m 417 181 b 347 157 390 181 367 172 b 278 181 328 172 304 181 b 246 176 267 181 256 179 b 250 208 249 186 250 197 b 246 240 250 219 249 231 b 278 236 256 238 267 236 b 347 260 304 236 328 244 b 417 236 367 244 390 236 b 528 347 479 236 528 285 b 417 458 528 410 479 458 b 385 454 406 458 394 457 b 389 486 388 464 389 475 b 278 597 389 549 340 597 b 167 486 215 597 167 549 b 171 454 167 475 168 464 b 139 458 161 457 150 458 b 28 347 76 458 28 410 b 51 278 28 321 36 297 b 28 208 36 258 28 235 b 139 97 28 146 76 97 b 171 101 150 97 161 99 b 167 69 168 92 167 81 b 278 -42 167 7 215 -42 b 347 -18 304 -42 328 -33 b 417 -42 367 -33 390 -42 b 528 69 479 -42 528 7 b 417 181 528 132 479 181 z "},"é":{"ha":556,"x_min":0,"x_max":0,"o":"m 278 653 b 389 764 340 653 389 701 b 385 796 389 775 388 786 b 417 792 394 793 406 792 b 528 903 479 792 528 840 b 417 1014 528 965 479 1014 b 306 903 354 1014 306 965 b 310 871 306 892 307 881 b 278 875 300 874 289 875 b 167 764 215 875 167 826 b 278 653 167 701 215 653 z m 347 260 b 417 236 367 244 390 236 b 528 347 479 236 528 285 b 417 458 528 410 479 458 b 385 454 406 458 394 457 b 389 486 388 464 389 475 b 278 597 389 549 340 597 b 167 486 215 597 167 549 b 171 454 167 475 168 464 b 139 458 161 457 150 458 b 28 347 76 458 28 410 b 51 278 28 321 36 297 b 28 208 36 258 28 235 b 139 97 28 146 76 97 b 171 101 150 97 161 99 b 167 69 168 92 167 81 b 278 -42 167 7 215 -42 b 347 -18 304 -42 328 -33 b 417 -42 367 -33 390 -42 b 528 69 479 -42 528 7 b 417 181 528 132 479 181 b 347 157 390 181 367 172 b 278 181 328 172 304 181 b 246 176 267 181 256 179 b 250 208 249 186 250 197 b 246 240 250 219 249 231 b 278 236 256 238 267 236 b 347 260 304 236 328 244 z "},"ě":{"ha":556,"x_min":0,"x_max":0,"o":"m 139 792 b 171 796 150 792 161 793 b 167 764 168 786 167 775 b 278 653 167 701 215 653 b 389 764 340 653 389 701 b 385 796 389 775 388 786 b 417 792 394 793 406 792 b 528 903 479 792 528 840 b 417 1014 528 965 479 1014 b 306 903 354 1014 306 965 b 310 871 306 892 307 881 b 278 875 300 874 289 875 b 246 871 267 875 256 874 b 250 903 249 881 250 892 b 139 1014 250 965 201 1014 b 28 903 76 1014 28 965 b 139 792 28 840 76 792 z m 347 260 b 417 236 367 244 390 236 b 528 347 479 236 528 285 b 417 458 528 410 479 458 b 385 454 406 458 394 457 b 389 486 388 464 389 475 b 278 597 389 549 340 597 b 167 486 215 597 167 549 b 171 454 167 475 168 464 b 139 458 161 457 150 458 b 28 347 76 458 28 410 b 51 278 28 321 36 297 b 28 208 36 258 28 235 b 139 97 28 146 76 97 b 171 101 150 97 161 99 b 167 69 168 92 167 81 b 278 -42 167 7 215 -42 b 347 -18 304 -42 328 -33 b 417 -42 367 -33 390 -42 b 528 69 479 -42 528 7 b 417 181 528 132 479 181 b 347 157 390 181 367 172 b 278 181 328 172 304 181 b 246 176 267 181 256 179 b 250 208 249 186 250 197 b 246 240 250 219 249 231 b 278 236 256 238 267 236 b 347 260 304 236 328 244 z "},"ê":{"ha":556,"x_min":0,"x_max":0,"o":"m 139 653 b 250 764 201 653 250 701 b 246 796 250 775 249 786 b 278 792 256 793 267 792 b 310 796 289 792 300 793 b 306 764 307 786 306 775 b 417 653 306 701 354 653 b 528 764 479 653 528 701 b 417 875 528 826 479 875 b 385 871 406 875 394 874 b 389 903 388 881 389 892 b 278 1014 389 965 340 1014 b 167 903 215 1014 167 965 b 171 871 167 892 168 881 b 139 875 161 874 150 875 b 28 764 76 875 28 826 b 139 653 28 701 76 653 z m 347 260 b 417 236 367 244 390 236 b 528 347 479 236 528 285 b 417 458 528 410 479 458 b 385 454 406 458 394 457 b 389 486 388 464 389 475 b 278 597 389 549 340 597 b 167 486 215 597 167 549 b 171 454 167 475 168 464 b 139 458 161 457 150 458 b 28 347 76 458 28 410 b 51 278 28 321 36 297 b 28 208 36 258 28 235 b 139 97 28 146 76 97 b 171 101 150 97 161 99 b 167 69 168 92 167 81 b 278 -42 167 7 215 -42 b 347 -18 304 -42 328 -33 b 417 -42 367 -33 390 -42 b 528 69 479 -42 528 7 b 417 181 528 132 479 181 b 347 157 390 181 367 172 b 278 181 328 172 304 181 b 246 176 267 181 256 179 b 250 208 249 186 250 197 b 246 240 250 219 249 231 b 278 236 256 238 267 236 b 347 260 304 236 328 244 z "},"ë":{"ha":556,"x_min":0,"x_max":0,"o":"m 139 653 b 250 764 201 653 250 701 b 139 875 250 826 201 875 b 28 764 76 875 28 826 b 139 653 28 701 76 653 z m 417 653 b 528 764 479 653 528 701 b 417 875 528 826 479 875 b 306 764 354 875 306 826 b 417 653 306 701 354 653 z m 347 260 b 417 236 367 244 390 236 b 528 347 479 236 528 285 b 417 458 528 410 479 458 b 385 454 406 458 394 457 b 389 486 388 464 389 475 b 278 597 389 549 340 597 b 167 486 215 597 167 549 b 171 454 167 475 168 464 b 139 458 161 457 150 458 b 28 347 76 458 28 410 b 51 278 28 321 36 297 b 28 208 36 258 28 235 b 139 97 28 146 76 97 b 171 101 150 97 161 99 b 167 69 168 92 167 81 b 278 -42 167 7 215 -42 b 347 -18 304 -42 328 -33 b 417 -42 367 -33 390 -42 b 528 69 479 -42 528 7 b 417 181 528 132 479 181 b 347 157 390 181 367 172 b 278 181 328 172 304 181 b 246 176 267 181 256 179 b 250 208 249 186 250 197 b 246 240 250 219 249 231 b 278 236 256 238 267 236 b 347 260 304 236 328 244 z "},"ė":{"ha":556,"x_min":0,"x_max":0,"o":"m 278 653 b 389 764 340 653 389 701 b 278 875 389 826 340 875 b 167 764 215 875 167 826 b 278 653 167 701 215 653 z m 417 181 b 347 157 390 181 367 172 b 278 181 328 172 304 181 b 246 176 267 181 256 179 b 250 208 249 186 250 197 b 246 240 250 219 249 231 b 278 236 256 238 267 236 b 347 260 304 236 328 244 b 417 236 367 244 390 236 b 528 347 479 236 528 285 b 417 458 528 410 479 458 b 385 454 406 458 394 457 b 389 486 388 464 389 475 b 278 597 389 549 340 597 b 167 486 215 597 167 549 b 171 454 167 475 168 464 b 139 458 161 457 150 458 b 28 347 76 458 28 410 b 51 278 28 321 36 297 b 28 208 36 258 28 235 b 139 97 28 146 76 97 b 171 101 150 97 161 99 b 167 69 168 92 167 81 b 278 -42 167 7 215 -42 b 347 -18 304 -42 328 -33 b 417 -42 367 -33 390 -42 b 528 69 479 -42 528 7 b 417 181 528 132 479 181 z "},"è":{"ha":556,"x_min":0,"x_max":0,"o":"m 139 792 b 171 796 150 792 161 793 b 167 764 168 786 167 775 b 278 653 167 701 215 653 b 389 764 340 653 389 701 b 278 875 389 826 340 875 b 246 871 267 875 256 874 b 250 903 249 881 250 892 b 139 1014 250 965 201 1014 b 28 903 76 1014 28 965 b 139 792 28 840 76 792 z m 417 181 b 347 157 390 181 367 172 b 278 181 328 172 304 181 b 246 176 267 181 256 179 b 250 208 249 186 250 197 b 246 240 250 219 249 231 b 278 236 256 238 267 236 b 347 260 304 236 328 244 b 417 236 367 244 390 236 b 528 347 479 236 528 285 b 417 458 528 410 479 458 b 385 454 406 458 394 457 b 389 486 388 464 389 475 b 278 597 389 549 340 597 b 167 486 215 597 167 549 b 171 454 167 475 168 464 b 139 458 161 457 150 458 b 28 347 76 458 28 410 b 51 278 28 321 36 297 b 28 208 36 258 28 235 b 139 97 28 146 76 97 b 171 101 150 97 161 99 b 167 69 168 92 167 81 b 278 -42 167 7 215 -42 b 347 -18 304 -42 328 -33 b 417 -42 367 -33 390 -42 b 528 69 479 -42 528 7 b 417 181 528 132 479 181 z "},"ē":{"ha":556,"x_min":0,"x_max":0,"o":"m 139 653 b 208 676 165 653 189 661 b 278 653 228 661 251 653 b 347 676 304 653 328 661 b 417 653 367 661 390 653 b 528 764 479 653 528 701 b 417 875 528 826 479 875 b 347 851 390 875 367 867 b 278 875 328 867 304 875 b 208 851 251 875 228 867 b 139 875 189 867 165 875 b 28 764 76 875 28 826 b 139 653 28 701 76 653 z m 347 260 b 417 236 367 244 390 236 b 528 347 479 236 528 285 b 417 458 528 410 479 458 b 385 454 406 458 394 457 b 389 486 388 464 389 475 b 278 597 389 549 340 597 b 167 486 215 597 167 549 b 171 454 167 475 168 464 b 139 458 161 457 150 458 b 28 347 76 458 28 410 b 51 278 28 321 36 297 b 28 208 36 258 28 235 b 139 97 28 146 76 97 b 171 101 150 97 161 99 b 167 69 168 92 167 81 b 278 -42 167 7 215 -42 b 347 -18 304 -42 328 -33 b 417 -42 367 -33 390 -42 b 528 69 479 -42 528 7 b 417 181 528 132 479 181 b 347 157 390 181 367 172 b 278 181 328 172 304 181 b 246 176 267 181 256 179 b 250 208 249 186 250 197 b 246 240 250 219 249 231 b 278 236 256 238 267 236 b 347 260 304 236 328 244 z "},"ę":{"ha":556,"x_min":0,"x_max":0,"o":"m 528 69 b 417 181 528 132 479 181 b 347 157 390 181 367 172 b 278 181 328 172 304 181 b 246 176 267 181 256 179 b 250 208 249 186 250 197 b 246 240 250 219 249 231 b 278 236 256 238 267 236 b 347 260 304 236 328 244 b 417 236 367 244 390 236 b 528 347 479 236 528 285 b 417 458 528 410 479 458 b 385 454 406 458 394 457 b 389 486 388 464 389 475 b 278 597 389 549 340 597 b 167 486 215 597 167 549 b 171 454 167 475 168 464 b 139 458 161 457 150 458 b 28 347 76 458 28 410 b 51 278 28 321 36 297 b 28 208 36 258 28 235 b 139 97 28 146 76 97 b 171 101 150 97 161 99 b 167 69 168 92 167 81 b 190 0 167 43 175 19 b 167 -69 175 -19 167 -43 b 190 -139 167 -96 175 -119 b 167 -208 175 -158 167 -182 b 278 -319 167 -271 215 -319 b 347 -296 304 -319 328 -311 b 417 -319 367 -311 390 -319 b 528 -208 479 -319 528 -271 b 417 -97 528 -146 479 -97 b 385 -101 406 -97 394 -99 b 389 -69 388 -92 389 -81 b 385 -37 389 -58 388 -47 b 417 -42 394 -40 406 -42 b 528 69 479 -42 528 7 z "},"f":{"ha":417,"x_min":0,"x_max":0,"o":"m 278 458 b 246 454 267 458 256 457 b 250 486 249 464 250 475 b 246 518 250 497 249 508 b 278 514 256 515 267 514 b 389 625 340 514 389 563 b 278 736 389 688 340 736 b 167 625 215 736 167 688 b 171 593 167 614 168 603 b 139 597 161 596 150 597 b 28 486 76 597 28 549 b 51 417 28 460 36 436 b 28 347 36 397 28 374 b 51 278 28 321 36 297 b 28 208 36 258 28 235 b 51 139 28 182 36 158 b 28 69 36 119 28 96 b 139 -42 28 7 76 -42 b 250 69 201 -42 250 7 b 226 139 250 96 242 119 b 250 208 242 158 250 182 b 246 240 250 219 249 231 b 278 236 256 238 267 236 b 389 347 340 236 389 285 b 278 458 389 410 340 458 z "},"g":{"ha":556,"x_min":0,"x_max":0,"o":"m 528 347 b 417 458 528 410 479 458 b 385 454 406 458 394 457 b 389 486 388 464 389 475 b 278 597 389 549 340 597 b 208 574 251 597 228 589 b 139 597 189 589 165 597 b 28 486 76 597 28 549 b 51 417 28 460 36 436 b 28 347 36 397 28 374 b 139 236 28 285 76 236 b 208 260 165 236 189 244 b 278 236 228 244 251 236 b 310 240 289 236 300 238 b 306 208 307 231 306 219 b 310 176 306 197 307 186 b 278 181 300 179 289 181 b 208 157 251 181 228 172 b 139 181 189 172 165 181 b 28 69 76 181 28 132 b 139 -42 28 7 76 -42 b 208 -18 165 -42 189 -33 b 278 -42 228 -33 251 -42 b 389 69 340 -42 389 7 b 385 101 389 81 388 92 b 417 97 394 99 406 97 b 528 208 479 97 528 146 b 504 278 528 235 519 258 b 528 347 519 297 528 321 z "},"ğ":{"ha":556,"x_min":0,"x_max":0,"o":"m 528 903 b 417 1014 528 965 479 1014 b 306 903 354 1014 306 965 b 310 871 306 892 307 881 b 278 875 300 874 289 875 b 246 871 267 875 256 874 b 250 903 249 881 250 892 b 139 1014 250 965 201 1014 b 28 903 76 1014 28 965 b 51 833 28 876 36 853 b 28 764 36 814 28 790 b 139 653 28 701 76 653 b 208 676 165 653 189 661 b 278 653 228 661 251 653 b 347 676 304 653 328 661 b 417 653 367 661 390 653 b 528 764 479 653 528 701 b 504 833 528 790 519 814 b 528 903 519 853 528 876 z m 417 458 b 385 454 406 458 394 457 b 389 486 388 464 389 475 b 278 597 389 549 340 597 b 208 574 251 597 228 589 b 139 597 189 589 165 597 b 28 486 76 597 28 549 b 51 417 28 460 36 436 b 28 347 36 397 28 374 b 139 236 28 285 76 236 b 208 260 165 236 189 244 b 278 236 228 244 251 236 b 310 240 289 236 300 238 b 306 208 307 231 306 219 b 310 176 306 197 307 186 b 278 181 300 179 289 181 b 208 157 251 181 228 172 b 139 181 189 172 165 181 b 28 69 76 181 28 132 b 139 -42 28 7 76 -42 b 208 -18 165 -42 189 -33 b 278 -42 228 -33 251 -42 b 389 69 340 -42 389 7 b 385 101 389 81 388 92 b 417 97 394 99 406 97 b 528 208 479 97 528 146 b 504 278 528 235 519 258 b 528 347 519 297 528 321 b 417 458 528 410 479 458 z "},"ģ":{"ha":556,"x_min":0,"x_max":0,"o":"m 417 875 b 385 871 406 875 394 874 b 389 903 388 881 389 892 b 385 935 389 914 388 925 b 417 931 394 932 406 931 b 528 1042 479 931 528 979 b 417 1153 528 1104 479 1153 b 306 1042 354 1153 306 1104 b 310 1010 306 1031 307 1019 b 278 1014 300 1013 289 1014 b 167 903 215 1014 167 965 b 190 833 167 876 175 853 b 167 764 175 814 167 790 b 278 653 167 701 215 653 b 347 676 304 653 328 661 b 417 653 367 661 390 653 b 528 764 479 653 528 701 b 417 875 528 826 479 875 z m 417 458 b 385 454 406 458 394 457 b 389 486 388 464 389 475 b 278 597 389 549 340 597 b 208 574 251 597 228 589 b 139 597 189 589 165 597 b 28 486 76 597 28 549 b 51 417 28 460 36 436 b 28 347 36 397 28 374 b 139 236 28 285 76 236 b 208 260 165 236 189 244 b 278 236 228 244 251 236 b 310 240 289 236 300 238 b 306 208 307 231 306 219 b 310 176 306 197 307 186 b 278 181 300 179 289 181 b 208 157 251 181 228 172 b 139 181 189 172 165 181 b 28 69 76 181 28 132 b 139 -42 28 7 76 -42 b 208 -18 165 -42 189 -33 b 278 -42 228 -33 251 -42 b 389 69 340 -42 389 7 b 385 101 389 81 388 92 b 417 97 394 99 406 97 b 528 208 479 97 528 146 b 504 278 528 235 519 258 b 528 347 519 297 528 321 b 417 458 528 410 479 458 z "},"ġ":{"ha":556,"x_min":0,"x_max":0,"o":"m 278 653 b 389 764 340 653 389 701 b 278 875 389 826 340 875 b 167 764 215 875 167 826 b 278 653 167 701 215 653 z m 528 347 b 417 458 528 410 479 458 b 385 454 406 458 394 457 b 389 486 388 464 389 475 b 278 597 389 549 340 597 b 208 574 251 597 228 589 b 139 597 189 589 165 597 b 28 486 76 597 28 549 b 51 417 28 460 36 436 b 28 347 36 397 28 374 b 139 236 28 285 76 236 b 208 260 165 236 189 244 b 278 236 228 244 251 236 b 310 240 289 236 300 238 b 306 208 307 231 306 219 b 310 176 306 197 307 186 b 278 181 300 179 289 181 b 208 157 251 181 228 172 b 139 181 189 172 165 181 b 28 69 76 181 28 132 b 139 -42 28 7 76 -42 b 208 -18 165 -42 189 -33 b 278 -42 228 -33 251 -42 b 389 69 340 -42 389 7 b 385 101 389 81 388 92 b 417 97 394 99 406 97 b 528 208 479 97 528 146 b 504 278 528 235 519 258 b 528 347 519 297 528 321 z "},"h":{"ha":556,"x_min":0,"x_max":0,"o":"m 504 278 b 528 347 519 297 528 321 b 417 458 528 410 479 458 b 385 454 406 458 394 457 b 389 486 388 464 389 475 b 278 597 389 549 340 597 b 246 593 267 597 256 596 b 250 625 249 603 250 614 b 139 736 250 688 201 736 b 28 625 76 736 28 688 b 51 556 28 599 36 575 b 28 486 36 536 28 513 b 51 417 28 460 36 436 b 28 347 36 397 28 374 b 51 278 28 321 36 297 b 28 208 36 258 28 235 b 51 139 28 182 36 158 b 28 69 36 119 28 96 b 139 -42 28 7 76 -42 b 250 69 201 -42 250 7 b 226 139 250 96 242 119 b 250 208 242 158 250 182 b 226 278 250 235 242 258 b 250 347 242 297 250 321 b 246 379 250 358 249 369 b 278 375 256 376 267 375 b 310 379 289 375 300 376 b 306 347 307 369 306 358 b 329 278 306 321 314 297 b 306 208 314 258 306 235 b 329 139 306 182 314 158 b 306 69 314 119 306 96 b 417 -42 306 7 354 -42 b 528 69 479 -42 528 7 b 504 139 528 96 519 119 b 528 208 519 158 528 182 b 504 278 528 235 519 258 z "},"ħ":{"ha":694,"x_min":0,"x_max":0,"o":"m 667 208 b 556 319 667 271 618 319 b 524 315 544 319 533 318 b 528 347 526 325 528 336 b 417 458 528 410 479 458 b 385 454 406 458 394 457 b 389 486 388 464 389 475 b 385 518 389 497 388 508 b 417 514 394 515 406 514 b 528 625 479 514 528 563 b 417 736 528 688 479 736 b 347 713 390 736 367 728 b 278 736 328 728 304 736 b 167 625 215 736 167 688 b 171 593 167 614 168 603 b 139 597 161 596 150 597 b 28 486 76 597 28 549 b 139 375 28 424 76 375 b 171 379 150 375 161 376 b 167 347 168 369 167 358 b 190 278 167 321 175 297 b 167 208 175 258 167 235 b 190 139 167 182 175 158 b 167 69 175 119 167 96 b 278 -42 167 7 215 -42 b 389 69 340 -42 389 7 b 365 139 389 96 381 119 b 389 208 381 158 389 182 b 385 240 389 219 388 231 b 417 236 394 238 406 236 b 449 240 428 236 439 238 b 444 208 446 231 444 219 b 468 139 444 182 453 158 b 444 69 453 119 444 96 b 556 -42 444 7 493 -42 b 667 69 618 -42 667 7 b 643 139 667 96 658 119 b 667 208 658 158 667 182 z "},"i":{"ha":278,"x_min":0,"x_max":0,"o":"m 139 514 b 250 625 201 514 250 563 b 139 736 250 688 201 736 b 28 625 76 736 28 688 b 139 514 28 563 76 514 z m 139 458 b 28 347 76 458 28 410 b 51 278 28 321 36 297 b 28 208 36 258 28 235 b 51 139 28 182 36 158 b 28 69 36 119 28 96 b 139 -42 28 7 76 -42 b 250 69 201 -42 250 7 b 226 139 250 96 242 119 b 250 208 242 158 250 182 b 226 278 250 235 242 258 b 250 347 242 297 250 321 b 139 458 250 410 201 458 z "},"ı":{"ha":278,"x_min":0,"x_max":0,"o":"m 226 417 b 250 486 242 436 250 460 b 139 597 250 549 201 597 b 28 486 76 597 28 549 b 51 417 28 460 36 436 b 28 347 36 397 28 374 b 51 278 28 321 36 297 b 28 208 36 258 28 235 b 51 139 28 182 36 158 b 28 69 36 119 28 96 b 139 -42 28 7 76 -42 b 250 69 201 -42 250 7 b 226 139 250 96 242 119 b 250 208 242 158 250 182 b 226 278 250 235 242 258 b 250 347 242 297 250 321 b 226 417 250 374 242 397 z "},"í":{"ha":278,"x_min":0,"x_max":0,"o":"m 278 1014 b 167 903 215 1014 167 965 b 171 871 167 892 168 881 b 139 875 161 874 150 875 b 28 764 76 875 28 826 b 139 653 28 701 76 653 b 250 764 201 653 250 701 b 246 796 250 775 249 786 b 278 792 256 793 267 792 b 389 903 340 792 389 840 b 278 1014 389 965 340 1014 z m 139 597 b 28 486 76 597 28 549 b 51 417 28 460 36 436 b 28 347 36 397 28 374 b 51 278 28 321 36 297 b 28 208 36 258 28 235 b 51 139 28 182 36 158 b 28 69 36 119 28 96 b 139 -42 28 7 76 -42 b 250 69 201 -42 250 7 b 226 139 250 96 242 119 b 250 208 242 158 250 182 b 226 278 250 235 242 258 b 250 347 242 297 250 321 b 226 417 250 374 242 397 b 250 486 242 436 250 460 b 139 597 250 549 201 597 z "},"î":{"ha":278,"x_min":0,"x_max":0,"o":"m 278 875 b 246 871 267 875 256 874 b 250 903 249 881 250 892 b 139 1014 250 965 201 1014 b 28 903 76 1014 28 965 b 32 871 28 892 29 881 b 0 875 22 874 11 875 b -111 764 -62 875 -111 826 b 0 653 -111 701 -62 653 b 111 764 63 653 111 701 b 107 796 111 775 110 786 b 139 792 117 793 128 792 b 171 796 150 792 161 793 b 167 764 168 786 167 775 b 278 653 167 701 215 653 b 389 764 340 653 389 701 b 278 875 389 826 340 875 z m 139 597 b 28 486 76 597 28 549 b 51 417 28 460 36 436 b 28 347 36 397 28 374 b 51 278 28 321 36 297 b 28 208 36 258 28 235 b 51 139 28 182 36 158 b 28 69 36 119 28 96 b 139 -42 28 7 76 -42 b 250 69 201 -42 250 7 b 226 139 250 96 242 119 b 250 208 242 158 250 182 b 226 278 250 235 242 258 b 250 347 242 297 250 321 b 226 417 250 374 242 397 b 250 486 242 436 250 460 b 139 597 250 549 201 597 z "},"ï":{"ha":278,"x_min":0,"x_max":0,"o":"m 111 764 b 0 875 111 826 63 875 b -111 764 -62 875 -111 826 b 0 653 -111 701 -62 653 b 111 764 63 653 111 701 z m 278 875 b 167 764 215 875 167 826 b 278 653 167 701 215 653 b 389 764 340 653 389 701 b 278 875 389 826 340 875 z m 139 597 b 28 486 76 597 28 549 b 51 417 28 460 36 436 b 28 347 36 397 28 374 b 51 278 28 321 36 297 b 28 208 36 258 28 235 b 51 139 28 182 36 158 b 28 69 36 119 28 96 b 139 -42 28 7 76 -42 b 250 69 201 -42 250 7 b 226 139 250 96 242 119 b 250 208 242 158 250 182 b 226 278 250 235 242 258 b 250 347 242 297 250 321 b 226 417 250 374 242 397 b 250 486 242 436 250 460 b 139 597 250 549 201 597 z "},"ì":{"ha":278,"x_min":0,"x_max":0,"o":"m 28 764 b 139 653 28 701 76 653 b 250 764 201 653 250 701 b 139 875 250 826 201 875 b 107 871 128 875 117 874 b 111 903 110 881 111 892 b 0 1014 111 965 63 1014 b -111 903 -62 1014 -111 965 b 0 792 -111 840 -62 792 b 32 796 11 792 22 793 b 28 764 29 786 28 775 z m 139 597 b 28 486 76 597 28 549 b 51 417 28 460 36 436 b 28 347 36 397 28 374 b 51 278 28 321 36 297 b 28 208 36 258 28 235 b 51 139 28 182 36 158 b 28 69 36 119 28 96 b 139 -42 28 7 76 -42 b 250 69 201 -42 250 7 b 226 139 250 96 242 119 b 250 208 242 158 250 182 b 226 278 250 235 242 258 b 250 347 242 297 250 321 b 226 417 250 374 242 397 b 250 486 242 436 250 460 b 139 597 250 549 201 597 z "},"ī":{"ha":278,"x_min":0,"x_max":0,"o":"m 278 875 b 208 851 251 875 228 867 b 139 875 189 867 165 875 b 69 851 113 875 89 867 b 0 875 50 867 26 875 b -111 764 -62 875 -111 826 b 0 653 -111 701 -62 653 b 69 676 26 653 50 661 b 139 653 89 661 113 653 b 208 676 165 653 189 661 b 278 653 228 661 251 653 b 389 764 340 653 389 701 b 278 875 389 826 340 875 z m 139 597 b 28 486 76 597 28 549 b 51 417 28 460 36 436 b 28 347 36 397 28 374 b 51 278 28 321 36 297 b 28 208 36 258 28 235 b 51 139 28 182 36 158 b 28 69 36 119 28 96 b 139 -42 28 7 76 -42 b 250 69 201 -42 250 7 b 226 139 250 96 242 119 b 250 208 242 158 250 182 b 226 278 250 235 242 258 b 250 347 242 297 250 321 b 226 417 250 374 242 397 b 250 486 242 436 250 460 b 139 597 250 549 201 597 z "},"į":{"ha":278,"x_min":0,"x_max":0,"o":"m 139 653 b 250 764 201 653 250 701 b 139 875 250 826 201 875 b 28 764 76 875 28 826 b 139 653 28 701 76 653 z m 139 597 b 28 486 76 597 28 549 b 51 417 28 460 36 436 b 28 347 36 397 28 374 b 51 278 28 321 36 297 b 28 208 36 258 28 235 b 51 139 28 182 36 158 b 28 69 36 119 28 96 b 32 38 28 58 29 47 b 0 42 22 40 11 42 b -111 -69 -62 42 -111 -7 b -87 -139 -111 -96 -103 -119 b -111 -208 -103 -158 -111 -182 b 0 -319 -111 -271 -62 -319 b 69 -296 26 -319 50 -311 b 139 -319 89 -311 113 -319 b 250 -208 201 -319 250 -271 b 139 -97 250 -146 201 -97 b 107 -101 128 -97 117 -99 b 111 -69 110 -92 111 -81 b 107 -37 111 -58 110 -47 b 139 -42 117 -40 128 -42 b 250 69 201 -42 250 7 b 226 139 250 96 242 119 b 250 208 242 158 250 182 b 226 278 250 235 242 258 b 250 347 242 297 250 321 b 226 417 250 374 242 397 b 250 486 242 436 250 460 b 139 597 250 549 201 597 z "},"j":{"ha":556,"x_min":0,"x_max":0,"o":"m 504 417 b 528 486 519 436 528 460 b 417 597 528 549 479 597 b 347 574 390 597 367 589 b 278 597 328 589 304 597 b 167 486 215 597 167 549 b 278 375 167 424 215 375 b 310 379 289 375 300 376 b 306 347 307 369 306 358 b 329 278 306 321 314 297 b 306 208 314 258 306 235 b 310 176 306 197 307 186 b 278 181 300 179 289 181 b 246 176 267 181 256 179 b 250 208 249 186 250 197 b 139 319 250 271 201 319 b 28 208 76 319 28 271 b 139 97 28 146 76 97 b 171 101 150 97 161 99 b 167 69 168 92 167 81 b 278 -42 167 7 215 -42 b 389 69 340 -42 389 7 b 385 101 389 81 388 92 b 417 97 394 99 406 97 b 528 208 479 97 528 146 b 504 278 528 235 519 258 b 528 347 519 297 528 321 b 504 417 528 374 519 397 z "},"k":{"ha":556,"x_min":0,"x_max":0,"o":"m 417 181 b 385 176 406 181 394 179 b 389 208 388 186 389 197 b 365 278 389 235 381 258 b 389 347 381 297 389 321 b 385 379 389 358 388 369 b 417 375 394 376 406 375 b 528 486 479 375 528 424 b 417 597 528 549 479 597 b 306 486 354 597 306 549 b 310 454 306 475 307 464 b 278 458 300 457 289 458 b 246 454 267 458 256 457 b 250 486 249 464 250 475 b 226 556 250 513 242 536 b 250 625 242 575 250 599 b 139 736 250 688 201 736 b 28 625 76 736 28 688 b 51 556 28 599 36 575 b 28 486 36 536 28 513 b 51 417 28 460 36 436 b 28 347 36 397 28 374 b 51 278 28 321 36 297 b 28 208 36 258 28 235 b 51 139 28 182 36 158 b 28 69 36 119 28 96 b 139 -42 28 7 76 -42 b 250 69 201 -42 250 7 b 246 101 250 81 249 92 b 278 97 256 99 267 97 b 310 101 289 97 300 99 b 306 69 307 92 306 81 b 417 -42 306 7 354 -42 b 528 69 479 -42 528 7 b 417 181 528 132 479 181 z "},"ķ":{"ha":556,"x_min":0,"x_max":0,"o":"m 417 181 b 385 176 406 181 394 179 b 389 208 388 186 389 197 b 365 278 389 235 381 258 b 389 347 381 297 389 321 b 385 379 389 358 388 369 b 417 375 394 376 406 375 b 528 486 479 375 528 424 b 417 597 528 549 479 597 b 306 486 354 597 306 549 b 310 454 306 475 307 464 b 278 458 300 457 289 458 b 246 454 267 458 256 457 b 250 486 249 464 250 475 b 226 556 250 513 242 536 b 250 625 242 575 250 599 b 139 736 250 688 201 736 b 28 625 76 736 28 688 b 51 556 28 599 36 575 b 28 486 36 536 28 513 b 51 417 28 460 36 436 b 28 347 36 397 28 374 b 51 278 28 321 36 297 b 28 208 36 258 28 235 b 51 139 28 182 36 158 b 28 69 36 119 28 96 b 139 -42 28 7 76 -42 b 250 69 201 -42 250 7 b 246 101 250 81 249 92 b 278 97 256 99 267 97 b 310 101 289 97 300 99 b 306 69 307 92 306 81 b 417 -42 306 7 354 -42 b 528 69 479 -42 528 7 b 417 181 528 132 479 181 z m 278 -97 b 208 -121 251 -97 228 -106 b 139 -97 189 -106 165 -97 b 28 -208 76 -97 28 -146 b 139 -319 28 -271 76 -319 b 171 -315 150 -319 161 -318 b 167 -347 168 -325 167 -336 b 171 -379 167 -358 168 -369 b 139 -375 161 -376 150 -375 b 28 -486 76 -375 28 -424 b 139 -597 28 -549 76 -597 b 250 -486 201 -597 250 -549 b 246 -454 250 -475 249 -464 b 278 -458 256 -457 267 -458 b 389 -347 340 -458 389 -410 b 365 -278 389 -321 381 -297 b 389 -208 381 -258 389 -235 b 278 -97 389 -146 340 -97 z "},"l":{"ha":278,"x_min":0,"x_max":0,"o":"m 226 556 b 250 625 242 575 250 599 b 139 736 250 688 201 736 b 28 625 76 736 28 688 b 51 556 28 599 36 575 b 28 486 36 536 28 513 b 51 417 28 460 36 436 b 28 347 36 397 28 374 b 51 278 28 321 36 297 b 28 208 36 258 28 235 b 51 139 28 182 36 158 b 28 69 36 119 28 96 b 139 -42 28 7 76 -42 b 250 69 201 -42 250 7 b 226 139 250 96 242 119 b 250 208 242 158 250 182 b 226 278 250 235 242 258 b 250 347 242 297 250 321 b 226 417 250 374 242 397 b 250 486 242 436 250 460 b 226 556 250 513 242 536 z "},"ĺ":{"ha":278,"x_min":0,"x_max":0,"o":"m 278 1153 b 167 1042 215 1153 167 1104 b 171 1010 167 1031 168 1019 b 139 1014 161 1013 150 1014 b 28 903 76 1014 28 965 b 139 792 28 840 76 792 b 250 903 201 792 250 840 b 246 935 250 914 249 925 b 278 931 256 932 267 931 b 389 1042 340 931 389 979 b 278 1153 389 1104 340 1153 z m 139 736 b 28 625 76 736 28 688 b 51 556 28 599 36 575 b 28 486 36 536 28 513 b 51 417 28 460 36 436 b 28 347 36 397 28 374 b 51 278 28 321 36 297 b 28 208 36 258 28 235 b 51 139 28 182 36 158 b 28 69 36 119 28 96 b 139 -42 28 7 76 -42 b 250 69 201 -42 250 7 b 226 139 250 96 242 119 b 250 208 242 158 250 182 b 226 278 250 235 242 258 b 250 347 242 297 250 321 b 226 417 250 374 242 397 b 250 486 242 436 250 460 b 226 556 250 513 242 536 b 250 625 242 575 250 599 b 139 736 250 688 201 736 z "}}}
